<svg height="18px" viewBox="0 0 18 18" width="18px" xmlns="http://www.w3.org/2000/svg" style="height: 100%; width: 100%; overflow: visible;"><g id="Page-1" stroke="none"><g style="stroke: rgb(255, 255, 255);"><circle cx="7" cy="7" r="7" style="fill: rgb(199, 199, 199); stroke-width: 1.4025;"></circle><g transform="translate(2.5 3.1)" style="fill: rgb(255, 255, 255); stroke-width: 0.935;"><path d="M1.59388892,6.40695288 C1.41196969,6.58887212 1.41196969,6.88382147 1.59388892,7.0657407 C1.77580815,7.24765993 2.0707575,7.24765993 2.25267674,7.0657407 L7.53240737,1.78601007 C7.7143266,1.60409084 7.7143266,1.30914148 7.53240737,1.12722225 C7.35048814,0.945303019 7.05553878,0.945303019 6.87361955,1.12722225 L1.59388892,6.40695288 Z" id="Rectangle-53"></path><path d="M2.25267674,1.12722225 C2.0707575,0.945303019 1.77580815,0.945303019 1.59388892,1.12722225 C1.41196969,1.30914148 1.41196969,1.60409084 1.59388892,1.78601007 L6.87361955,7.0657407 C7.05553878,7.24765993 7.35048814,7.24765993 7.53240737,7.0657407 C7.7143266,6.88382147 7.7143266,6.58887212 7.53240737,6.40695288 L2.25267674,1.12722225 Z" id="Rectangle-53"></path></g></g></g></svg>