<?xml version="1.0" encoding="UTF-8"?>
<svg alt="chat bubble icon" title="chat bubble icon" height="27px" viewBox="0 0 32 27" width="32px" xmlns="http://www.w3.org/2000/svg" style="transform: scale(1.05) translateY(-2px) !important;display: block !important;">
        <path style="fill: #FFFFFF;" d="M4.61063196,5.75409836 C3.15915569,5.75409836 1.98250168,6.9183608 1.98250168,8.35455131 C1.98250168,13.7411978 1.98250168,13.7411978 1.98250168,19.1278442 L1.97488358,19.2023003 C1.4487461,21.7470729 0.809534978,23.9746701 0.0564403609,25.8855683 C-0.0181434285,26.0748167 -0.0188299922,26.2847653 0.0545145031,26.4744873 C0.217493967,26.8960705 0.695013302,27.1071019 1.12108367,26.9458393 C4.61569373,25.6231663 7.6704988,24.8058823 10.2881639,24.4953266 C19.1856982,24.4926847 19.1856982,24.4926847 28.0385364,24.4926847 C29.4900126,24.4926847 30.6666667,23.3284224 30.6666667,21.8922317 L30.6666667,8.35455131 C30.6666667,6.9183608 29.4900126,5.75409836 28.0385364,5.75409836 L4.61063196,5.75409836 Z"></path>
</svg>
