<?xml version="1.0" encoding="UTF-8"?>
<svg width="76px" height="75px" viewBox="0 0 76 75" version="1.1" xmlns="http://www.w3.org/2000/svg" xmlns:xlink="http://www.w3.org/1999/xlink">
    <!-- Generator: Sketch 53.2 (72643) - https://sketchapp.com -->
    <title>DCU_Illustration_Homepage_Non-Functional_Green_Growth-Fountain</title>
    <desc>Created with Sketch.</desc>
    <g id="DCU_Illustration_Homepage_Non-Functional_Green_Growth-Fountain" stroke="none" stroke-width="1" fill="none" fill-rule="evenodd">
        <path d="M12.7864028,22.6678238 L12.7864028,54.7589985 L62.036829,54.7589985 L60.9794548,52.3523565 L60.3243519,50.8610759 L60.1008259,50.3471076 C59.5523277,49.0960793 60.1291965,47.6382625 61.3766432,47.0968367 L61.4101721,47.0796758 L60.2358012,44.3931399 C58.9703005,44.8453291 57.64376,45.0915877 56.3060433,45.0915877 C55.3276874,45.0915877 54.3484719,44.9688874 53.3967672,44.7174805 C51.7229018,44.2704396 50.1453245,43.4492914 48.8471546,42.3321181 C47.5257724,41.2097965 46.5078697,39.8300616 45.8080616,38.2332416 C44.9182564,36.2168381 44.6500253,34.0382643 44.9749976,31.9163213 C44.9638213,31.8940122 44.9414687,31.8768513 44.9302924,31.8493939 L43.1446641,28.6265804 C42.942631,28.6651924 42.7362994,28.6935079 42.5179317,28.6935079 C41.7854544,28.6935079 41.1079989,28.4360947 40.5655186,28.0233755 L36.6314621,30.9055454 C36.8721823,31.3577347 37.0226325,31.871703 37.0226325,32.4182771 C37.0226325,34.2175955 35.5568182,35.6805606 33.7608732,35.6805606 C31.9580506,35.6805606 30.4922362,34.2175955 30.4922362,32.4182771 C30.4922362,31.3911984 30.984853,30.4808136 31.7345246,29.8827569 L29.2551061,23.6053067 C29.0814437,23.6336221 28.9026229,23.6610795 28.7177842,23.6610795 C28.0523646,23.6610795 27.4368086,23.4602972 26.9218392,23.1196537 L22.7307279,25.6946439 C23.0385059,26.1914514 23.2233446,26.7663409 23.2233446,27.3927131 C23.2233446,29.1851671 21.7566706,30.6481322 19.9547077,30.6481322 C18.1527447,30.6481322 16.6920887,29.1851671 16.6920887,27.3927131 C16.6920887,25.5933947 18.1527447,24.1304296 19.9547077,24.1304296 C20.5762817,24.1304296 21.1522909,24.3149091 21.6449076,24.6160826 L25.8919005,22.0084867 C25.6176513,21.527982 25.4500069,20.9856982 25.4500069,20.3996541 C25.4500069,18.6011938 26.9166809,17.1433769 28.7177842,17.1433769 C30.5197471,17.1433769 31.9804031,18.6011938 31.9804031,20.3996541 C31.9804031,21.4833637 31.4490992,22.4323604 30.6323698,23.0304172 L33.0834177,29.2357917 C33.3017853,29.1903154 33.5253113,29.162858 33.7608732,29.162858 C34.4649799,29.162858 35.1149246,29.3919557 35.6513868,29.7772175 L39.6077959,26.8778867 C39.390288,26.4428583 39.2553127,25.9572054 39.2553127,25.4312244 C39.2553127,23.6336221 40.7168285,22.169799 42.5179317,22.169799 C44.3198947,22.169799 45.785709,23.6336221 45.785709,25.4312244 C45.785709,26.4823284 45.2767576,27.4030096 44.5047334,28.0010663 L45.5063016,29.8218358 C45.5518665,29.7042838 45.5793774,29.5815835 45.6292408,29.4700378 C46.7425719,26.6161832 48.9030361,24.370682 51.7125852,23.1419629 C53.2119284,22.482985 54.7731711,22.1758053 56.3120613,22.1758053 C60.7335763,22.1758053 64.9582165,24.7387829 66.8435718,29.0290031 C69.2834434,34.5856964 66.9278239,41.0424779 61.6010288,43.7959412 L62.7762595,46.4824771 L62.8261229,46.460168 C63.4193264,46.1976065 64.0967819,46.1804456 64.712338,46.420698 C65.3270343,46.6609503 65.8144928,47.1242941 66.0775656,47.7335054 L67.4599876,50.8610759 L68.1090725,52.3523565 L69.1664468,54.7589985 L70.9564491,54.7589985 L70.9564491,6.79948428 L21.8315209,6.79948428 C22.4478274,8.19418591 22.7912147,9.73504525 22.793659,11.3544969 C22.7896782,17.1686586 18.4113038,21.9746844 12.7864028,22.6678238 Z M10.2571208,22.6980432 C7.65206444,22.4421512 5.23129774,21.3092148 3.35292038,19.438988 C1.19589507,17.2947359 0.0043298791,14.4365912 3.13033641e-05,11.3999733 C-0.0145838541,5.12595516 5.09040469,0.0137287048 11.3757821,1.95399252e-14 L11.3946959,1.95399252e-14 C14.9906302,1.95399252e-14 18.2045122,1.67027185 20.2956558,4.27511868 L40.6102238,4.27511868 L43.1395058,4.27511868 L74.8733113,4.27511868 C75.7003573,4.48104925 76.1465494,5.28160435 75.9565524,5.91998912 C75.8155591,6.39534553 75.3306798,6.75400794 74.7512318,6.79948428 L73.4865908,6.79948428 L73.4865908,56.0211813 C73.4865908,56.7144808 72.9217579,57.2842221 72.2219498,57.2842221 L43.1395058,57.2842221 L43.1395058,70.1797661 L52.2275546,72.4475766 C52.8757798,72.6097469 53.346044,73.2292547 53.240299,73.8882325 C53.1336944,74.5197529 52.5912141,74.949633 51.9919926,74.949633 C51.891406,74.949633 51.785661,74.9384784 51.6842146,74.911021 L41.8740051,72.4647374 L32.0646552,74.9161693 C31.3485125,75.0946425 30.6160352,74.6201441 30.5034125,73.8719297 C30.4079841,73.2181001 30.8782483,72.6097469 31.516157,72.4475766 L40.6102238,70.1797661 L40.6102238,57.2842221 L11.5217618,57.2842221 C10.8219536,57.2842221 10.2571208,56.7144808 10.2571208,56.0211813 L10.2571208,22.6980432 Z M63.6651294,54.7589985 L67.5441642,54.7589985 L64.718356,48.330704 C64.6108916,48.0853034 64.4157362,47.900824 64.168998,47.8064391 C64.051217,47.7609628 63.9291375,47.7386536 63.8053385,47.7446599 C63.6772409,47.7446599 63.5422657,47.7669691 63.4253444,47.822742 L61.9750049,48.4594106 C61.4720716,48.6713475 61.2476859,49.2522433 61.4660536,49.7550572 L62.1486674,51.3081169 C62.1546854,51.3132652 62.1546854,51.3192715 62.1546854,51.3244197 L63.6651294,54.7589985 Z M53.6466004,31.651958 C53.6466004,32.6292701 54.4435564,33.4238189 55.4219122,33.4238189 C56.400268,33.4238189 57.197224,32.6292701 57.197224,31.651958 C57.197224,30.6746458 56.400268,29.880097 55.4219122,29.880097 C54.4435564,29.880097 53.6466004,30.6746458 53.6466004,31.651958 Z M59.2046588,40.1972187 C62.8343762,38.6089791 64.4927667,34.3728157 62.9040131,30.7535858 C61.7244839,28.068766 59.0817196,26.4667978 56.3151562,26.4667978 C55.3522753,26.4667978 54.3756389,26.6607157 53.4385493,27.0708608 C51.6821513,27.8388102 50.3315388,29.2442864 49.6334501,31.0281599 C49.0797935,32.4422165 48.9981206,33.9592384 49.3686578,35.4016105 L52.5126361,33.1003363 C52.2925491,32.6618758 52.1567141,32.1745068 52.1567141,31.651958 C52.1567141,29.8552137 53.6216687,28.3931067 55.4219122,28.3931067 C57.2230154,28.3931067 58.6871103,29.8552137 58.6871103,31.651958 C58.6871103,33.4495603 57.2230154,34.9116673 55.4219122,34.9116673 C54.685996,34.9116673 54.0136988,34.6576863 53.4669199,34.2458251 L49.914577,36.8465567 C50.3435748,37.7003105 50.9187243,38.4536732 51.6460433,39.0766131 C52.4722295,39.7827834 53.4316716,40.2847392 54.4951393,40.5678937 C56.0538028,40.9763227 57.7259488,40.8441839 59.2046588,40.1972187 Z M64.2675214,30.1563872 L64.2675214,30.1572452 C66.188125,34.5272636 64.1849887,39.6429222 59.8030206,41.5597926 C58.7000061,42.0420134 57.5067214,42.287414 56.3117174,42.287414 C55.5723623,42.287414 54.833867,42.1947452 54.1142855,42.0059755 C52.847925,41.6687642 51.6597987,41.0466823 50.6762846,40.2057991 C49.6824539,39.3546194 48.90957,38.3129539 48.3799854,37.1091181 C47.4506333,34.9923235 47.4024893,32.6404247 48.2450101,30.4867341 C49.087531,28.3330436 50.7201301,26.6366905 52.8410473,25.7082868 C57.2230154,23.7922745 62.3477774,25.7872269 64.2675214,30.1563872 Z M60.3303699,42.7680045 C64.0795876,41.1257081 66.3182859,37.4567118 66.3182859,33.6143905 C66.3182859,32.279274 66.049195,30.9218483 65.4783442,29.6262018 C63.8328494,25.890278 60.1627254,23.6610795 56.3120613,23.6610795 C54.9752042,23.6610795 53.6142751,23.9347956 52.310947,24.5045368 C49.8659171,25.5710856 47.9857201,27.526568 47.0176808,30.0054572 C46.0436235,32.4912109 46.099505,35.2000559 47.1681309,37.6411912 C47.777669,39.0260743 48.6683339,40.227336 49.8160536,41.2046482 C50.9629136,42.1871086 52.2997707,42.8855565 53.777621,43.2819728 C55.9484018,43.8517141 58.2765104,43.6672346 60.3303699,42.7680045 Z M42.5179317,27.2022273 C43.4971473,27.2022273 44.2923838,26.4093946 44.2923838,25.4312244 C44.2923838,24.4547703 43.4971473,23.6610795 42.5179317,23.6610795 C41.5387162,23.6610795 40.7443394,24.4547703 40.7443394,25.4312244 C40.7443394,26.4093946 41.5387162,27.2022273 42.5179317,27.2022273 Z M33.7608732,34.1952863 C34.7340708,34.1952863 35.5336059,33.3964473 35.5336059,32.4182771 C35.5336059,31.4409649 34.7340708,30.6481322 33.7608732,30.6481322 C32.7807979,30.6481322 31.9804031,31.4409649 31.9804031,32.4182771 C31.9804031,33.3964473 32.7807979,34.1952863 33.7608732,34.1952863 Z M28.7177842,22.169799 C29.6969997,22.169799 30.4922362,21.3769663 30.4922362,20.3996541 C30.4922362,19.4223419 29.6969997,18.6295092 28.7177842,18.6295092 C27.7394283,18.6295092 26.9381738,19.4223419 26.9381738,20.3996541 C26.9381738,21.3769663 27.7394283,22.169799 28.7177842,22.169799 Z M19.9547077,29.162858 C20.9339232,29.162858 21.7291597,28.3691672 21.7291597,27.3927131 C21.7291597,26.4145429 20.9339232,25.6157039 19.9547077,25.6157039 C18.9754921,25.6157039 18.1811153,26.4145429 18.1811153,27.3927131 C18.1811153,28.3691672 18.9754921,29.162858 19.9547077,29.162858 Z M11.9462031,5.2532889 L11.9462031,5.99120678 C12.9795807,6.24518782 13.8306987,6.97280917 14.2425023,7.95269548 C14.3740387,8.38000142 14.1341782,8.83219063 13.70604,8.96432942 C13.338082,9.07673319 12.9417533,8.91713699 12.7569145,8.58078373 C12.4843848,7.9278122 11.843897,7.50479649 11.1354918,7.50908671 C10.2955501,7.50908671 9.38683115,7.98873333 9.38683115,9.04069534 C9.38683115,9.31526943 9.38683115,10.1510043 11.3143125,10.5903229 L11.340104,10.5903229 C14.0860341,11.2381462 14.4986974,12.8203794 14.4986974,13.7144613 C14.4995571,15.2168964 13.4240535,16.5056786 11.9427643,16.7759625 L11.9427643,17.5010097 C11.9427643,17.9480506 11.5799645,18.3101452 11.1320529,18.3101452 C10.6841413,18.3101452 10.3213415,17.9480506 10.3213415,17.5010097 L10.3213415,16.7699561 C9.28624447,16.5168332 8.43340705,15.7883538 8.02246321,14.8084674 C7.87115334,14.3880259 8.0903807,13.923824 8.51250084,13.7736663 C8.90109209,13.6346632 9.33266909,13.8097042 9.51406899,14.1803792 C9.78573897,14.8324927 10.4270865,15.2563664 11.1354918,15.2512182 C11.9754335,15.2512182 12.8832927,14.7724296 12.8832927,13.7204676 C12.8832927,13.4450354 12.8832927,12.6101586 10.9575307,12.169982 L10.9308796,12.169982 C8.18408965,11.5230168 7.7722861,9.94335768 7.7722861,9.04670165 C7.76798752,7.54255042 8.84263146,6.25033608 10.3239207,5.97833612 L10.3239207,5.2532889 C10.3239207,4.80624795 10.6875802,4.44415336 11.1354918,4.44415336 C11.5834033,4.44415336 11.9462031,4.80624795 11.9462031,5.2532889 Z M19.0917256,16.4572849 C20.0675023,14.9805911 20.6211588,13.2241749 20.6211588,11.3776641 C20.6125617,6.31949443 16.4850693,2.20002495 11.4170485,2.19487668 C6.34558881,2.19487668 2.21723667,6.31520421 2.21723667,11.3776641 C2.21723667,16.4435562 6.34558881,20.5638837 11.4170485,20.5638837 C12.6593369,20.5638837 13.8637978,20.3210573 14.9994815,19.8414106 C16.7042966,19.1232278 18.1107906,17.9296885 19.0917256,16.4572849 Z" id="GrowthFountain" fill="#01675A"></path>
    </g>
</svg>