<?xml version="1.0" encoding="UTF-8"?>
<svg width="91px" height="75px" viewBox="0 0 91 75" version="1.1" xmlns="http://www.w3.org/2000/svg" xmlns:xlink="http://www.w3.org/1999/xlink">
    <!-- Generator: Sketch 53.2 (72643) - https://sketchapp.com -->
    <title>DCU_Illustration_Homepage_Non-Functional_Green_FinTech</title>
    <desc>Created with Sketch.</desc>
    <g id="DCU_Illustration_Homepage_Non-Functional_Green_FinTech" stroke="none" stroke-width="1" fill="none" fill-rule="evenodd">
        <path d="M69.8251217,72.4712493 L64.6792812,37.9819002 L78.7884259,37.9819002 C81.3026222,37.9819002 83.4093956,39.8025026 83.7811791,42.3198183 L88.2895607,72.4712493 L69.8251217,72.4712493 Z M25.803197,72.4712493 L27.7390633,59.5171197 L28.1173268,56.9940865 L28.6478675,53.4410938 C28.6891768,53.4533455 29.0196511,50.9303123 29.0196511,50.9303123 L32.1947959,29.6809658 C32.4831509,27.7476477 34.1063626,26.3427862 36.042229,26.3427862 L60.4009355,26.3427862 L67.2939157,72.4712493 L25.803197,72.4712493 Z M47.5075797,9.05645583 L58.0997655,9.05645583 L58.0997655,2.23144276 L47.5075797,2.23144276 L47.5075797,9.05645583 Z M60.0178122,10.0210729 L60.0178122,6.61673419 L62.2663331,6.61673419 L62.2663331,13.4245949 L51.6741472,13.4245949 L51.6741472,10.9848732 L59.0620288,10.9848732 C59.5868997,10.9848732 60.0178122,10.5560638 60.0178122,10.0210729 L60.0178122,10.0210729 Z M23.271991,72.4712493 L2.71373837,72.4712493 L3.16733049,69.4303777 L3.54559391,66.901627 L4.07046479,63.3674203 L4.44791823,60.8378528 L6.02334084,50.2997582 C6.31250581,48.3590891 7.93004769,46.9550444 9.87077396,46.9550444 L21.5726405,46.9550444 L24.3282126,65.3783325 L23.271991,72.4712493 Z M90.9860038,73.5420478 L86.259736,41.9391989 C85.6992258,38.1787441 82.5540504,35.4531495 78.7884259,35.4531495 L64.2961578,35.4531495 L62.7207352,24.8913683 C62.6259669,24.2657148 62.1067659,23.8140355 61.4814568,23.8140355 L47.8032245,23.8140355 L47.8032245,11.2821811 L49.4604557,11.2821811 L49.4604557,14.3941127 C49.4604557,15.0908259 50.021776,15.6552209 50.711884,15.6552209 L63.2277864,15.6552209 C63.9187044,15.6552209 64.4784047,15.0908259 64.4784047,14.3941127 L64.4784047,5.64721641 C64.4784047,4.95050314 63.9187044,4.38529143 63.2277864,4.38529143 L60.3126471,4.38529143 L60.3126471,1.26110821 C60.3126471,0.565211709 59.7521368,0 59.0620288,0 L46.5461264,0 C45.8552084,0 45.2946981,0.565211709 45.2946981,1.26110821 L45.2946981,23.8140355 L36.042229,23.8140355 C32.8549344,23.8140355 30.1941307,26.1222556 29.715429,29.3060638 L25.5966506,56.8928058 L23.8916302,45.5036265 C23.7976719,44.8787899 23.2776609,44.4262938 22.6531617,44.4262938 L9.87077396,44.4262938 C6.67861945,44.4262938 4.02348561,46.7410481 3.54559391,49.9191388 L0.0156752777,73.5420478 C-0.0426437085,73.9112324 0.0634644469,74.2796001 0.305650237,74.5597556 C0.541356139,74.8390944 0.89046007,75 1.25576372,75 L89.7475354,75 C90.112839,75 90.461133,74.8390944 90.6976489,74.5597556 C90.9390247,74.2796001 91.0394629,73.9112324 90.9860038,73.5420478 L90.9860038,73.5420478 Z" id="FinTech" fill="#01675A"></path>
    </g>
</svg>