<?xml version="1.0" encoding="UTF-8"?>
<svg width="76px" height="75px" viewBox="0 0 76 75" version="1.1" xmlns="http://www.w3.org/2000/svg" xmlns:xlink="http://www.w3.org/1999/xlink">
    <!-- Generator: Sketch 53.2 (72643) - https://sketchapp.com -->
    <title>DCU_Illustration_Homepage_Non-Functional_Your Opinion Counts</title>
    <desc>Created with Sketch.</desc>
    <g id="DCU_Illustration_Homepage_Non-Functional_Your-Opinion-Counts" stroke="none" stroke-width="1" fill="none" fill-rule="evenodd">
        <path d="M66.8125,44.9952 C67.4045,45.5882 67.1435,46.3012 66.5505,46.8932 L61.6395,51.8052 C61.3855,52.0582 60.9615,52.2282 60.5385,52.2282 C60.1155,52.2282 59.7765,52.1432 59.4375,51.8052 L57.3205,49.6882 C56.7285,49.0952 56.6645,48.3792 57.2565,47.7872 C57.8495,47.1942 58.9685,47.7092 59.4155,48.3572 L60.5105,49.5442 L64.5965,45.2732 C65.1895,44.6802 66.1345,44.3182 66.8125,44.9952 M61.8935,59.7092 C55.6175,59.7092 50.4325,54.5252 50.4325,48.2482 C50.4325,41.9722 55.5255,36.7872 61.8935,36.7872 C68.1695,36.7872 73.3545,41.8812 73.3545,48.2482 C73.3545,54.5252 68.1695,59.7092 61.8935,59.7092 M61.8085,34.3622 C54.1035,34.3622 47.9225,40.6282 47.9225,48.2482 C47.9225,55.9532 54.1875,62.1352 61.8085,62.1352 C69.5145,62.1352 75.6955,55.8692 75.6955,48.2482 C75.6955,40.5432 69.5145,34.3622 61.8085,34.3622 M16.1815,66.1732 C15.9565,66.1732 15.7295,66.1292 15.5125,66.0392 C14.8575,65.7682 14.4355,65.1362 14.4355,64.4272 L14.4355,52.6562 L9.8555,52.6562 C4.9725,52.6562 0.9995,48.6832 0.9995,43.8002 L0.9995,15.4472 C0.9995,10.7892 4.7895,7.0002 9.4475,7.0002 L56.9145,7.0002 C61.5575,7.0002 65.3475,10.7772 65.3615,15.4212 L65.4105,31.0362 C65.4125,31.7262 64.8545,32.2872 64.1645,32.2892 L64.1605,32.2892 C63.4725,32.2892 62.9125,31.7322 62.9105,31.0432 L62.8615,15.4292 C62.8515,12.1602 60.1835,9.5002 56.9145,9.5002 L9.4475,9.5002 C6.1675,9.5002 3.4995,12.1682 3.4995,15.4472 L3.4995,43.8002 C3.4995,47.3052 6.3515,50.1562 9.8555,50.1562 L15.2805,50.1562 C16.1925,50.1562 16.9355,50.8982 16.9355,51.8102 L16.9355,62.6042 L28.7165,50.8272 C29.1505,50.3932 29.7255,50.1562 30.3355,50.1562 L44.2505,50.1562 C44.9415,50.1562 45.5005,50.7152 45.5005,51.4062 C45.5005,52.0962 44.9415,52.6562 44.2505,52.6562 L30.4225,52.6562 L17.4135,65.6622 C17.0785,65.9952 16.6345,66.1732 16.1815,66.1732" id="Fill-1" fill="#01675A"></path>
    </g>
</svg>