<?xml version="1.0" encoding="UTF-8"?>
<svg width="108px" height="75px" viewBox="0 0 108 75" version="1.1" xmlns="http://www.w3.org/2000/svg" xmlns:xlink="http://www.w3.org/1999/xlink">
    <!-- Generator: Sketch 53.2 (72643) - https://sketchapp.com -->
    <title>DCU_Illustration_Homepage_Non-Functional_DCU for Kids</title>
    <desc>Created with Sketch.</desc>
    <g id="DCU_Illustration_Homepage_Non-Functional_DCU-for-Kids" stroke="none" stroke-width="1" fill="none" fill-rule="evenodd">
        <path d="M50.4944,15.2201 C49.1844,16.2901 47.8444,17.3901 46.5044,18.4901 C44.5044,20.1301 42.5154,21.7601 40.6344,23.2701 L40.4344,23.4401 L35.4944,32.9401 L35.4944,33.2401 C35.4844,33.5601 35.2544,64.6801 35.2444,70.1001 C35.2444,71.4101 34.1844,72.4801 32.8644,72.4901 L31.9644,72.5001 C31.3344,72.4901 30.7144,72.2601 30.2544,71.8101 C29.8044,71.3601 29.5444,70.7601 29.5444,70.1201 L29.5444,70.0901 L29.4794,53.1851 C29.4764,52.4971 28.9174,51.9421 28.2294,51.9451 C27.5424,51.9481 26.9874,52.5081 26.9904,53.1951 L27.0644,70.1201 C27.0544,70.7601 26.8044,71.3601 26.3544,71.8101 C25.9044,72.2601 25.2744,72.5101 24.6544,72.5101 L23.1544,72.5001 C21.8344,72.5001 20.7654,71.4201 20.7654,70.1001 L20.5154,32.9701 L20.4044,32.7301 C18.7244,29.0301 17.7144,27.2401 15.6944,23.6701 L15.5744,23.4601 L15.3844,23.3101 C13.8044,22.0501 12.1844,20.7901 10.5244,19.5001 C8.8544,18.2001 7.1444,16.8701 5.3844,15.4701 C4.8744,15.0601 4.5544,14.4801 4.4944,13.8201 C4.4344,13.1701 4.6244,12.5401 5.0444,12.0401 L5.2544,11.8001 C5.7244,11.2401 6.3944,10.9401 7.0744,10.9401 C7.5844,10.9401 8.0944,11.1101 8.5244,11.4401 L12.1544,14.2301 C14.3144,15.8801 16.4644,17.5401 18.3144,18.9601 L18.6544,19.2201 L37.5154,19.0601 L37.8444,18.8001 C39.7544,17.3501 41.8644,15.7201 43.9844,14.0901 L47.4744,11.4001 C48.4744,10.6401 49.9044,10.7801 50.7844,11.7701 C51.2144,12.2601 51.4244,12.9001 51.3744,13.5501 C51.3244,14.2101 51.0044,14.8001 50.4944,15.2201 M23.3944,13.5501 C22.1544,12.3301 21.4644,10.7101 21.4444,8.9801 C21.4244,7.2401 22.0844,5.6101 23.3044,4.3701 C24.5154,3.1301 26.1344,2.4401 27.8744,2.4201 L27.9444,2.4201 C29.6444,2.4201 31.2544,3.0801 32.4844,4.2701 C33.7144,5.4901 34.4144,7.1101 34.4244,8.8401 C34.4444,10.5801 33.7844,12.2101 32.5744,13.4501 C31.3644,14.6901 29.7344,15.3801 28.0044,15.4001 C26.2844,15.4501 24.6344,14.7601 23.3944,13.5501 M52.5944,10.0701 C50.9044,8.1601 47.9944,7.8801 45.9644,9.4301 L42.4644,12.1201 C40.4744,13.6601 38.4844,15.1901 36.6644,16.5801 L32.3944,16.6201 C33.0844,16.2201 33.7244,15.7301 34.3044,15.1401 C35.9644,13.4401 36.8744,11.2001 36.8444,8.8201 C36.8244,6.4401 35.8744,4.2101 34.1744,2.5501 C33.3244,1.7101 32.3344,1.0801 31.2654,0.6501 C30.1844,0.2301 29.0244,0.0101 27.8444,0.0001 C22.9344,0.0501 18.9744,4.0901 19.0244,9.0001 C19.0544,11.3801 20.0044,13.6101 21.7044,15.2701 C22.2844,15.8401 22.9244,16.3101 23.6144,16.6901 L19.4944,16.7301 C17.7144,15.3701 15.6944,13.8101 13.6744,12.2601 L10.0444,9.4701 C7.9744,7.8801 5.0344,8.2001 3.3544,10.2001 L3.2264,10.3471 C2.6384,11.0191 2.2104,11.8331 2.0684,12.7151 C1.7724,14.5561 2.4484,16.3031 3.8344,17.4101 C5.6044,18.8201 7.3244,20.1601 9.0044,21.4601 C10.5844,22.7001 12.1344,23.9001 13.6444,25.1101 C15.5644,28.5001 16.4944,30.1501 18.0244,33.5201 L18.2844,70.1101 C18.2844,72.7901 20.4644,74.9801 23.1444,74.9901 L24.6444,75.0001 L24.6644,75.0001 C25.9644,75.0001 27.1944,74.4901 28.1144,73.5701 C28.1844,73.5001 28.2444,73.4301 28.3044,73.3601 C28.3744,73.4301 28.4444,73.5101 28.5154,73.5701 C29.4444,74.4901 30.7144,74.9801 31.9744,74.9801 L32.8844,74.9801 C35.5544,74.9601 37.7344,72.7701 37.7344,70.1001 C37.7344,64.9801 37.9444,36.7901 37.9744,33.5601 L42.3944,25.0401 C44.2144,23.5701 46.1444,22.0001 48.0744,20.4101 C49.4144,19.3101 50.7544,18.2101 52.0644,17.1501 C53.1044,16.3001 53.7444,15.0901 53.8544,13.7501 C53.9644,12.4201 53.5344,11.1301 52.5944,10.0701 M103.7544,15.2201 C102.4344,16.3001 101.0744,17.4101 99.7244,18.5201 C97.7344,20.1501 95.7544,21.7701 93.8944,23.2801 L93.6944,23.4401 L88.6544,33.1301 L94.5154,52.1201 L90.0154,52.1701 C89.1844,52.1701 88.5154,52.8601 88.5154,53.6901 L88.5044,70.1001 C88.5044,71.4101 87.4444,72.4801 86.1244,72.4901 L85.2144,72.5001 C84.5644,72.5101 83.9744,72.2601 83.5154,71.8101 C83.0644,71.3601 82.8044,70.7601 82.8044,70.1201 L82.8044,70.1001 L82.7304,53.1801 C82.7274,52.4951 82.1694,51.9421 81.4844,51.9451 C80.8004,51.9481 80.2464,52.5051 80.2494,53.1901 L80.3144,70.1201 L80.3144,70.1301 C80.3144,70.7601 80.0644,71.3601 79.6144,71.8101 C79.1644,72.2601 78.5644,72.5101 77.9244,72.5101 L77.9144,72.5101 L76.4144,72.5101 C75.0944,72.5001 74.0244,71.4301 74.0244,70.1101 L74.0244,53.4401 C74.0244,52.6001 73.3444,51.9201 72.5044,51.9201 L68.0844,51.9201 L73.8544,33.1601 L73.6644,32.7301 C72.0444,29.1701 71.1044,27.4901 68.9544,23.6701 L68.8344,23.4701 L68.6444,23.3201 C67.0744,22.0601 65.4644,20.8001 63.8044,19.5201 C62.1244,18.2101 60.4044,16.8801 58.6444,15.4701 C58.1344,15.0601 57.8144,14.4801 57.7544,13.8301 C57.6844,13.1801 57.8844,12.5401 58.3044,12.0501 L58.5154,11.8001 C59.3344,10.8201 60.7744,10.6601 61.7844,11.4401 L65.3644,14.1901 C67.5344,15.8601 69.7044,17.5301 71.5744,18.9601 L71.9144,19.2201 L90.7744,19.0601 L91.1044,18.8101 C93.0344,17.3301 95.1844,15.6801 97.3344,14.0301 L100.7344,11.4001 C101.7344,10.6401 103.1644,10.7801 104.0344,11.7701 C104.4744,12.2601 104.6844,12.9001 104.6354,13.5601 C104.5744,14.2101 104.2654,14.8001 103.7544,15.2201 M76.7744,13.5301 C75.5444,12.3101 74.8544,10.6801 74.8444,8.9501 C74.8344,7.2201 75.4944,5.5801 76.7144,4.3501 C77.9344,3.1101 79.5544,2.4301 81.2944,2.4201 L81.3344,2.4201 C83.0544,2.4201 84.6744,3.0801 85.8944,4.2901 C87.1244,5.5001 87.8144,7.1301 87.8244,8.8601 C87.8544,12.4401 84.9544,15.3701 81.3744,15.4001 L81.3344,15.4001 C79.6144,15.4001 78.0044,14.7401 76.7744,13.5301 M105.8544,10.0701 C104.1544,8.1601 101.2444,7.8801 99.2244,9.4301 L95.8144,12.0601 C93.7944,13.6101 91.7744,15.1701 89.9244,16.5801 L85.7844,16.6201 C88.4644,15.0701 90.2654,12.1601 90.2444,8.8501 C90.2244,6.4701 89.2844,4.2401 87.5944,2.5701 C85.8944,0.8901 83.6644,0.0201 81.2744,0.0001 C78.8944,0.0101 76.6644,0.9601 74.9944,2.6501 C73.3244,4.3401 72.4144,6.5901 72.4244,8.9701 C72.4444,11.3501 73.3844,13.5801 75.0744,15.2501 C75.6544,15.8301 76.3044,16.3101 77.0044,16.6901 L72.7544,16.7301 C70.9644,15.3601 68.9144,13.7901 66.8744,12.2201 L63.2944,9.4701 C61.2324,7.8861 58.2894,8.2071 56.6164,10.1981 L56.5184,10.3141 C55.7794,11.1941 55.2904,12.2861 55.2614,13.4351 C55.2224,15.0051 55.8904,16.4491 57.0944,17.4101 C58.8644,18.8201 60.5944,20.1701 62.2844,21.4801 C63.8644,22.7101 65.4044,23.9101 66.9044,25.1101 C68.7944,28.4301 69.7244,30.0901 71.2044,33.3301 L65.3244,52.4301 C65.1744,52.8901 65.2654,53.4001 65.5544,53.7801 C65.8344,54.1701 66.2944,54.4001 66.7744,54.4001 L71.5444,54.4001 L71.5444,70.1101 C71.5444,72.7901 73.7244,74.9801 76.4044,74.9901 L77.9044,75.0001 L77.9244,75.0001 C79.2244,75.0001 80.4544,74.4901 81.3744,73.5701 C81.4444,73.5001 81.5044,73.4301 81.5644,73.3601 C81.6344,73.4401 81.6944,73.5101 81.7654,73.5801 C82.6944,74.4901 83.8844,74.9801 85.2344,74.9901 L86.1684,74.9801 C88.8424,74.9501 90.9944,72.7741 90.9944,70.1001 L90.9944,54.6401 L95.8244,54.5901 C96.3044,54.5801 96.7544,54.3501 97.0444,53.9601 C97.3244,53.5801 97.4044,53.0801 97.2654,52.6201 L91.3244,33.3801 L95.6544,25.0501 C97.4644,23.5901 99.3744,22.0201 101.3044,20.4401 C102.6444,19.3301 104.0044,18.2301 105.3244,17.1501 C106.3644,16.3001 107.0044,15.1001 107.1144,13.7601 C107.2154,12.4201 106.7844,11.1301 105.8544,10.0701" id="Fill-1" fill="#01675A"></path>
    </g>
</svg>