<?xml version="1.0" encoding="utf-8"?>
<!-- Generator: Adobe Illustrator 23.0.3, SVG Export Plug-In . SVG Version: 6.00 Build 0)  -->
<svg version="1.1" id="Layer_1" xmlns="http://www.w3.org/2000/svg" xmlns:xlink="http://www.w3.org/1999/xlink" x="0px" y="0px"
	 viewBox="0 0 2461 2500" style="enable-background:new 0 0 2461 2500;" xml:space="preserve">
<style type="text/css">
	.st0{fill:#FFFFFF;}
</style>
<path class="st0" d="M0,700.4L1244.4,0.2L2461,707.3v246.1h-194.1v870.1H190.6v-870H0V700.4z M1244.3,264L443.6,728.5V1602h1584
	V728.5L1244.3,264L1244.3,264z M818.4,1061.2V846.3h828.4v214.9H818.4z M818.4,1168.4h828.4v214.9H818.4V1168.4z M1268.6,2499.8
	V2226h145.6c104,0,176.8,31.2,176.8,142.1c0,107.5-65.8,131.7-180.3,131.7L1268.6,2499.8L1268.6,2499.8z M1344.8,2284.8v156h62.4
	c58.9,0,100.5-10.4,100.5-72.8c0-55.5-45.1-83.2-93.6-83.2H1344.8L1344.8,2284.8z M2024.5,2499.8V2226h201
	c76.2,0,107.5,24.3,107.5,86.7c0,45.1-24.3,65.9-76.3,72.8l79.7,114.4h-83.2l-79.7-114.4h-72.8v114.4L2024.5,2499.8L2024.5,2499.8z
	 M2214.8,2284.9h-114.4v41.6h110.9c38.1,0,48.5,0,48.5-20.8C2259.9,2288.3,2246,2284.9,2214.8,2284.9L2214.8,2284.9z M852.8,2226
	v273.8h72.8v-166.4l145.6,166.4h86.7V2226H1085v169.8L939.4,2226H852.8z M141.8,2226v273.8h273.8v-58.9l-197.6-3.5V2226H141.8z
	 M492.3,2499.8h266.9v-58.9H572V2382h156v-55.5H572v-41.6h187.2V2226H492.3V2499.8z M1674.4,2226v273.8l263.4-3.4v-55.5h-187.2V2382
	H1910v-55.5h-159.4v-41.6h187.2V2226H1674.4z M682.6,2156.5l69.3-246.1h58.9l69.3,246.1h-54l-15.3-55.5h-62.4l-15.3,55.5
	L682.6,2156.5L682.6,2156.5z M779.9,1962.9l-20.8,97h45.1L779.9,1962.9z M298,2066.4v-65.9c0-62.4,20.8-97,83.2-97
	c69.3,0,83.2,41.6,83.2,100.5v52c0,31.2-3.5,45.1-13.9,65.9l41.6,13.9l-3.5,17.3C346.5,2153.1,298,2149.6,298,2066.4L298,2066.4z
	 M349.9,2004v58.9c0,45.1,6.9,58.9,31.2,58.9c27.7,0,31.2-10.4,31.2-55.5v-65.9c0-48.5-3.4-55.5-27.7-55.5
	C353.3,1945,349.9,1958.9,349.9,2004L349.9,2004z M1705.3,2090.6c0,38.1,24.3,69.3,79.7,69.3c45.1,0,86.7-31.2,86.7-69.3
	c0-58.9-110.9-86.7-110.9-124.8c0-13.9,13.9-20.8,27.7-20.8c20.8,0,31.2,13.9,41.6,34.7l34.7-13.9c-3.4-34.7-27.7-62.4-79.7-62.4
	c-41.6,0-76.2,20.8-76.2,62.4c0,69.3,110.9,86.7,110.9,131.7c0,17.3-10.4,24.3-31.2,24.3s-34.7-13.9-41.6-38.1L1705.3,2090.6
	L1705.3,2090.6z M1331.3,2076.8V1997c0-65.9,31.2-93.6,83.2-93.6c65.9,0,83.2,24.3,83.2,86.7v76.3c0,65.9-17.3,93.6-83.2,93.6
	C1348.7,2159.9,1331.3,2135.7,1331.3,2076.8L1331.3,2076.8z M1383.2,1993.6v76.2c0,34.7,3.4,52,31.2,52c20.8,0,31.2-13.9,31.2-55.5
	v-72.8c0-27.7-3.4-52-31.2-52C1386.7,1941.6,1383.2,1962.4,1383.2,1993.6L1383.2,1993.6z M2166.3,2066.4c0,72.8,20.8,93.6,90.1,93.6
	c53.7,0,69.3-25.2,69.3-52v-79.7H2253v38.1h24.3v27.7c0,20.8-6.9,31.2-24.3,31.2c-34.7,0-38.1-24.3-38.1-58.9v-55.5
	c0-41.6,3.4-69.3,38.1-69.3c24.3,0,38.1,17.3,41.6,41.6l34.6-13.9c-3.4-41.6-31.2-65.9-79.7-65.9c-69.3,0-83.2,38.1-83.2,90.1
	V2066.4L2166.3,2066.4z M1518.5,1910.4v142.1c0,83.2,14.3,109.8,87,109.8c55.5,0,75.8-30.1,75.8-102.9v-149.1h-48.5v142.1
	c0,55.5-3.5,69.3-31.2,69.3c-27.7,0-31.2-20.8-31.2-72.8v-138.7H1518.5z M1979.2,1910.4v246.1h41.6v-166.4l58.9,166.4h62.4v-246.1
	h-41.6v152.5l-55.5-152.5H1979.2z M513.2,1910.4v149.1c0,69.3,6.9,100.5,76.3,100.5c79.7,0,83.2-38.1,83.2-107.5v-142.1h-48.5v145.6
	c0,48.5-6.9,62.4-31.2,62.4c-27.7,0-31.2-13.9-31.2-69.3v-138.7H513.2z M1140.5,1910.4v246.1h48.5v-110.9h58.9v110.9h48.5v-246.1
	H1248v93.6H1189v-93.6H1140.5z M138.7,1910.4v246.1h124.8v-38.1h-76.3V2049h69.3v-34.7h-69.3v-65.8h76.3v-38.1L138.7,1910.4z
	 M901.2,1910.4v246.1h114.4v-38.1h-72.8v-208H901.2z M1896.5,1910.4h45.1v246.1h-45.1V1910.4z"/>
</svg>
