<?xml version="1.0" encoding="UTF-8"?>
<svg width="120px" height="40px" viewBox="0 0 120 40" version="1.1" xmlns="http://www.w3.org/2000/svg" xmlns:xlink="http://www.w3.org/1999/xlink">
    <!-- Generator: Sketch 52.5 (67469) - http://www.bohemiancoding.com/sketch -->
    <title>Footer_AppStore_Logo</title>
    <desc>Created with Sketch.</desc>
    <defs>
        <polygon id="path-1" points="0 40 119.664 40 119.664 0 0 0"></polygon>
    </defs>
    <g id="Symbols" stroke="none" stroke-width="1" fill="none" fill-rule="evenodd">
        <g id="Comp/Global/Footer/Desktop" transform="translate(-1160.000000, -81.000000)">
            <g id="Footer1">
                <g id="Download-App" transform="translate(1159.000000, 80.000000)">
                    <g id="Footer_AppStore_Logo" transform="translate(1.000000, 1.000000)">
                        <path d="M110.1343,0 L9.5343,0 C9.1683,0 8.8053,0 8.4403,0.002 C8.1333,0.004 7.8303,0.01 7.5213,0.015 C6.8553,0.031 6.1813,0.072 5.5173,0.191 C4.8473,0.309 4.2253,0.509 3.6163,0.818 C3.0173,1.125 2.4703,1.523 1.9973,1.997 C1.5193,2.471 1.1223,3.02 0.8193,3.618 C0.5083,4.227 0.3113,4.852 0.1943,5.521 C0.0733,6.184 0.0323,6.854 0.0153,7.523 C0.0063,7.83 0.0053,8.138 0.0003,8.444 L0.0003,9.536 L0.0003,30.465 L0.0003,31.559 C0.0053,31.869 0.0063,32.17 0.0153,32.48 C0.0323,33.15 0.0733,33.82 0.1943,34.482 C0.3113,35.152 0.5083,35.78 0.8193,36.387 C1.1223,36.982 1.5193,37.531 1.9973,38.001 C2.4703,38.479 3.0173,38.876 3.6163,39.18 C4.2253,39.492 4.8473,39.689 5.5173,39.811 C6.1813,39.93 6.8553,39.969 7.5213,39.987 C7.8303,39.994 8.1333,39.998 8.4403,39.998 C8.8053,40 9.1683,40 9.5343,40 L110.1343,40 C110.4943,40 110.8593,40 111.2183,39.998 C111.5243,39.998 111.8363,39.994 112.1413,39.987 C112.8113,39.969 113.4833,39.93 114.1413,39.811 C114.8113,39.689 115.4333,39.492 116.0493,39.18 C116.6463,38.876 117.1933,38.479 117.6663,38.001 C118.1423,37.531 118.5383,36.982 118.8473,36.387 C119.1543,35.78 119.3543,35.152 119.4663,34.482 C119.5903,33.82 119.6283,33.15 119.6533,32.48 C119.6553,32.17 119.6553,31.869 119.6553,31.559 C119.6633,31.195 119.6633,30.834 119.6633,30.465 L119.6633,9.536 C119.6633,9.17 119.6633,8.807 119.6553,8.444 C119.6553,8.138 119.6553,7.83 119.6533,7.523 C119.6283,6.854 119.5903,6.184 119.4663,5.521 C119.3543,4.852 119.1543,4.227 118.8473,3.618 C118.5383,3.02 118.1423,2.471 117.6663,1.997 C117.1933,1.523 116.6463,1.125 116.0493,0.818 C115.4333,0.509 114.8113,0.309 114.1413,0.191 C113.4833,0.072 112.8113,0.031 112.1413,0.015 C111.8363,0.01 111.5243,0.004 111.2183,0.002 C110.8593,0 110.4943,0 110.1343,0" id="Fill-1" fill="#B3B1B1"></path>
                        <path d="M8.4448,39.125 C8.1398,39.125 7.8428,39.121 7.5408,39.114 C6.9818,39.099 6.3188,39.067 5.6718,38.951 C5.0608,38.841 4.5188,38.661 4.0148,38.403 C3.4928,38.139 3.0248,37.797 2.6178,37.387 C2.2038,36.98 1.8628,36.514 1.5968,35.99 C1.3378,35.485 1.1608,34.943 1.0538,34.333 C0.9318,33.66 0.9008,32.978 0.8878,32.458 C0.8818,32.247 0.8728,31.545 0.8728,31.545 L0.8728,8.444 C0.8728,8.444 0.8818,7.753 0.8878,7.55 C0.9008,7.026 0.9318,6.344 1.0528,5.678 C1.1598,5.064 1.3378,4.522 1.5968,4.016 C1.8618,3.491 2.2028,3.022 2.6118,2.618 C3.0258,2.204 3.4958,1.861 4.0138,1.595 C4.5278,1.334 5.0698,1.156 5.6678,1.051 C6.3408,0.931 7.0238,0.9 7.5428,0.887 L8.4448,0.875 L111.2138,0.875 L112.1268,0.888 C112.6388,0.9 113.3218,0.931 113.9848,1.05 C114.5878,1.156 115.1328,1.335 115.6558,1.598 C116.1698,1.861 116.6378,2.204 117.0478,2.614 C117.4578,3.02 117.7998,3.492 118.0708,4.018 C118.3288,4.529 118.5048,5.071 118.6068,5.667 C118.7218,6.298 118.7578,6.946 118.7798,7.554 C118.7828,7.837 118.7828,8.142 118.7828,8.444 C118.7918,8.819 118.7918,9.176 118.7918,9.536 L118.7918,30.465 C118.7918,30.828 118.7918,31.183 118.7828,31.54 C118.7828,31.865 118.7828,32.163 118.7788,32.47 C118.7578,33.059 118.7218,33.706 118.6078,34.323 C118.5048,34.937 118.3288,35.479 118.0678,35.993 C117.7998,36.513 117.4558,36.982 117.0528,37.379 C116.6388,37.797 116.1708,38.138 115.6538,38.401 C115.1338,38.665 114.6048,38.84 113.9848,38.951 C113.3448,39.067 112.6818,39.099 112.1158,39.114 C111.8238,39.121 111.5158,39.125 111.2178,39.125 L110.1338,39.127 L8.4448,39.125 Z" id="Fill-3" fill="#0A0A05"></path>
                        <path d="M24.7691,20.3008 C24.7441,17.5498 27.0211,16.2118 27.1251,16.1488 C25.8361,14.2678 23.8361,14.0108 23.1341,13.9908 C21.4551,13.8148 19.8271,14.9958 18.9711,14.9958 C18.0991,14.9958 16.7821,14.0088 15.3631,14.0378 C13.5371,14.0658 11.8271,15.1238 10.8901,16.7658 C8.9561,20.1138 10.3981,25.0348 12.2511,27.7408 C13.1781,29.0678 14.2611,30.5478 15.6791,30.4948 C17.0661,30.4378 17.5841,29.6108 19.2581,29.6108 C20.9171,29.6108 21.4031,30.4948 22.8491,30.4618 C24.3371,30.4378 25.2751,29.1298 26.1691,27.7918 C27.2411,26.2728 27.6711,24.7768 27.6881,24.6998 C27.6531,24.6878 24.7971,23.5988 24.7691,20.3008" id="Fill-5" fill="#FFFFFE"></path>
                        <path d="M22.0371,12.2109 C22.7831,11.2779 23.2931,10.0089 23.1521,8.7199 C22.0721,8.7679 20.7221,9.4669 19.9441,10.3799 C19.2561,11.1839 18.6411,12.5029 18.8001,13.7409 C20.0131,13.8319 21.2591,13.1289 22.0371,12.2109" id="Fill-7" fill="#FFFFFE"></path>
                        <path d="M38.0591,25.5908 L41.8111,25.5908 L39.9611,20.1438 L39.9101,20.1438 L38.0591,25.5908 Z M42.3021,27.1398 L37.5691,27.1398 L36.4321,30.4958 L34.4271,30.4958 L38.9111,18.0778 L40.9941,18.0778 L45.4771,30.4958 L43.4381,30.4958 L42.3021,27.1398 Z" id="Fill-9" fill="#FFFFFE"></path>
                        <path d="M53.2495,25.9697 C53.2495,24.1367 52.3025,22.9317 50.8565,22.9317 C49.4365,22.9317 48.4815,24.1617 48.4815,25.9697 C48.4815,27.7937 49.4365,29.0157 50.8565,29.0157 C52.3025,29.0157 53.2495,27.8197 53.2495,25.9697 M55.1595,25.9697 C55.1595,28.7827 53.6535,30.5907 51.3815,30.5907 C50.0915,30.5907 49.0665,30.0137 48.5325,29.0067 L48.4895,29.0067 L48.4895,33.4907 L46.6315,33.4907 L46.6315,21.4427 L48.4305,21.4427 L48.4305,22.9487 L48.4645,22.9487 C48.9805,21.9767 50.0825,21.3477 51.3475,21.3477 C53.6455,21.3477 55.1595,23.1637 55.1595,25.9697" id="Fill-11" fill="#FFFFFE"></path>
                        <path d="M63.2144,25.9697 C63.2144,24.1367 62.2674,22.9317 60.8214,22.9317 C59.4014,22.9317 58.4464,24.1617 58.4464,25.9697 C58.4464,27.7937 59.4014,29.0157 60.8214,29.0157 C62.2674,29.0157 63.2144,27.8197 63.2144,25.9697 M65.1244,25.9697 C65.1244,28.7827 63.6184,30.5907 61.3464,30.5907 C60.0564,30.5907 59.0314,30.0137 58.4974,29.0067 L58.4544,29.0067 L58.4544,33.4907 L56.5964,33.4907 L56.5964,21.4427 L58.3954,21.4427 L58.3954,22.9487 L58.4294,22.9487 C58.9454,21.9767 60.0474,21.3477 61.3124,21.3477 C63.6104,21.3477 65.1244,23.1637 65.1244,25.9697" id="Fill-13" fill="#FFFFFE"></path>
                        <path d="M71.7105,27.0361 C71.8485,28.2671 73.0445,29.0761 74.6795,29.0761 C76.2455,29.0761 77.3725,28.2671 77.3725,27.1571 C77.3725,26.1931 76.6925,25.6161 75.0835,25.2211 L73.4745,24.8331 C71.1935,24.2821 70.1355,23.2161 70.1355,21.4851 C70.1355,19.3431 72.0025,17.8711 74.6535,17.8711 C77.2775,17.8711 79.0765,19.3431 79.1375,21.4851 L77.2615,21.4851 C77.1485,20.2461 76.1245,19.4981 74.6275,19.4981 C73.1305,19.4981 72.1065,20.2551 72.1065,21.3561 C72.1065,22.2341 72.7605,22.7511 74.3605,23.1461 L75.7295,23.4821 C78.2765,24.0851 79.3355,25.1081 79.3355,26.9251 C79.3355,29.2481 77.4845,30.7031 74.5415,30.7031 C71.7875,30.7031 69.9285,29.2821 69.8085,27.0361 L71.7105,27.0361 Z" id="Fill-15" fill="#FFFFFE"></path>
                        <path d="M83.3462,19.2998 L83.3462,21.4428 L85.0682,21.4428 L85.0682,22.9138 L83.3462,22.9138 L83.3462,27.9048 C83.3462,28.6808 83.6912,29.0418 84.4482,29.0418 C84.6372,29.0418 84.9392,29.0158 85.0592,28.9988 L85.0592,30.4618 C84.8532,30.5138 84.4402,30.5478 84.0272,30.5478 C82.1942,30.5478 81.4792,29.8598 81.4792,28.1038 L81.4792,22.9138 L80.1622,22.9138 L80.1622,21.4428 L81.4792,21.4428 L81.4792,19.2998 L83.3462,19.2998 Z" id="Fill-17" fill="#FFFFFE"></path>
                        <path d="M92.7603,25.9697 C92.7603,24.0157 91.8643,22.8627 90.3593,22.8627 C88.8533,22.8627 87.9583,24.0247 87.9583,25.9697 C87.9583,27.9317 88.8533,29.0757 90.3593,29.0757 C91.8643,29.0757 92.7603,27.9317 92.7603,25.9697 M86.0653,25.9697 C86.0653,23.1207 87.7423,21.3307 90.3593,21.3307 C92.9843,21.3307 94.6543,23.1207 94.6543,25.9697 C94.6543,28.8257 92.9923,30.6087 90.3593,30.6087 C87.7263,30.6087 86.0653,28.8257 86.0653,25.9697" id="Fill-19" fill="#FFFFFE"></path>
                        <path d="M96.1861,21.4424 L97.9581,21.4424 L97.9581,22.9834 L98.0011,22.9834 C98.2861,21.9594 99.1121,21.3474 100.1791,21.3474 C100.4461,21.3474 100.6691,21.3824 100.8161,21.4174 L100.8161,23.1554 C100.6691,23.0944 100.3421,23.0434 99.9811,23.0434 C98.7851,23.0434 98.0441,23.8524 98.0441,25.1264 L98.0441,30.4964 L96.1861,30.4964 L96.1861,21.4424 Z" id="Fill-21" fill="#FFFFFE"></path>
                        <path d="M103.1021,25.1348 L107.6281,25.1348 C107.5851,23.7488 106.6991,22.8368 105.4081,22.8368 C104.1251,22.8368 103.1971,23.7668 103.1021,25.1348 Z M109.3841,27.8368 C109.1341,29.4808 107.5341,30.6088 105.4861,30.6088 C102.8521,30.6088 101.2171,28.8438 101.2171,26.0128 C101.2171,23.1728 102.8611,21.3308 105.4081,21.3308 C107.9131,21.3308 109.4881,23.0518 109.4881,25.7968 L109.4881,26.4338 L103.0931,26.4338 L103.0931,26.5458 C103.0931,28.0948 104.0661,29.1108 105.5291,29.1108 C106.5611,29.1108 107.3711,28.6198 107.6201,27.8368 L109.3841,27.8368 Z" id="Fill-23" fill="#FFFFFE"></path>
                        <path d="M36.5977,13.854 L37.7227,13.854 C38.9707,13.854 39.6907,13.077 39.6907,11.708 C39.6907,10.36 38.9587,9.574 37.7227,9.574 L36.5977,9.574 L36.5977,13.854 Z M37.8267,8.731 C39.5957,8.731 40.6337,9.818 40.6337,11.696 C40.6337,13.602 39.6037,14.698 37.8267,14.698 L35.6707,14.698 L35.6707,8.731 L37.8267,8.731 Z" id="Fill-25" fill="#FFFFFE"></path>
                        <path d="M45.0137,12.4443 C45.0137,11.4683 44.5757,10.8973 43.8057,10.8973 C43.0337,10.8973 42.5987,11.4683 42.5987,12.4443 C42.5987,13.4283 43.0337,13.9943 43.8057,13.9943 C44.5757,13.9943 45.0137,13.4243 45.0137,12.4443 M41.6807,12.4443 C41.6807,10.9923 42.4917,10.1083 43.8057,10.1083 C45.1177,10.1083 45.9277,10.9923 45.9277,12.4443 C45.9277,13.9033 45.1207,14.7843 43.8057,14.7843 C42.4877,14.7843 41.6807,13.9033 41.6807,12.4443" id="Fill-27" fill="#FFFFFE"></path>
                        <polygon id="Fill-29" fill="#FFFFFE" points="51.5733 14.6978 50.6513 14.6978 49.7203 11.3818 49.6503 11.3818 48.7233 14.6978 47.8103 14.6978 46.5693 10.1948 47.4703 10.1948 48.2773 13.6308 48.3443 13.6308 49.2693 10.1948 50.1223 10.1948 51.0483 13.6308 51.1183 13.6308 51.9213 10.1948 52.8093 10.1948"></polygon>
                        <path d="M53.8535,10.1948 L54.7085,10.1948 L54.7085,10.9098 L54.7755,10.9098 C54.9945,10.4098 55.4415,10.1078 56.1195,10.1078 C57.1245,10.1078 57.6775,10.7118 57.6775,11.7828 L57.6775,14.6978 L56.7895,14.6978 L56.7895,12.0058 C56.7895,11.2818 56.4745,10.9228 55.8175,10.9228 C55.1605,10.9228 54.7425,11.3608 54.7425,12.0638 L54.7425,14.6978 L53.8535,14.6978 L53.8535,10.1948 Z" id="Fill-31" fill="#FFFFFE"></path>
                        <mask id="mask-2" fill="white">
                            <use xlink:href="#path-1"></use>
                        </mask>
                        <g id="Clip-34"></g>
                        <polygon id="Fill-33" fill="#FFFFFE" mask="url(#mask-2)" points="59.094 14.698 59.983 14.698 59.983 8.437 59.094 8.437"></polygon>
                        <path d="M64.5508,12.4443 C64.5508,11.4683 64.1128,10.8973 63.3428,10.8973 C62.5708,10.8973 62.1358,11.4683 62.1358,12.4443 C62.1358,13.4283 62.5708,13.9943 63.3428,13.9943 C64.1128,13.9943 64.5508,13.4243 64.5508,12.4443 M61.2178,12.4443 C61.2178,10.9923 62.0288,10.1083 63.3428,10.1083 C64.6548,10.1083 65.4658,10.9923 65.4658,12.4443 C65.4658,13.9033 64.6578,14.7843 63.3428,14.7843 C62.0248,14.7843 61.2178,13.9033 61.2178,12.4443" id="Fill-35" fill="#FFFFFE" mask="url(#mask-2)"></path>
                        <path d="M69.2954,13.0396 L69.2954,12.6636 L68.1954,12.7336 C67.5754,12.7746 67.2944,12.9856 67.2944,13.3826 C67.2944,13.7886 67.6464,14.0236 68.1294,14.0236 C68.7994,14.0236 69.2954,13.5976 69.2954,13.0396 M66.4004,13.4246 C66.4004,12.6136 67.0044,12.1466 68.0754,12.0806 L69.2954,12.0096 L69.2954,11.6216 C69.2954,11.1456 68.9814,10.8766 68.3734,10.8766 C67.8774,10.8766 67.5334,11.0596 67.4354,11.3776 L66.5744,11.3776 C66.6654,10.6036 67.3934,10.1076 68.4144,10.1076 C69.5434,10.1076 70.1804,10.6696 70.1804,11.6216 L70.1804,14.6976 L69.3244,14.6976 L69.3244,14.0646 L69.2544,14.0646 C68.9854,14.5156 68.4934,14.7716 67.9014,14.7716 C67.0334,14.7716 66.4004,14.2476 66.4004,13.4246" id="Fill-36" fill="#FFFFFE" mask="url(#mask-2)"></path>
                        <path d="M72.2661,12.4443 C72.2661,13.3993 72.7161,13.9743 73.4691,13.9743 C74.2181,13.9743 74.6811,13.3913 74.6811,12.4483 C74.6811,11.5093 74.2131,10.9183 73.4691,10.9183 C72.7211,10.9183 72.2661,11.4973 72.2661,12.4443 M71.3481,12.4443 C71.3481,11.0213 72.0791,10.1203 73.2171,10.1203 C73.8331,10.1203 74.3541,10.4133 74.5981,10.9103 L74.6641,10.9103 L74.6641,8.4373 L75.5531,8.4373 L75.5531,14.6973 L74.7021,14.6973 L74.7021,13.9863 L74.6311,13.9863 C74.3631,14.4783 73.8371,14.7723 73.2171,14.7723 C72.0721,14.7723 71.3481,13.8703 71.3481,12.4443" id="Fill-37" fill="#FFFFFE" mask="url(#mask-2)"></path>
                        <path d="M82.563,12.4443 C82.563,11.4683 82.125,10.8973 81.355,10.8973 C80.583,10.8973 80.148,11.4683 80.148,12.4443 C80.148,13.4283 80.583,13.9943 81.355,13.9943 C82.125,13.9943 82.563,13.4243 82.563,12.4443 M79.23,12.4443 C79.23,10.9923 80.041,10.1083 81.355,10.1083 C82.667,10.1083 83.477,10.9923 83.477,12.4443 C83.477,13.9033 82.67,14.7843 81.355,14.7843 C80.037,14.7843 79.23,13.9033 79.23,12.4443" id="Fill-38" fill="#FFFFFE" mask="url(#mask-2)"></path>
                        <path d="M84.6695,10.1948 L85.5245,10.1948 L85.5245,10.9098 L85.5915,10.9098 C85.8105,10.4098 86.2575,10.1078 86.9355,10.1078 C87.9405,10.1078 88.4935,10.7118 88.4935,11.7828 L88.4935,14.6978 L87.6055,14.6978 L87.6055,12.0058 C87.6055,11.2818 87.2905,10.9228 86.6335,10.9228 C85.9765,10.9228 85.5585,11.3608 85.5585,12.0638 L85.5585,14.6978 L84.6695,14.6978 L84.6695,10.1948 Z" id="Fill-39" fill="#FFFFFE" mask="url(#mask-2)"></path>
                        <path d="M93.5152,9.0737 L93.5152,10.2157 L94.4912,10.2157 L94.4912,10.9637 L93.5152,10.9637 L93.5152,13.2797 C93.5152,13.7507 93.7092,13.9577 94.1522,13.9577 C94.2882,13.9577 94.3672,13.9487 94.4912,13.9367 L94.4912,14.6777 C94.3462,14.7017 94.1802,14.7227 94.0072,14.7227 C93.0192,14.7227 92.6252,14.3747 92.6252,13.5067 L92.6252,10.9637 L91.9112,10.9637 L91.9112,10.2157 L92.6252,10.2157 L92.6252,9.0737 L93.5152,9.0737 Z" id="Fill-40" fill="#FFFFFE" mask="url(#mask-2)"></path>
                        <path d="M95.7046,8.437 L96.5856,8.437 L96.5856,10.918 L96.6556,10.918 C96.8746,10.414 97.3506,10.112 98.0286,10.112 C98.9876,10.112 99.5796,10.72 99.5796,11.791 L99.5796,14.698 L98.6896,14.698 L98.6896,12.01 C98.6896,11.291 98.3546,10.926 97.7266,10.926 C96.9986,10.926 96.5936,11.386 96.5936,12.068 L96.5936,14.698 L95.7046,14.698 L95.7046,8.437 Z" id="Fill-41" fill="#FFFFFE" mask="url(#mask-2)"></path>
                        <path d="M101.6353,12.0308 L103.9093,12.0308 C103.8893,11.3238 103.4593,10.8638 102.8013,10.8638 C102.1443,10.8638 101.6853,11.3278 101.6353,12.0308 Z M104.7613,13.4818 C104.5593,14.2888 103.8393,14.7848 102.8103,14.7848 C101.5203,14.7848 100.7303,13.8998 100.7303,12.4608 C100.7303,11.0218 101.5363,10.1078 102.8063,10.1078 C104.0593,10.1078 104.8153,10.9638 104.8153,12.3778 L104.8153,12.6878 L101.6353,12.6878 L101.6353,12.7378 C101.6643,13.5278 102.1233,14.0278 102.8343,14.0278 C103.3723,14.0278 103.7403,13.8338 103.9063,13.4818 L104.7613,13.4818 Z" id="Fill-42" fill="#FFFFFE" mask="url(#mask-2)"></path>
                    </g>
                </g>
            </g>
        </g>
    </g>
</svg>