<svg id="Layer_1" data-name="Layer 1" xmlns="http://www.w3.org/2000/svg" viewBox="0 0 68.3 30.11"><defs><style>.cls-1{fill:#fff;}</style></defs><title>NCUA_White</title><path class="cls-1" d="M14.89,7.82h0l.21-.58h.34l-.4.92v.59h-.3V8.16l-.39-.92h.34Z" transform="translate(-1.93 -4.26)"/><path class="cls-1" d="M15.39,7.92a.48.48,0,0,1,.07-.18.41.41,0,0,1,.14-.12.46.46,0,0,1,.21,0,.48.48,0,0,1,.22,0,.3.3,0,0,1,.14.11.47.47,0,0,1,.07.19,1.84,1.84,0,0,1,0,.26,2,2,0,0,1,0,.26.54.54,0,0,1-.08.19.31.31,0,0,1-.14.11.58.58,0,0,1-.21,0,.51.51,0,0,1-.22,0,.28.28,0,0,1-.13-.11.47.47,0,0,1-.08-.19,1.84,1.84,0,0,1,0-.26A1,1,0,0,1,15.39,7.92Zm.27.42a.51.51,0,0,0,0,.13.22.22,0,0,0,.05.08.11.11,0,0,0,.08,0,.14.14,0,0,0,.13-.09,1.14,1.14,0,0,0,0-.31,1.19,1.19,0,0,0,0-.31.14.14,0,0,0-.13-.09.11.11,0,0,0-.08,0,.22.22,0,0,0-.05.08.51.51,0,0,0,0,.13v.32Z" transform="translate(-1.93 -4.26)"/><path class="cls-1" d="M17,8.62a.34.34,0,0,1-.12.12.47.47,0,0,1-.17,0,.31.31,0,0,1-.22-.07.33.33,0,0,1-.07-.24V7.61h.29V8.4a.17.17,0,0,0,0,.12.13.13,0,0,0,.1,0c.1,0,.15-.07.15-.19V7.61h.29V8.75H17V8.62Z" transform="translate(-1.93 -4.26)"/><path class="cls-1" d="M17.8,7.61v.15h0a.47.47,0,0,1,.11-.13.25.25,0,0,1,.16,0h.05v.28H18l-.07,0a.1.1,0,0,0-.05.06.3.3,0,0,0,0,.1v.68h-.29V7.61Z" transform="translate(-1.93 -4.26)"/><path class="cls-1" d="M19,8.42a.16.16,0,0,0,0,.12.12.12,0,0,0,.11,0,.18.18,0,0,0,.11,0,.13.13,0,0,0,0-.1.12.12,0,0,0,0-.09l-.08,0L19,8.24a.41.41,0,0,1-.18-.12.3.3,0,0,1-.06-.2.3.3,0,0,1,0-.13.26.26,0,0,1,.07-.11L19,7.61a.58.58,0,0,1,.19,0,.41.41,0,0,1,.3.09.3.3,0,0,1,.09.24V8h-.26a.23.23,0,0,0,0-.13.11.11,0,0,0-.1,0,.14.14,0,0,0-.09,0,.1.1,0,0,0,0,.09A.11.11,0,0,0,19,8l.1.06.18.06a.39.39,0,0,1,.19.12.32.32,0,0,1,.06.2.38.38,0,0,1,0,.16.32.32,0,0,1-.22.17.47.47,0,0,1-.17,0,.65.65,0,0,1-.21,0,.4.4,0,0,1-.13-.07.24.24,0,0,1-.06-.11.39.39,0,0,1,0-.15v0H19Z" transform="translate(-1.93 -4.26)"/><path class="cls-1" d="M19.73,7.93a.38.38,0,0,1,0-.16.31.31,0,0,1,.08-.11A.31.31,0,0,1,20,7.6l.15,0a.69.69,0,0,1,.22,0,.25.25,0,0,1,.18.18.59.59,0,0,1,0,.14v.6a.49.49,0,0,0,0,.13.29.29,0,0,0,0,.09H20.3s0,0,0-.06,0,0,0-.06h0a.26.26,0,0,1-.11.12.5.5,0,0,1-.18,0,.22.22,0,0,1-.12,0,.18.18,0,0,1-.09-.08.31.31,0,0,1-.05-.1.49.49,0,0,1,0-.12.25.25,0,0,1,0-.13.16.16,0,0,1,.05-.1.22.22,0,0,1,.09-.07L20,8.1l.16,0c.05,0,.08,0,.09,0a.12.12,0,0,0,0-.09.15.15,0,0,0,0-.1.12.12,0,0,0-.11,0,.12.12,0,0,0-.1,0,.18.18,0,0,0,0,.11V8h-.27Zm.47.29-.06,0A.17.17,0,0,0,20,8.3a.16.16,0,0,0,0,.12.31.31,0,0,0,0,.11.09.09,0,0,0,.09.05h.06a.09.09,0,0,0,.06,0,.1.1,0,0,0,0,0,.24.24,0,0,0,0-.08V8.18Z" transform="translate(-1.93 -4.26)"/><path class="cls-1" d="M21.61,7.61l-.29,1.14H21l-.29-1.14H21l.16.82h0l.16-.82Z" transform="translate(-1.93 -4.26)"/><path class="cls-1" d="M22,7.22v.25h-.29V7.22Zm0,.39V8.75h-.29V7.61Z" transform="translate(-1.93 -4.26)"/><path class="cls-1" d="M22.55,7.61v.13h0a.34.34,0,0,1,.12-.12.33.33,0,0,1,.17,0,.31.31,0,0,1,.22.08.34.34,0,0,1,.07.25v.84h-.29V8a.19.19,0,0,0,0-.12.13.13,0,0,0-.1,0q-.15,0-.15.18v.76h-.29V7.61Z" transform="translate(-1.93 -4.26)"/><path class="cls-1" d="M24.2,8.69a.41.41,0,0,1-.11.33.46.46,0,0,1-.36.11.42.42,0,0,1-.29-.08.25.25,0,0,1-.1-.22h.28a.11.11,0,0,0,0,.09l.05,0h.05a.15.15,0,0,0,.13-.06.32.32,0,0,0,0-.14V8.6h0a.52.52,0,0,1-.11.1.23.23,0,0,1-.14,0,.32.32,0,0,1-.26-.13.84.84,0,0,1-.09-.45,1.5,1.5,0,0,1,0-.2.41.41,0,0,1,.05-.19.45.45,0,0,1,.1-.14.36.36,0,0,1,.19,0,.22.22,0,0,1,.13,0,.26.26,0,0,1,.11.12h0V7.61h.28Zm-.58-.36s0,.07,0,.09a.18.18,0,0,0,.05.07.08.08,0,0,0,.07,0,.11.11,0,0,0,.08,0,.18.18,0,0,0,.05-.07.3.3,0,0,0,0-.1.53.53,0,0,0,0-.13,1.05,1.05,0,0,0,0-.3.11.11,0,0,0-.12-.08.11.11,0,0,0-.08,0s0,0-.05.07,0,.07,0,.12v.31Z" transform="translate(-1.93 -4.26)"/><path class="cls-1" d="M24.64,8.42a.21.21,0,0,0,0,.12.15.15,0,0,0,.11,0,.16.16,0,0,0,.11,0,.13.13,0,0,0,0-.1.12.12,0,0,0,0-.09l-.07,0-.21-.08a.41.41,0,0,1-.18-.12.3.3,0,0,1-.06-.2.59.59,0,0,1,0-.13.28.28,0,0,1,.08-.11.32.32,0,0,1,.13-.07.5.5,0,0,1,.19,0,.4.4,0,0,1,.29.09.27.27,0,0,1,.1.24V8h-.27a.39.39,0,0,0,0-.13.12.12,0,0,0-.1,0,.17.17,0,0,0-.1,0,.1.1,0,0,0,0,.09.19.19,0,0,0,0,.08l.1.06L25,8.1a.43.43,0,0,1,.2.12.39.39,0,0,1,0,.2.38.38,0,0,1,0,.16.32.32,0,0,1-.22.17.47.47,0,0,1-.17,0,.68.68,0,0,1-.21,0,.35.35,0,0,1-.12-.07.19.19,0,0,1-.07-.11.77.77,0,0,1,0-.15v0h.26Z" transform="translate(-1.93 -4.26)"/><path class="cls-1" d="M25.83,7.81v-.2H26V7.48a.51.51,0,0,1,0-.13l.06-.08.1,0h.28v.2h-.05l-.09,0a.09.09,0,0,0,0,.07v.1h.17v.2h-.17v.94H26V7.81Z" transform="translate(-1.93 -4.26)"/><path class="cls-1" d="M26.82,8.32v.09a.46.46,0,0,0,0,.09l0,.06.07,0a.13.13,0,0,0,.11-.05.5.5,0,0,0,.05-.16h.26a.45.45,0,0,1-.11.3.39.39,0,0,1-.3.1.44.44,0,0,1-.25,0,.25.25,0,0,1-.13-.14.6.6,0,0,1-.06-.19c0-.08,0-.15,0-.22a1.5,1.5,0,0,1,0-.22.6.6,0,0,1,.06-.19.44.44,0,0,1,.14-.13.54.54,0,0,1,.24,0,.65.65,0,0,1,.21,0,.34.34,0,0,1,.12.12.36.36,0,0,1,.07.18,1.66,1.66,0,0,1,0,.24v.07h-.58Zm.29-.38s0-.06,0-.09L27,7.8l-.07,0-.08,0,0,0,0,.08v.12h.3A.45.45,0,0,1,27.11,7.94Z" transform="translate(-1.93 -4.26)"/><path class="cls-1" d="M28.15,8.63a.29.29,0,0,1-.11.11.33.33,0,0,1-.15,0,.27.27,0,0,1-.26-.13.91.91,0,0,1-.09-.46.91.91,0,0,1,.09-.46.28.28,0,0,1,.26-.14.21.21,0,0,1,.14,0,.26.26,0,0,1,.11.1h0V7.24h.29V8.75h-.28V8.63Zm-.29-.17a.13.13,0,0,0,.13.1.13.13,0,0,0,.12-.1.94.94,0,0,0,0-.28,1,1,0,0,0,0-.28A.12.12,0,0,0,28,7.81a.12.12,0,0,0-.13.09,1,1,0,0,0,0,.28A.94.94,0,0,0,27.86,8.46Z" transform="translate(-1.93 -4.26)"/><path class="cls-1" d="M28.9,8.32a.28.28,0,0,0,0,.09.2.2,0,0,0,0,.09l.05.06.06,0a.13.13,0,0,0,.11-.05.5.5,0,0,0,.05-.16h.26a.45.45,0,0,1-.11.3.38.38,0,0,1-.3.1.44.44,0,0,1-.25,0,.29.29,0,0,1-.13-.14.41.41,0,0,1-.05-.19,1.7,1.7,0,0,1,0-.22,1.55,1.55,0,0,1,0-.22.44.44,0,0,1,.07-.19.33.33,0,0,1,.13-.13.54.54,0,0,1,.24,0,.65.65,0,0,1,.21,0,.37.37,0,0,1,.13.12.48.48,0,0,1,.06.18,1.66,1.66,0,0,1,0,.24v.07H28.9Zm.29-.38a.24.24,0,0,0,0-.09l-.05,0-.07,0L29,7.8l-.05,0a.24.24,0,0,0,0,.08.19.19,0,0,0,0,.08v0h.3S29.19,8,29.19,7.94Z" transform="translate(-1.93 -4.26)"/><path class="cls-1" d="M29.93,7.61v.15h0A.47.47,0,0,1,30,7.63a.3.3,0,0,1,.16,0h.05v.28h-.17l-.07,0A.1.1,0,0,0,30,8a.3.3,0,0,0,0,.1v.68h-.29V7.61Z" transform="translate(-1.93 -4.26)"/><path class="cls-1" d="M30.38,7.93a.38.38,0,0,1,0-.16.31.31,0,0,1,.08-.11.31.31,0,0,1,.13-.06l.16,0a.66.66,0,0,1,.21,0,.25.25,0,0,1,.18.18.59.59,0,0,1,0,.14v.6a.49.49,0,0,0,0,.13.29.29,0,0,0,0,.09h-.28a.14.14,0,0,0,0-.06s0,0,0-.06h0a.26.26,0,0,1-.11.12.47.47,0,0,1-.18,0,.22.22,0,0,1-.12,0,.18.18,0,0,1-.09-.08.31.31,0,0,1,0-.1.49.49,0,0,1,0-.12.44.44,0,0,1,0-.13.16.16,0,0,1,.05-.1.22.22,0,0,1,.09-.07l.13-.05.16,0c.05,0,.08,0,.09,0a.12.12,0,0,0,0-.09.15.15,0,0,0,0-.1.12.12,0,0,0-.11,0,.12.12,0,0,0-.1,0,.18.18,0,0,0,0,.11V8h-.26Zm.47.29-.07,0a.17.17,0,0,0-.12.06.16.16,0,0,0,0,.12.31.31,0,0,0,0,.11.09.09,0,0,0,.09.05h.06l.06,0a.1.1,0,0,0,0,0,.24.24,0,0,0,0-.08V8.18Z" transform="translate(-1.93 -4.26)"/><path class="cls-1" d="M31.72,7.24V8.75h-.29V7.24Z" transform="translate(-1.93 -4.26)"/><path class="cls-1" d="M32.25,7.24V8.75H32V7.24Z" transform="translate(-1.93 -4.26)"/><path class="cls-1" d="M32.55,8.91a.15.15,0,0,0,.12-.05.18.18,0,0,0,0-.11l-.32-1.14h.3l.17.79h0L33,7.61h.29L33,8.67A1.3,1.3,0,0,1,33,8.9a.37.37,0,0,1-.08.14.23.23,0,0,1-.12.06l-.17,0h-.11V8.9Z" transform="translate(-1.93 -4.26)"/><path class="cls-1" d="M34.27,7.22v.25H34V7.22Zm0,.39V8.75H34V7.61Z" transform="translate(-1.93 -4.26)"/><path class="cls-1" d="M34.78,7.61v.13h0a.34.34,0,0,1,.12-.12.33.33,0,0,1,.17,0,.31.31,0,0,1,.22.08.34.34,0,0,1,.07.25v.84h-.29V8a.19.19,0,0,0,0-.12.13.13,0,0,0-.1,0q-.15,0-.15.18v.76H34.5V7.61Z" transform="translate(-1.93 -4.26)"/><path class="cls-1" d="M35.79,8.42a.16.16,0,0,0,0,.12.14.14,0,0,0,.11,0,.18.18,0,0,0,.11,0,.13.13,0,0,0,0-.1.12.12,0,0,0,0-.09l-.07,0-.21-.08a.41.41,0,0,1-.18-.12.3.3,0,0,1-.06-.2.3.3,0,0,1,0-.13.41.41,0,0,1,.07-.11l.13-.07a.6.6,0,0,1,.2,0,.4.4,0,0,1,.29.09.3.3,0,0,1,.1.24V8h-.27a.23.23,0,0,0,0-.13s0,0-.1,0a.14.14,0,0,0-.09,0,.1.1,0,0,0,0,.09.19.19,0,0,0,0,.08l.1.06.18.06a.35.35,0,0,1,.19.12.32.32,0,0,1,.06.2.38.38,0,0,1,0,.16.32.32,0,0,1-.22.17.47.47,0,0,1-.17,0,.68.68,0,0,1-.21,0l-.13-.07a.24.24,0,0,1-.06-.11.39.39,0,0,1,0-.15v0h.26Z" transform="translate(-1.93 -4.26)"/><path class="cls-1" d="M37.12,8.62a.34.34,0,0,1-.12.12.47.47,0,0,1-.17,0,.29.29,0,0,1-.22-.07.33.33,0,0,1-.07-.24V7.61h.29V8.4a.17.17,0,0,0,0,.12.13.13,0,0,0,.1,0c.1,0,.15-.07.15-.19V7.61h.29V8.75h-.28V8.62Z" transform="translate(-1.93 -4.26)"/><path class="cls-1" d="M37.9,7.61v.15h0A.47.47,0,0,1,38,7.63a.25.25,0,0,1,.16,0h0v.28h-.17l-.07,0a.1.1,0,0,0,0,.06.3.3,0,0,0,0,.1v.68h-.29V7.61Z" transform="translate(-1.93 -4.26)"/><path class="cls-1" d="M38.59,8.32s0,.06,0,.09a.46.46,0,0,0,0,.09.21.21,0,0,0,0,.06l.07,0a.14.14,0,0,0,.11-.05.53.53,0,0,0,0-.16h.27a.45.45,0,0,1-.11.3.4.4,0,0,1-.31.1.41.41,0,0,1-.24,0,.32.32,0,0,1-.14-.14,1.05,1.05,0,0,1,0-.19c0-.08,0-.15,0-.22a1.5,1.5,0,0,1,0-.22.6.6,0,0,1,.06-.19.35.35,0,0,1,.14-.13.54.54,0,0,1,.24,0,.54.54,0,0,1,.2,0,.3.3,0,0,1,.13.12.75.75,0,0,1,.07.18,1.77,1.77,0,0,1,0,.24v.07h-.58Zm.29-.38a.24.24,0,0,0,0-.09.1.1,0,0,0,0,0l-.07,0-.08,0a.1.1,0,0,0,0,0l0,.08s0,.05,0,.08v0h.3A.37.37,0,0,0,38.88,7.94Z" transform="translate(-1.93 -4.26)"/><path class="cls-1" d="M39.93,8.63a.38.38,0,0,1-.11.11.33.33,0,0,1-.15,0,.3.3,0,0,1-.27-.13,1.05,1.05,0,0,1-.08-.46,1.05,1.05,0,0,1,.08-.46.31.31,0,0,1,.27-.14.23.23,0,0,1,.14,0,.24.24,0,0,1,.1.1h0V7.24h.29V8.75h-.28V8.63Zm-.29-.17a.13.13,0,0,0,.12.1.13.13,0,0,0,.13-.1.94.94,0,0,0,0-.28,1,1,0,0,0,0-.28.12.12,0,0,0-.13-.09.12.12,0,0,0-.12.09,1,1,0,0,0,0,.28A.94.94,0,0,0,39.64,8.46Z" transform="translate(-1.93 -4.26)"/><path class="cls-1" d="M41.31,7.29v.32h.17v.2h-.17v.62a.2.2,0,0,0,0,.09.11.11,0,0,0,.09,0h.06v.2h-.33l-.08-.05a.19.19,0,0,1,0-.09.66.66,0,0,1,0-.15V7.81h-.15v-.2H41V7.29Z" transform="translate(-1.93 -4.26)"/><path class="cls-1" d="M41.59,7.92a.49.49,0,0,1,.08-.18.37.37,0,0,1,.13-.12.48.48,0,0,1,.22,0,.46.46,0,0,1,.21,0,.26.26,0,0,1,.14.11.36.36,0,0,1,.07.19,1,1,0,0,1,0,.26,1.06,1.06,0,0,1,0,.26.54.54,0,0,1-.08.19.35.35,0,0,1-.13.11.66.66,0,0,1-.21,0,.47.47,0,0,1-.22,0,.26.26,0,0,1-.14-.11.36.36,0,0,1-.07-.19,1,1,0,0,1,0-.26A1.06,1.06,0,0,1,41.59,7.92Zm.27.42c0,.05,0,.09,0,.13a.22.22,0,0,0,0,.08.12.12,0,0,0,.09,0,.13.13,0,0,0,.12-.09,1.14,1.14,0,0,0,0-.31,1.19,1.19,0,0,0,0-.31A.13.13,0,0,0,42,7.78a.12.12,0,0,0-.09,0,.22.22,0,0,0,0,.08s0,.08,0,.13v.32Z" transform="translate(-1.93 -4.26)"/><path class="cls-1" d="M43.17,7.93a.38.38,0,0,1,0-.16.24.24,0,0,1,.09-.11.27.27,0,0,1,.12-.06l.16,0a.58.58,0,0,1,.21,0,.23.23,0,0,1,.13.07.24.24,0,0,1,.06.11.61.61,0,0,1,0,.14v.6c0,.05,0,.1,0,.13a.32.32,0,0,0,0,.09h-.28a.14.14,0,0,1,0-.06l0-.06h0a.28.28,0,0,1-.12.12.42.42,0,0,1-.17,0,.25.25,0,0,1-.13,0,.23.23,0,0,1-.09-.08.3.3,0,0,1,0-.1.5.5,0,0,1,0-.12.44.44,0,0,1,0-.13.23.23,0,0,1,.05-.1l.09-.07.13-.05.17,0a.19.19,0,0,0,.09,0,.2.2,0,0,0,0-.09.15.15,0,0,0,0-.1.14.14,0,0,0-.2,0,.14.14,0,0,0,0,.11V8h-.26Zm.47.29-.06,0a.23.23,0,0,0-.13.06.21.21,0,0,0,0,.12.18.18,0,0,0,0,.11.07.07,0,0,0,.08.05h.06a.07.07,0,0,0,.06,0l0,0a.22.22,0,0,0,0-.08V8.18Z" transform="translate(-1.93 -4.26)"/><path class="cls-1" d="M44.57,7.29v.32h.17v.2h-.17v.62s0,.07,0,.09,0,0,.08,0h.07v.2h-.33a.19.19,0,0,1-.09-.05.12.12,0,0,1,0-.09.61.61,0,0,1,0-.15V7.81h-.14v-.2h.14V7.29Z" transform="translate(-1.93 -4.26)"/><path class="cls-1" d="M45.69,7.24V8.75H45.4V7.24Z" transform="translate(-1.93 -4.26)"/><path class="cls-1" d="M46.17,8.32a.28.28,0,0,0,0,.09.2.2,0,0,0,0,.09l0,.06.06,0a.13.13,0,0,0,.11-.05.5.5,0,0,0,0-.16h.26a.45.45,0,0,1-.11.3.38.38,0,0,1-.3.1.44.44,0,0,1-.25,0,.25.25,0,0,1-.13-.14.41.41,0,0,1,0-.19,1.7,1.7,0,0,1,0-.22,1.55,1.55,0,0,1,0-.22A.44.44,0,0,1,46,7.76a.33.33,0,0,1,.13-.13.54.54,0,0,1,.24,0,.65.65,0,0,1,.21,0,.49.49,0,0,1,.13.12.48.48,0,0,1,.06.18,1.66,1.66,0,0,1,0,.24v.07h-.58Zm.29-.38s0-.06,0-.09a.12.12,0,0,0,0,0l-.07,0-.07,0a.12.12,0,0,0,0,0,.24.24,0,0,0,0,.08.19.19,0,0,0,0,.08v0h.3S46.46,8,46.46,7.94Z" transform="translate(-1.93 -4.26)"/><path class="cls-1" d="M46.92,7.93a.38.38,0,0,1,0-.16A.24.24,0,0,1,47,7.66a.23.23,0,0,1,.12-.06l.16,0a.58.58,0,0,1,.21,0,.27.27,0,0,1,.13.07l.06.11a.61.61,0,0,1,0,.14v.6a.49.49,0,0,0,0,.13.16.16,0,0,0,0,.09h-.28l0-.06a.13.13,0,0,0,0-.06h0a.34.34,0,0,1-.12.12.42.42,0,0,1-.17,0,.25.25,0,0,1-.13,0,.18.18,0,0,1-.09-.08.3.3,0,0,1,0-.1.5.5,0,0,1,0-.12.44.44,0,0,1,0-.13.23.23,0,0,1,.05-.1A.22.22,0,0,1,47,8.15l.13-.05.17,0a.19.19,0,0,0,.09,0,.2.2,0,0,0,0-.09.15.15,0,0,0,0-.1.11.11,0,0,0-.1,0,.14.14,0,0,0-.11,0,.18.18,0,0,0,0,.11V8h-.26Zm.47.29-.06,0a.2.2,0,0,0-.13.06.16.16,0,0,0,0,.12.18.18,0,0,0,0,.11s0,.05.08.05h.06a.09.09,0,0,0,.06,0,.1.1,0,0,0,0,0,.12.12,0,0,0,0-.08V8.18Z" transform="translate(-1.93 -4.26)"/><path class="cls-1" d="M48.17,8.42a.21.21,0,0,0,0,.12.16.16,0,0,0,.12,0,.15.15,0,0,0,.1,0,.13.13,0,0,0,0-.1.12.12,0,0,0,0-.09l-.07,0-.21-.08A.41.41,0,0,1,48,8.12a.3.3,0,0,1-.06-.2.59.59,0,0,1,0-.13A.28.28,0,0,1,48,7.68a.32.32,0,0,1,.13-.07.5.5,0,0,1,.19,0,.4.4,0,0,1,.29.09.27.27,0,0,1,.1.24V8h-.26a.23.23,0,0,0,0-.13.11.11,0,0,0-.1,0,.17.17,0,0,0-.1,0,.1.1,0,0,0,0,.09.11.11,0,0,0,0,.08.21.21,0,0,0,.1.06l.17.06a.43.43,0,0,1,.2.12.31.31,0,0,1,0,.2.38.38,0,0,1,0,.16.31.31,0,0,1-.09.11.26.26,0,0,1-.13.06.47.47,0,0,1-.17,0,.59.59,0,0,1-.2,0A.32.32,0,0,1,48,8.68a.19.19,0,0,1-.07-.11.77.77,0,0,1,0-.15v0h.26Z" transform="translate(-1.93 -4.26)"/><path class="cls-1" d="M49.28,7.29v.32h.17v.2h-.17v.62s0,.07,0,.09,0,0,.08,0h.07v.2h-.33A.19.19,0,0,1,49,8.7a.19.19,0,0,1,0-.09.66.66,0,0,1,0-.15V7.81h-.15v-.2H49V7.29Z" transform="translate(-1.93 -4.26)"/><path class="cls-1" d="M50.22,8.73a.38.38,0,0,1-.12-.09A.35.35,0,0,1,50,8.5a.77.77,0,0,1,0-.15v0h.29a.28.28,0,0,0,0,.09.17.17,0,0,0,0,.07l0,.06s0,0,.07,0V8.13l-.11,0a.42.42,0,0,1-.22-.16A.41.41,0,0,1,50,7.68a.4.4,0,0,1,.1-.3.52.52,0,0,1,.3-.13V7.11h.13v.14a.43.43,0,0,1,.19,0,.24.24,0,0,1,.12.09.37.37,0,0,1,.07.12.71.71,0,0,1,0,.14v0h-.29a.44.44,0,0,0,0-.13.11.11,0,0,0-.08-.07v.4l.17.06.1.06a.31.31,0,0,1,.09.07.37.37,0,0,1,0,.11.61.61,0,0,1,0,.15.45.45,0,0,1-.11.33.49.49,0,0,1-.32.11V9h-.13V8.77A.67.67,0,0,1,50.22,8.73Zm.11-1.09a.18.18,0,0,0,.11.17V7.48A.15.15,0,0,0,50.33,7.64Zm.34.85a.3.3,0,0,0,0-.1.23.23,0,0,0,0-.13.24.24,0,0,0-.09-.08v.38A.18.18,0,0,0,50.67,8.49Z" transform="translate(-1.93 -4.26)"/><path class="cls-1" d="M51.08,8.75a.58.58,0,0,1,0-.19.52.52,0,0,1,.06-.16l.1-.15.15-.16L51.53,8l.08-.08a.35.35,0,0,0,0-.08.19.19,0,0,0,0-.08s0-.07,0-.1,0-.19-.15-.19l-.09,0a.18.18,0,0,0-.05.07l0,.09v.11h-.29v0a.39.39,0,0,1,.46-.44.46.46,0,0,1,.34.11.37.37,0,0,1,.11.3.53.53,0,0,1,0,.13.34.34,0,0,1,0,.12.75.75,0,0,1-.07.12l-.11.11-.17.15a.6.6,0,0,0-.11.12.26.26,0,0,0,0,.1H52v.24Z" transform="translate(-1.93 -4.26)"/><path class="cls-1" d="M52.42,7.52l0,.34h0a.24.24,0,0,1,.11-.09l.16,0a.34.34,0,0,1,.18,0A.23.23,0,0,1,53,7.9a.34.34,0,0,1,.06.15,1.1,1.1,0,0,1,0,.18,1.5,1.5,0,0,1,0,.22.49.49,0,0,1-.08.18.3.3,0,0,1-.15.11.75.75,0,0,1-.23,0,.71.71,0,0,1-.23,0,.39.39,0,0,1-.14-.1.42.42,0,0,1-.06-.14.66.66,0,0,1,0-.14v0h.29V8.4a.19.19,0,0,0,0,.08.1.1,0,0,0,0,.06.1.1,0,0,0,.08,0,.16.16,0,0,0,.13-.07.46.46,0,0,0,0-.22V8.12l0-.1-.06,0h-.08a.11.11,0,0,0-.1,0s0,.05-.05.1h-.27l.06-.82H53v.24Z" transform="translate(-1.93 -4.26)"/><path class="cls-1" d="M53.16,7.75a.92.92,0,0,1,.06-.25.37.37,0,0,1,.14-.18.4.4,0,0,1,.26-.07.53.53,0,0,1,.23,0,.29.29,0,0,1,.14.13.44.44,0,0,1,.08.22,1.72,1.72,0,0,1,0,.34c0,.1,0,.2,0,.3a.71.71,0,0,1,0,.26.41.41,0,0,1-.15.17.48.48,0,0,1-.26.06.69.69,0,0,1-.22,0,.44.44,0,0,1-.15-.12.69.69,0,0,1-.08-.23,3.11,3.11,0,0,1,0-.34C53.15,8,53.16,7.85,53.16,7.75Zm.31.6a.46.46,0,0,0,0,.14.1.1,0,0,0,0,.07l.08,0,.09,0a.19.19,0,0,0,0-.09.31.31,0,0,0,0-.15,1.77,1.77,0,0,0,0-.24V7.91a1.55,1.55,0,0,0,0-.23.29.29,0,0,0,0-.14.13.13,0,0,0,0-.07l-.08,0-.08,0a.19.19,0,0,0,0,.09.61.61,0,0,0,0,.15,1.77,1.77,0,0,0,0,.24v.17A1.55,1.55,0,0,0,53.47,8.35Z" transform="translate(-1.93 -4.26)"/><path class="cls-1" d="M54.55,8.7a.59.59,0,0,1,0,.14.28.28,0,0,1,0,.13l-.08.08a.33.33,0,0,1-.14,0V9a.16.16,0,0,0,.08-.06.23.23,0,0,0,0-.11v0h-.11V8.42h.28Z" transform="translate(-1.93 -4.26)"/><path class="cls-1" d="M54.73,7.75a.92.92,0,0,1,.06-.25.37.37,0,0,1,.14-.18.4.4,0,0,1,.26-.07.53.53,0,0,1,.23,0,.29.29,0,0,1,.14.13.56.56,0,0,1,.08.22,3.11,3.11,0,0,1,0,.34c0,.1,0,.2,0,.3a1,1,0,0,1-.06.26.39.39,0,0,1-.14.17.48.48,0,0,1-.26.06.75.75,0,0,1-.23,0,.33.33,0,0,1-.14-.12.69.69,0,0,1-.08-.23,3.11,3.11,0,0,1,0-.34C54.72,8,54.72,7.85,54.73,7.75Zm.3.6a1.06,1.06,0,0,0,0,.14.1.1,0,0,0,0,.07l.08,0,.08,0a.19.19,0,0,0,0-.09,1.3,1.3,0,0,0,0-.15c0-.07,0-.15,0-.24V7.91c0-.09,0-.17,0-.23s0-.1,0-.14a.13.13,0,0,0,0-.07l-.08,0-.08,0a.19.19,0,0,0,0,.09s0,.09,0,.15,0,.15,0,.24v.17C55,8.21,55,8.29,55,8.35Z" transform="translate(-1.93 -4.26)"/><path class="cls-1" d="M55.77,7.75a.66.66,0,0,1,.06-.25A.32.32,0,0,1,56,7.32a.4.4,0,0,1,.26-.07.53.53,0,0,1,.23,0,.35.35,0,0,1,.14.13.56.56,0,0,1,.08.22,3.11,3.11,0,0,1,0,.34c0,.1,0,.2,0,.3a1,1,0,0,1-.06.26.39.39,0,0,1-.14.17.48.48,0,0,1-.26.06.75.75,0,0,1-.23,0,.33.33,0,0,1-.14-.12.52.52,0,0,1-.08-.23,1.72,1.72,0,0,1,0-.34C55.76,8,55.76,7.85,55.77,7.75Zm.3.6a.42.42,0,0,0,0,.14.1.1,0,0,0,0,.07l.08,0,.08,0a.19.19,0,0,0,0-.09.54.54,0,0,0,0-.15,1.77,1.77,0,0,0,0-.24V7.91a1.55,1.55,0,0,0,0-.23.52.52,0,0,0,0-.14.13.13,0,0,0,0-.07l-.08,0-.08,0a.13.13,0,0,0,0,.09.57.57,0,0,0,0,.15c0,.07,0,.15,0,.24v.17C56.06,8.21,56.07,8.29,56.07,8.35Z" transform="translate(-1.93 -4.26)"/><path class="cls-1" d="M56.81,7.75a.66.66,0,0,1,0-.25A.37.37,0,0,1,57,7.32a.42.42,0,0,1,.26-.07.5.5,0,0,1,.23,0,.37.37,0,0,1,.15.13.57.57,0,0,1,.07.22,1.65,1.65,0,0,1,0,.34c0,.1,0,.2,0,.3a1,1,0,0,1-.06.26.39.39,0,0,1-.14.17.51.51,0,0,1-.27.06.69.69,0,0,1-.22,0,.44.44,0,0,1-.15-.12.69.69,0,0,1-.07-.23,1.65,1.65,0,0,1,0-.34C56.79,8,56.8,7.85,56.81,7.75Zm.3.6a.46.46,0,0,0,0,.14s0,.06,0,.07l.08,0,.09,0a.19.19,0,0,0,0-.09.54.54,0,0,0,0-.15,1.77,1.77,0,0,0,0-.24V7.91a1.55,1.55,0,0,0,0-.23.52.52,0,0,0,0-.14s0-.06,0-.07l-.09,0-.08,0a.19.19,0,0,0,0,.09.61.61,0,0,0,0,.15,1.77,1.77,0,0,0,0,.24v.17A1.55,1.55,0,0,0,57.11,8.35Z" transform="translate(-1.93 -4.26)"/><path class="cls-1" d="M5.55,10.32a.4.4,0,0,1,0-.17A.31.31,0,0,1,5.67,10,.27.27,0,0,1,5.79,10L6,10a.58.58,0,0,1,.21,0,.32.32,0,0,1,.13.07.24.24,0,0,1,.06.11.66.66,0,0,1,0,.14v.6c0,.06,0,.1,0,.13a.32.32,0,0,0,0,.09H6.12s0,0,0-.05a.64.64,0,0,0,0-.07h0a.28.28,0,0,1-.12.12.4.4,0,0,1-.17,0,.25.25,0,0,1-.13,0,.31.31,0,0,1-.09-.07.36.36,0,0,1,0-.11.43.43,0,0,1,0-.11.52.52,0,0,1,0-.14.26.26,0,0,1,.14-.17l.13,0,.17,0a.19.19,0,0,0,.09,0,.2.2,0,0,0,0-.09.17.17,0,0,0,0-.1.14.14,0,0,0-.2,0,.15.15,0,0,0,0,.11v0H5.55ZM6,10.6l-.06,0a.23.23,0,0,0-.13.06.22.22,0,0,0,0,.13.2.2,0,0,0,0,.11.08.08,0,0,0,.08,0H6a.07.07,0,0,0,.06,0s0,0,.05-.05a.19.19,0,0,0,0-.08v-.23Z" transform="translate(-1.93 -4.26)"/><path class="cls-1" d="M6.87,10v.14h0A.3.3,0,0,1,7,10a.43.43,0,0,1,.17,0,.29.29,0,0,1,.21.08.34.34,0,0,1,.08.25v.84h-.3v-.78a.23.23,0,0,0,0-.13.12.12,0,0,0-.09,0c-.1,0-.16.06-.16.19v.75H6.59V10Z" transform="translate(-1.93 -4.26)"/><path class="cls-1" d="M8.25,11a.23.23,0,0,1-.11.11.24.24,0,0,1-.15,0A.29.29,0,0,1,7.73,11a.86.86,0,0,1-.09-.46.84.84,0,0,1,.09-.45A.28.28,0,0,1,8,10a.26.26,0,0,1,.14,0,.35.35,0,0,1,.11.1h0V9.62h.3v1.51H8.26V11ZM8,10.84a.12.12,0,0,0,.13.1.11.11,0,0,0,.12-.1.94.94,0,0,0,0-.28,1,1,0,0,0,0-.28.11.11,0,0,0-.12-.09.12.12,0,0,0-.13.09,1.91,1.91,0,0,0,0,.28A1.7,1.7,0,0,0,8,10.84Z" transform="translate(-1.93 -4.26)"/><path class="cls-1" d="M9.57,9.62v.48h0a.32.32,0,0,1,.1-.1.33.33,0,0,1,.14,0,.29.29,0,0,1,.27.15,1,1,0,0,1,.08.45,1,1,0,0,1-.08.46.31.31,0,0,1-.27.14.24.24,0,0,1-.15,0A.29.29,0,0,1,9.56,11h0v.12H9.28V9.62Zm0,1.22a.12.12,0,0,0,.13.1.12.12,0,0,0,.12-.1.94.94,0,0,0,0-.28,1,1,0,0,0,0-.28.12.12,0,0,0-.12-.09.12.12,0,0,0-.13.09,1,1,0,0,0,0,.28A.94.94,0,0,0,9.6,10.84Z" transform="translate(-1.93 -4.26)"/><path class="cls-1" d="M10.36,10.32a.4.4,0,0,1,0-.17.31.31,0,0,1,.09-.11A.23.23,0,0,1,10.6,10l.16,0A.58.58,0,0,1,11,10a.32.32,0,0,1,.13.07.24.24,0,0,1,.06.11.66.66,0,0,1,0,.14v.6c0,.06,0,.1,0,.13a.16.16,0,0,0,0,.09h-.28s0,0,0-.05a.64.64,0,0,0,0-.07h0a.28.28,0,0,1-.12.12.4.4,0,0,1-.17,0,.25.25,0,0,1-.13,0,.31.31,0,0,1-.09-.07.36.36,0,0,1,0-.11.43.43,0,0,1,0-.11.52.52,0,0,1,0-.14.26.26,0,0,1,.14-.17l.13,0,.17,0a.19.19,0,0,0,.09,0,.2.2,0,0,0,0-.09.17.17,0,0,0,0-.1.15.15,0,0,0-.2,0,.15.15,0,0,0,0,.11v0h-.26Zm.47.28-.06,0a.23.23,0,0,0-.13.06.22.22,0,0,0,0,.13.2.2,0,0,0,0,.11s0,0,.08,0h.06a.07.07,0,0,0,.06,0l.05-.05a.19.19,0,0,0,0-.08v-.23Z" transform="translate(-1.93 -4.26)"/><path class="cls-1" d="M11.94,10.32s0-.05,0-.07l0-.05a.08.08,0,0,0-.07,0s-.07,0-.09,0a.18.18,0,0,0-.05.07.37.37,0,0,0,0,.12,1.63,1.63,0,0,0,0,.36.37.37,0,0,0,0,.12.13.13,0,0,0,.05.07.11.11,0,0,0,.08,0,.13.13,0,0,0,.11-.06.49.49,0,0,0,0-.2h.28a.49.49,0,0,1-.1.34.43.43,0,0,1-.34.12.58.58,0,0,1-.19,0,.26.26,0,0,1-.13-.1.3.3,0,0,1-.08-.18,1.17,1.17,0,0,1,0-.29,1.23,1.23,0,0,1,0-.29.61.61,0,0,1,.1-.18.33.33,0,0,1,.14-.1.58.58,0,0,1,.19,0,.39.39,0,0,1,.31.12.53.53,0,0,1,.1.32H12A.25.25,0,0,0,11.94,10.32Z" transform="translate(-1.93 -4.26)"/><path class="cls-1" d="M12.71,10.42h0L13,10h.33l-.33.45.38.69h-.33l-.24-.47-.1.14v.33h-.3V9.62h.3Z" transform="translate(-1.93 -4.26)"/><path class="cls-1" d="M13.73,10.7s0,.07,0,.1,0,.06,0,.08a.09.09,0,0,0,0,.06.08.08,0,0,0,.07,0s.08,0,.1-.05a.3.3,0,0,0,0-.16h.26a.45.45,0,0,1-.1.3.42.42,0,0,1-.31.11.46.46,0,0,1-.25-.06A.29.29,0,0,1,13.5,11a.53.53,0,0,1-.05-.19,1.62,1.62,0,0,1,0-.44.6.6,0,0,1,.06-.19.44.44,0,0,1,.14-.13.52.52,0,0,1,.23,0,.41.41,0,0,1,.21,0,.24.24,0,0,1,.13.11.48.48,0,0,1,.06.18,1,1,0,0,1,0,.24v.07h-.58Zm.29-.38a.29.29,0,0,0,0-.09.1.1,0,0,0,0-.05l-.08,0-.07,0a.13.13,0,0,0,0,.06s0,0,0,.07,0,0,0,.08v0H14A.37.37,0,0,0,14,10.32Z" transform="translate(-1.93 -4.26)"/><path class="cls-1" d="M15.06,11a.22.22,0,0,1-.1.11.24.24,0,0,1-.15,0,.31.31,0,0,1-.27-.14,1,1,0,0,1-.08-.46,1,1,0,0,1,.08-.45.29.29,0,0,1,.27-.15A.33.33,0,0,1,15,10a.32.32,0,0,1,.1.1h0V9.62h.29v1.51h-.28V11Zm-.28-.17a.12.12,0,0,0,.12.1.12.12,0,0,0,.13-.1.94.94,0,0,0,0-.28,1,1,0,0,0,0-.28.12.12,0,0,0-.13-.09.12.12,0,0,0-.12.09,1,1,0,0,0,0,.28A.94.94,0,0,0,14.78,10.84Z" transform="translate(-1.93 -4.26)"/><path class="cls-1" d="M16.39,9.62v.48h0a.35.35,0,0,1,.11-.1.26.26,0,0,1,.14,0,.27.27,0,0,1,.26.15.84.84,0,0,1,.09.45.86.86,0,0,1-.09.46.28.28,0,0,1-.26.14.24.24,0,0,1-.15,0,.23.23,0,0,1-.11-.11h0v.12h-.28V9.62Zm0,1.22a.11.11,0,0,0,.12.1.13.13,0,0,0,.13-.1,1.7,1.7,0,0,0,0-.28,1.91,1.91,0,0,0,0-.28.13.13,0,0,0-.13-.09.11.11,0,0,0-.12.09,1,1,0,0,0,0,.28A.94.94,0,0,0,16.42,10.84Z" transform="translate(-1.93 -4.26)"/><path class="cls-1" d="M17.25,11.29a.21.21,0,0,0,.12,0,.34.34,0,0,0,0-.12L17.09,10h.3l.17.79h0l.14-.79H18l-.28,1.07a2.19,2.19,0,0,1-.07.23.49.49,0,0,1-.08.13l-.12.07h-.29v-.22Z" transform="translate(-1.93 -4.26)"/><path class="cls-1" d="M19,9.67V10h.17v.2H19v.62a.25.25,0,0,0,0,.1l.08,0h.07v.2h-.33l-.08-.05a.19.19,0,0,1,0-.09.61.61,0,0,1,0-.14v-.66h-.15V10h.15V9.67Z" transform="translate(-1.93 -4.26)"/><path class="cls-1" d="M19.61,9.62v.49h0a.3.3,0,0,1,.28-.15.29.29,0,0,1,.21.08.34.34,0,0,1,.08.25v.84h-.29v-.78a.23.23,0,0,0,0-.13.15.15,0,0,0-.1,0c-.1,0-.15.06-.15.19v.75h-.3V9.62Z" transform="translate(-1.93 -4.26)"/><path class="cls-1" d="M20.64,10.7s0,.07,0,.1,0,.06,0,.08a.09.09,0,0,0,0,.06.08.08,0,0,0,.07,0,.12.12,0,0,0,.11-.05.46.46,0,0,0,0-.16h.27a.51.51,0,0,1-.11.3.42.42,0,0,1-.31.11.46.46,0,0,1-.25-.06.29.29,0,0,1-.13-.14.53.53,0,0,1-.05-.19,1.62,1.62,0,0,1,0-.44.6.6,0,0,1,.06-.19.44.44,0,0,1,.14-.13.52.52,0,0,1,.23,0A.41.41,0,0,1,21,10a.24.24,0,0,1,.13.11.75.75,0,0,1,.07.18,1.93,1.93,0,0,1,0,.24v.07h-.58Zm.29-.38a.29.29,0,0,0,0-.09.1.1,0,0,0,0-.05l-.08,0-.07,0a.13.13,0,0,0,0,.06s0,0,0,.07,0,0,0,.08v0h.3A.37.37,0,0,0,20.93,10.32Z" transform="translate(-1.93 -4.26)"/><path class="cls-1" d="M21.84,10.19V10H22V9.87a.39.39,0,0,1,0-.13.15.15,0,0,1,.06-.09.18.18,0,0,1,.1,0l.12,0h.16v.21h-.06l-.08,0a.1.1,0,0,0,0,.08V10h.17v.2h-.17v.94H22v-.94Z" transform="translate(-1.93 -4.26)"/><path class="cls-1" d="M23.15,11a.23.23,0,0,1-.12.12.43.43,0,0,1-.17,0,.29.29,0,0,1-.21-.08.33.33,0,0,1-.08-.24V10h.29v.79a.25.25,0,0,0,0,.12.12.12,0,0,0,.1,0c.1,0,.15-.06.15-.19V10h.3v1.14h-.28V11Z" transform="translate(-1.93 -4.26)"/><path class="cls-1" d="M24,9.62v1.51h-.3V9.62Z" transform="translate(-1.93 -4.26)"/><path class="cls-1" d="M24.49,9.62v1.51h-.3V9.62Z" transform="translate(-1.93 -4.26)"/><path class="cls-1" d="M25.16,10.19V10h.14V9.87a.23.23,0,0,1,0-.13.15.15,0,0,1,.06-.09.15.15,0,0,1,.09,0l.13,0h.16v.21h-.06l-.09,0a.15.15,0,0,0,0,.08V10h.17v.2H25.6v.94h-.3v-.94Z" transform="translate(-1.93 -4.26)"/><path class="cls-1" d="M25.89,10.32a.4.4,0,0,1,0-.17A.44.44,0,0,1,26,10a.31.31,0,0,1,.13-.06l.16,0a.58.58,0,0,1,.21,0,.35.35,0,0,1,.12.07.41.41,0,0,1,.07.11.66.66,0,0,1,0,.14v.6a.45.45,0,0,0,0,.13.16.16,0,0,0,0,.09h-.28s0,0,0-.05a.64.64,0,0,0,0-.07h0a.34.34,0,0,1-.12.12.43.43,0,0,1-.17,0,.25.25,0,0,1-.13,0,.22.22,0,0,1-.09-.07.36.36,0,0,1,0-.11.43.43,0,0,1,0-.11.52.52,0,0,1,0-.14.31.31,0,0,1,.05-.1.22.22,0,0,1,.09-.07l.13,0,.16,0a.19.19,0,0,0,.1,0,.2.2,0,0,0,0-.09.17.17,0,0,0,0-.1.13.13,0,0,0-.1,0,.18.18,0,0,0-.11,0,.2.2,0,0,0,0,.11v0h-.26Zm.47.28-.06,0a.2.2,0,0,0-.13.06.17.17,0,0,0,0,.13.2.2,0,0,0,0,.11s0,0,.08,0h.06l.06,0a.1.1,0,0,0,0-.05.11.11,0,0,0,0-.08v-.23Z" transform="translate(-1.93 -4.26)"/><path class="cls-1" d="M27.23,9.6v.25h-.29V9.6Zm0,.39v1.14h-.29V10Z" transform="translate(-1.93 -4.26)"/><path class="cls-1" d="M27.81,9.67V10H28v.2h-.17v.62a.25.25,0,0,0,0,.1l.09,0H28v.2h-.32a.19.19,0,0,1-.09-.05.19.19,0,0,1,0-.09s0-.09,0-.14v-.66h-.15V10h.15V9.67Z" transform="translate(-1.93 -4.26)"/><path class="cls-1" d="M28.4,9.62v.49h0a.3.3,0,0,1,.28-.15.31.31,0,0,1,.22.08.34.34,0,0,1,.07.25v.84h-.29v-.78a.23.23,0,0,0,0-.13.13.13,0,0,0-.1,0c-.1,0-.15.06-.15.19v.75h-.29V9.62Z" transform="translate(-1.93 -4.26)"/><path class="cls-1" d="M29.71,10.32a.29.29,0,0,1,0-.17.44.44,0,0,1,.08-.11A.31.31,0,0,1,30,10l.16,0a.66.66,0,0,1,.21,0,.35.35,0,0,1,.12.07.24.24,0,0,1,.06.11.68.68,0,0,1,0,.14v.6a.45.45,0,0,0,0,.13.29.29,0,0,0,0,.09h-.28l0-.05s0-.05,0-.07h0a.26.26,0,0,1-.11.12.48.48,0,0,1-.18,0,.28.28,0,0,1-.13,0,.27.27,0,0,1-.08-.07.37.37,0,0,1,0-.11.41.41,0,0,1,0-.11.3.3,0,0,1,0-.14.19.19,0,0,1,.05-.1.22.22,0,0,1,.09-.07l.13,0,.16,0a.13.13,0,0,0,.09,0,.12.12,0,0,0,0-.09.17.17,0,0,0,0-.1.16.16,0,0,0-.11,0,.15.15,0,0,0-.1,0,.2.2,0,0,0,0,.11v0h-.27Zm.47.28-.06,0a.17.17,0,0,0-.16.19.36.36,0,0,0,0,.11.1.1,0,0,0,.09,0h.06l.06,0a.1.1,0,0,0,0-.05.19.19,0,0,0,0-.08v-.23Z" transform="translate(-1.93 -4.26)"/><path class="cls-1" d="M31,10v.14h0a.3.3,0,0,1,.12-.13.47.47,0,0,1,.17,0,.27.27,0,0,1,.21.08.3.3,0,0,1,.08.25v.84h-.29v-.78a.23.23,0,0,0,0-.13.13.13,0,0,0-.1,0c-.1,0-.15.06-.15.19v.75h-.29V10Z" transform="translate(-1.93 -4.26)"/><path class="cls-1" d="M32.42,11a.29.29,0,0,1-.11.11.24.24,0,0,1-.15,0,.31.31,0,0,1-.27-.14,1,1,0,0,1-.08-.46,1,1,0,0,1,.08-.45.29.29,0,0,1,.27-.15.33.33,0,0,1,.14,0,.32.32,0,0,1,.1.1h0V9.62h.29v1.51h-.28V11Zm-.29-.17a.12.12,0,0,0,.12.1.12.12,0,0,0,.13-.1.94.94,0,0,0,0-.28,1,1,0,0,0,0-.28.12.12,0,0,0-.13-.09.12.12,0,0,0-.12.09,1,1,0,0,0,0,.28A.94.94,0,0,0,32.13,10.84Z" transform="translate(-1.93 -4.26)"/><path class="cls-1" d="M34,10.32a.19.19,0,0,0,0-.07.1.1,0,0,0,0-.05.08.08,0,0,0-.07,0,.11.11,0,0,0-.08,0,.12.12,0,0,0-.05.07.35.35,0,0,0,0,.12v.36a.35.35,0,0,0,0,.12s0,.06,0,.07a.11.11,0,0,0,.08,0A.11.11,0,0,0,34,10.9a.49.49,0,0,0,0-.2h.28a.49.49,0,0,1-.1.34.39.39,0,0,1-.33.12.54.54,0,0,1-.19,0,.28.28,0,0,1-.14-.1.51.51,0,0,1-.08-.18,1.17,1.17,0,0,1,0-.29,1.19,1.19,0,0,1,0-.29.44.44,0,0,1,.09-.18.31.31,0,0,1,.15-.1.58.58,0,0,1,.19,0,.38.38,0,0,1,.3.12.47.47,0,0,1,.1.32H34Z" transform="translate(-1.93 -4.26)"/><path class="cls-1" d="M34.73,10v.16h0a.53.53,0,0,1,.11-.14A.25.25,0,0,1,35,10h.06v.28h-.17l-.07,0-.05.06a.3.3,0,0,0,0,.1v.68h-.29V10Z" transform="translate(-1.93 -4.26)"/><path class="cls-1" d="M35.42,10.7s0,.07,0,.1,0,.06,0,.08a.09.09,0,0,0,0,.06.08.08,0,0,0,.07,0,.12.12,0,0,0,.11-.05.46.46,0,0,0,0-.16H36a.51.51,0,0,1-.11.3.42.42,0,0,1-.31.11.46.46,0,0,1-.25-.06.35.35,0,0,1-.13-.14.87.87,0,0,1,0-.19c0-.07,0-.15,0-.22a1.64,1.64,0,0,1,0-.22.6.6,0,0,1,.06-.19.44.44,0,0,1,.14-.13.54.54,0,0,1,.24,0,.39.39,0,0,1,.2,0,.24.24,0,0,1,.13.11.75.75,0,0,1,.07.18,1.93,1.93,0,0,1,0,.24v.07h-.58Zm.29-.38a.29.29,0,0,0,0-.09.1.1,0,0,0,0-.05l-.08,0-.07,0a.13.13,0,0,0,0,.06s0,0,0,.07,0,0,0,.08v0h.3A.37.37,0,0,0,35.71,10.32Z" transform="translate(-1.93 -4.26)"/><path class="cls-1" d="M36.76,11a.29.29,0,0,1-.11.11.24.24,0,0,1-.15,0,.31.31,0,0,1-.27-.14,1,1,0,0,1-.08-.46,1,1,0,0,1,.08-.45A.29.29,0,0,1,36.5,10a.33.33,0,0,1,.14,0,.32.32,0,0,1,.1.1h0V9.62H37v1.51h-.28V11Zm-.29-.17a.12.12,0,0,0,.12.1.12.12,0,0,0,.13-.1.94.94,0,0,0,0-.28,1,1,0,0,0,0-.28.12.12,0,0,0-.13-.09.12.12,0,0,0-.12.09,1,1,0,0,0,0,.28A.94.94,0,0,0,36.47,10.84Z" transform="translate(-1.93 -4.26)"/><path class="cls-1" d="M37.56,9.6v.25h-.29V9.6Zm0,.39v1.14h-.29V10Z" transform="translate(-1.93 -4.26)"/><path class="cls-1" d="M38.14,9.67V10h.17v.2h-.17v.62a.25.25,0,0,0,0,.1.17.17,0,0,0,.09,0h.06v.2H38l-.08-.05a.19.19,0,0,1,0-.09.61.61,0,0,1,0-.14v-.66H37.7V10h.15V9.67Z" transform="translate(-1.93 -4.26)"/><path class="cls-1" d="M39,10.31a.47.47,0,0,1,.07-.19.53.53,0,0,1,.14-.12.65.65,0,0,1,.21,0,.48.48,0,0,1,.22,0,.26.26,0,0,1,.14.11.54.54,0,0,1,.07.19,1.06,1.06,0,0,1,0,.26,1,1,0,0,1,0,.26.47.47,0,0,1-.08.19.28.28,0,0,1-.13.11.67.67,0,0,1-.22,0,.44.44,0,0,1-.21,0A.26.26,0,0,1,39,11a.36.36,0,0,1-.07-.18,1.12,1.12,0,0,1,0-.27A1,1,0,0,1,39,10.31Zm.27.41a.44.44,0,0,0,0,.13.16.16,0,0,0,0,.08.11.11,0,0,0,.08,0,.14.14,0,0,0,.13-.09,1.09,1.09,0,0,0,0-.31,1.05,1.05,0,0,0,0-.3.13.13,0,0,0-.13-.1.11.11,0,0,0-.08,0,.19.19,0,0,0,0,.09.37.37,0,0,0,0,.12v.32Z" transform="translate(-1.93 -4.26)"/><path class="cls-1" d="M39.92,10.19V10h.14V9.87a.23.23,0,0,1,0-.13.15.15,0,0,1,.06-.09.13.13,0,0,1,.09,0l.13,0h.16v.21h-.06l-.09,0a.15.15,0,0,0,0,.08V10h.17v.2h-.17v.94h-.3v-.94Z" transform="translate(-1.93 -4.26)"/><path class="cls-1" d="M41.53,9.67V10h.17v.2h-.17v.62a.25.25,0,0,0,0,.1l.09,0h.06v.2h-.33l-.08-.05a.19.19,0,0,1,0-.09s0-.09,0-.14v-.66h-.15V10h.15V9.67Z" transform="translate(-1.93 -4.26)"/><path class="cls-1" d="M42.12,9.62v.49h0A.3.3,0,0,1,42.4,10a.31.31,0,0,1,.22.08.34.34,0,0,1,.07.25v.84H42.4v-.78a.23.23,0,0,0,0-.13.13.13,0,0,0-.1,0c-.1,0-.15.06-.15.19v.75h-.29V9.62Z" transform="translate(-1.93 -4.26)"/><path class="cls-1" d="M43.16,10.7v.1l0,.08a.09.09,0,0,0,0,.06.08.08,0,0,0,.07,0c.05,0,.09,0,.11-.05a.43.43,0,0,0,.05-.16h.26a.45.45,0,0,1-.11.3.39.39,0,0,1-.31.11.43.43,0,0,1-.24-.06.25.25,0,0,1-.13-.14.53.53,0,0,1-.06-.19c0-.07,0-.15,0-.22a1.64,1.64,0,0,1,0-.22.6.6,0,0,1,.06-.19.58.58,0,0,1,.14-.13.54.54,0,0,1,.24,0,.46.46,0,0,1,.21,0,.25.25,0,0,1,.12.11.36.36,0,0,1,.07.18,1.94,1.94,0,0,1,0,.24v.07h-.58Zm.29-.38a.32.32,0,0,0,0-.09.1.1,0,0,0,0-.05l-.07,0-.08,0s0,0,0,.06l0,.07v.12h.3A.45.45,0,0,1,43.45,10.32Z" transform="translate(-1.93 -4.26)"/><path class="cls-1" d="M44.73,10.68s0,.07,0,.1,0,.06,0,.08a.1.1,0,0,0,0,.06l.09,0,.09,0a.1.1,0,0,0,0-.06.11.11,0,0,0,0-.08.34.34,0,0,0,0-.1V9.62h.3v1.06a.53.53,0,0,1,0,.23.28.28,0,0,1-.1.15.48.48,0,0,1-.16.08l-.18,0-.18,0a.26.26,0,0,1-.15-.07.25.25,0,0,1-.11-.15.55.55,0,0,1,0-.24V9.62h.3Z" transform="translate(-1.93 -4.26)"/><path class="cls-1" d="M45.88,10v.14h0A.3.3,0,0,1,46,10a.47.47,0,0,1,.17,0,.29.29,0,0,1,.22.08.34.34,0,0,1,.07.25v.84h-.29v-.78a.23.23,0,0,0,0-.13.12.12,0,0,0-.09,0c-.11,0-.16.06-.16.19v.75H45.6V10Z" transform="translate(-1.93 -4.26)"/><path class="cls-1" d="M47,9.6v.25h-.29V9.6ZM47,10v1.14h-.29V10Z" transform="translate(-1.93 -4.26)"/><path class="cls-1" d="M47.56,9.67V10h.17v.2h-.17v.62a.25.25,0,0,0,0,.1l.09,0h.06v.2H47.4l-.08-.05a.19.19,0,0,1,0-.09s0-.09,0-.14v-.66h-.15V10h.15V9.67Z" transform="translate(-1.93 -4.26)"/><path class="cls-1" d="M48.11,10.7v.1l0,.08a.09.09,0,0,0,0,.06.08.08,0,0,0,.07,0s.09,0,.11-.05a.43.43,0,0,0,0-.16h.26a.45.45,0,0,1-.11.3.4.4,0,0,1-.31.11A.43.43,0,0,1,48,11.1a.25.25,0,0,1-.13-.14.53.53,0,0,1-.06-.19c0-.07,0-.15,0-.22a1.64,1.64,0,0,1,0-.22.6.6,0,0,1,.06-.19A.44.44,0,0,1,48,10a.54.54,0,0,1,.24,0,.46.46,0,0,1,.21,0,.25.25,0,0,1,.12.11.48.48,0,0,1,.07.18,1.93,1.93,0,0,1,0,.24v.07h-.57Zm.29-.38,0-.09a.1.1,0,0,0,0-.05l-.07,0-.08,0a.13.13,0,0,0,0,.06l0,.07v.12h.3A.45.45,0,0,1,48.4,10.32Z" transform="translate(-1.93 -4.26)"/><path class="cls-1" d="M49.44,11a.23.23,0,0,1-.11.11.24.24,0,0,1-.15,0,.28.28,0,0,1-.26-.14.86.86,0,0,1-.09-.46.84.84,0,0,1,.09-.45.27.27,0,0,1,.26-.15.29.29,0,0,1,.14,0,.5.5,0,0,1,.11.1h0V9.62h.29v1.51h-.28V11Zm-.29-.17a.12.12,0,0,0,.13.1.12.12,0,0,0,.12-.1.94.94,0,0,0,0-.28,1,1,0,0,0,0-.28.12.12,0,0,0-.12-.09.12.12,0,0,0-.13.09,1,1,0,0,0,0,.28A.94.94,0,0,0,49.15,10.84Z" transform="translate(-1.93 -4.26)"/><path class="cls-1" d="M50.72,10.71a.28.28,0,0,0,0,.09l0,.08.06,0,.1,0a.21.21,0,0,0,.13,0,.16.16,0,0,0,.06-.14.29.29,0,0,0,0-.09l0-.06L51,10.54l-.13,0-.17-.07-.13-.09a.54.54,0,0,1-.07-.13.78.78,0,0,1,0-.16.44.44,0,0,1,.12-.34.54.54,0,0,1,.35-.11l.18,0a.36.36,0,0,1,.15.08.29.29,0,0,1,.1.12.54.54,0,0,1,0,.19v0h-.29a.29.29,0,0,0,0-.17.14.14,0,0,0-.12,0h-.09a.1.1,0,0,0,0,0s0,0,0,.06,0,0,0,.06a.21.21,0,0,0,0,.12.29.29,0,0,0,.13.09l.24.1.14.08.08.09a.19.19,0,0,1,0,.1.53.53,0,0,1,0,.13.4.4,0,0,1-.14.35.61.61,0,0,1-.38.11.48.48,0,0,1-.37-.12.4.4,0,0,1-.11-.32v-.06h.3Z" transform="translate(-1.93 -4.26)"/><path class="cls-1" d="M51.94,9.67V10h.17v.2h-.17v.62a.25.25,0,0,0,0,.1.17.17,0,0,0,.09,0h.06v.2h-.33l-.08-.05a.19.19,0,0,1,0-.09s0-.09,0-.14v-.66H51.5V10h.15V9.67Z" transform="translate(-1.93 -4.26)"/><path class="cls-1" d="M52.23,10.32a.29.29,0,0,1,0-.17.44.44,0,0,1,.08-.11.31.31,0,0,1,.13-.06l.15,0a.69.69,0,0,1,.22,0,.35.35,0,0,1,.12.07.24.24,0,0,1,.06.11.68.68,0,0,1,0,.14V11l0,.09H52.8l0-.05s0-.05,0-.07h0a.23.23,0,0,1-.12.12.4.4,0,0,1-.17,0,.28.28,0,0,1-.13,0,.27.27,0,0,1-.08-.07.37.37,0,0,1,0-.11.41.41,0,0,1,0-.11.57.57,0,0,1,0-.14.33.33,0,0,1,.06-.1.22.22,0,0,1,.09-.07l.13,0,.16,0a.13.13,0,0,0,.09,0,.12.12,0,0,0,0-.09.17.17,0,0,0,0-.1.16.16,0,0,0-.11,0,.15.15,0,0,0-.1,0,.2.2,0,0,0,0,.11v0h-.27Zm.47.28-.06,0a.17.17,0,0,0-.16.19.36.36,0,0,0,0,.11.1.1,0,0,0,.09,0h.06a.09.09,0,0,0,.06,0,.1.1,0,0,0,0-.05.19.19,0,0,0,0-.08v-.23Z" transform="translate(-1.93 -4.26)"/><path class="cls-1" d="M53.63,9.67V10h.17v.2h-.17v.62a.25.25,0,0,0,0,.1.17.17,0,0,0,.09,0h.06v.2h-.33l-.08-.05a.19.19,0,0,1,0-.09.61.61,0,0,1,0-.14v-.66h-.15V10h.15V9.67Z" transform="translate(-1.93 -4.26)"/><path class="cls-1" d="M54.17,10.7s0,.07,0,.1,0,.06,0,.08a.09.09,0,0,0,0,.06.08.08,0,0,0,.07,0,.12.12,0,0,0,.11-.05.46.46,0,0,0,0-.16h.26a.45.45,0,0,1-.1.3.42.42,0,0,1-.31.11.46.46,0,0,1-.25-.06.29.29,0,0,1-.13-.14.87.87,0,0,1,0-.19c0-.07,0-.15,0-.22a1.64,1.64,0,0,1,0-.22.6.6,0,0,1,.06-.19A.44.44,0,0,1,54.1,10a.54.54,0,0,1,.24,0,.39.39,0,0,1,.2,0,.24.24,0,0,1,.13.11.48.48,0,0,1,.06.18,1,1,0,0,1,0,.24v.07h-.58Zm.29-.38a.29.29,0,0,0,0-.09.1.1,0,0,0,0-.05l-.08,0-.07,0a.13.13,0,0,0,0,.06s0,0,0,.07,0,0,0,.08v0h.3A.37.37,0,0,0,54.46,10.32Z" transform="translate(-1.93 -4.26)"/><path class="cls-1" d="M55.14,10.8a.16.16,0,0,0,0,.12.14.14,0,0,0,.11,0,.18.18,0,0,0,.11,0,.12.12,0,0,0,0-.1.12.12,0,0,0,0-.09l-.08,0-.2-.08a.33.33,0,0,1-.18-.11.41.41,0,0,1,0-.34.23.23,0,0,1,.07-.1.57.57,0,0,1,.13-.08.58.58,0,0,1,.19,0,.41.41,0,0,1,.3.09.33.33,0,0,1,.1.24v0h-.27a.25.25,0,0,0,0-.13.13.13,0,0,0-.1,0,.14.14,0,0,0-.09,0,.12.12,0,0,0,0,.1.1.1,0,0,0,0,.07s.05,0,.1.06l.18.06a.39.39,0,0,1,.19.12.33.33,0,0,1,.06.21.33.33,0,0,1,0,.15.24.24,0,0,1-.09.11l-.13.07-.17,0a.62.62,0,0,1-.21,0,.27.27,0,0,1-.13-.07A.24.24,0,0,1,54.9,11a.34.34,0,0,1,0-.15v0h.26Z" transform="translate(-1.93 -4.26)"/><path class="cls-1" d="M57.09,10l0-.08L57,9.84a.11.11,0,0,0-.08,0,.18.18,0,0,0-.16.12,1.35,1.35,0,0,0,0,.41v.24c0,.07,0,.14,0,.19a.35.35,0,0,0,.07.12.15.15,0,0,0,.1,0l.07,0,.06,0a.2.2,0,0,0,0-.08.16.16,0,0,0,0-.1v-.16h-.2v-.22h.5v.81h-.23V11h0a.35.35,0,0,1-.14.13.48.48,0,0,1-.18,0,.52.52,0,0,1-.23-.05.41.41,0,0,1-.14-.15.83.83,0,0,1-.06-.25,3.49,3.49,0,0,1,0-.35,2.92,2.92,0,0,1,0-.33.67.67,0,0,1,.09-.24.33.33,0,0,1,.16-.15.54.54,0,0,1,.24-.05.43.43,0,0,1,.36.13.52.52,0,0,1,.11.35H57.1S57.09,10,57.09,10Z" transform="translate(-1.93 -4.26)"/><path class="cls-1" d="M57.6,10.31a.47.47,0,0,1,.08-.19.33.33,0,0,1,.14-.12A.56.56,0,0,1,58,10a.51.51,0,0,1,.22,0,.28.28,0,0,1,.13.11.4.4,0,0,1,.07.19,1,1,0,0,1,0,.26,1,1,0,0,1,0,.26.47.47,0,0,1-.07.19.36.36,0,0,1-.14.11.65.65,0,0,1-.21,0,.48.48,0,0,1-.22,0,.26.26,0,0,1-.14-.11.48.48,0,0,1-.07-.18,1.14,1.14,0,0,1,0-.27A1.81,1.81,0,0,1,57.6,10.31Zm.27.41s0,.1,0,.13a.28.28,0,0,0,0,.08A.12.12,0,0,0,58,11a.12.12,0,0,0,.12-.09,1.09,1.09,0,0,0,0-.31,1.05,1.05,0,0,0,0-.3.12.12,0,0,0-.12-.1.12.12,0,0,0-.09,0,.36.36,0,0,0,0,.09s0,.07,0,.12v.32Z" transform="translate(-1.93 -4.26)"/><path class="cls-1" d="M59.49,10l-.29,1.14h-.34L58.57,10h.3l.16.82h0l.15-.82Z" transform="translate(-1.93 -4.26)"/><path class="cls-1" d="M59.86,10.7s0,.07,0,.1,0,.06,0,.08a.09.09,0,0,0,0,.06A.08.08,0,0,0,60,11a.12.12,0,0,0,.11-.05.46.46,0,0,0,0-.16h.27a.51.51,0,0,1-.11.3.42.42,0,0,1-.31.11.4.4,0,0,1-.24-.06.32.32,0,0,1-.14-.14.87.87,0,0,1-.05-.19c0-.07,0-.15,0-.22a1.64,1.64,0,0,1,0-.22.6.6,0,0,1,.06-.19.44.44,0,0,1,.14-.13A.54.54,0,0,1,60,10a.39.39,0,0,1,.2,0,.24.24,0,0,1,.13.11.75.75,0,0,1,.07.18,1.93,1.93,0,0,1,0,.24v.07h-.58Zm.29-.38a.29.29,0,0,0,0-.09.1.1,0,0,0,0-.05l-.07,0-.08,0a.13.13,0,0,0,0,.06s0,0,0,.07,0,0,0,.08v0h.3A.37.37,0,0,0,60.15,10.32Z" transform="translate(-1.93 -4.26)"/><path class="cls-1" d="M60.9,10v.16h0A.53.53,0,0,1,61,10a.25.25,0,0,1,.15,0h.06v.28h-.17l-.07,0,0,.06a.3.3,0,0,0,0,.1v.68h-.29V10Z" transform="translate(-1.93 -4.26)"/><path class="cls-1" d="M61.62,10v.14h0a.3.3,0,0,1,.12-.13.43.43,0,0,1,.17,0,.29.29,0,0,1,.21.08.34.34,0,0,1,.08.25v.84h-.29v-.78a.22.22,0,0,0,0-.13s-.05,0-.09,0-.15.06-.15.19v.75h-.3V10Z" transform="translate(-1.93 -4.26)"/><path class="cls-1" d="M62.7,10v.12h0a.31.31,0,0,1,.12-.11A.42.42,0,0,1,63,10a.35.35,0,0,1,.18,0,.28.28,0,0,1,.09.14h0a.31.31,0,0,1,.11-.14.35.35,0,0,1,.18,0,.23.23,0,0,1,.21.09.4.4,0,0,1,.07.26v.82h-.29v-.79a.16.16,0,0,0,0-.11s0,0-.08,0-.09,0-.11.05a.2.2,0,0,0,0,.14v.75H63v-.79a.27.27,0,0,0,0-.11.1.1,0,0,0-.09,0s-.09,0-.11.05a.2.2,0,0,0,0,.14v.75h-.29V10Z" transform="translate(-1.93 -4.26)"/><path class="cls-1" d="M64.3,10.7a.34.34,0,0,0,0,.1.19.19,0,0,0,0,.08.1.1,0,0,0,0,.06s0,0,.06,0,.09,0,.11-.05a.43.43,0,0,0,0-.16h.26a.45.45,0,0,1-.1.3.42.42,0,0,1-.31.11.44.44,0,0,1-.25-.06.29.29,0,0,1-.13-.14.38.38,0,0,1,0-.19,2.43,2.43,0,0,1,0-.44.44.44,0,0,1,.07-.19.4.4,0,0,1,.13-.13.54.54,0,0,1,.24,0,.46.46,0,0,1,.21,0,.28.28,0,0,1,.13.11.48.48,0,0,1,.06.18,1.94,1.94,0,0,1,0,.24v.07H64.3Zm.29-.38a.29.29,0,0,0,0-.09.12.12,0,0,0,0-.05l-.07,0-.07,0s0,0,0,.06a.14.14,0,0,0,0,.07.22.22,0,0,0,0,.08v0h.3S64.59,10.35,64.59,10.32Z" transform="translate(-1.93 -4.26)"/><path class="cls-1" d="M65.33,10v.14h0a.3.3,0,0,1,.12-.13.38.38,0,0,1,.16,0,.29.29,0,0,1,.22.08.34.34,0,0,1,.08.25v.84h-.3v-.78a.23.23,0,0,0,0-.13.12.12,0,0,0-.09,0c-.1,0-.16.06-.16.19v.75h-.29V10Z" transform="translate(-1.93 -4.26)"/><path class="cls-1" d="M66.49,9.67V10h.17v.2h-.17v.62a.15.15,0,0,0,0,.1.13.13,0,0,0,.08,0h.07v.2h-.33a.19.19,0,0,1-.09-.05.19.19,0,0,1,0-.09.61.61,0,0,1,0-.14v-.66h-.15V10h.15V9.67Z" transform="translate(-1.93 -4.26)"/><path class="cls-1" d="M9.46,30.69h0v-1h.28v1.52H9.39L9,30.11H9v1.06H8.74V29.65h.35Z" transform="translate(-1.93 -4.26)"/><path class="cls-1" d="M10,30.35a.43.43,0,0,1,0-.17.48.48,0,0,1,.09-.11l.13-.06h.15l.21,0a.32.32,0,0,1,.13.07.24.24,0,0,1,.06.11.76.76,0,0,1,0,.15V31c0,.05,0,.09,0,.12l0,.1h-.28a.14.14,0,0,1,0-.06.13.13,0,0,1,0-.06h0a.21.21,0,0,1-.12.11.4.4,0,0,1-.17,0,.28.28,0,0,1-.13,0,.27.27,0,0,1-.08-.07A.37.37,0,0,1,9.94,31a.37.37,0,0,1,0-.11.61.61,0,0,1,0-.14.21.21,0,0,1,.06-.1.27.27,0,0,1,.08-.07l.13,0,.17,0a.19.19,0,0,0,.09,0,.11.11,0,0,0,0-.08.11.11,0,0,0-.14-.14.11.11,0,0,0-.1,0,.15.15,0,0,0,0,.1v0H10Zm.47.28-.06,0a.32.32,0,0,0-.13.07.21.21,0,0,0,0,.12.2.2,0,0,0,0,.11.11.11,0,0,0,.09.05h.06l.06,0,0-.06a.19.19,0,0,0,0-.08V30.6Z" transform="translate(-1.93 -4.26)"/><path class="cls-1" d="M11.36,29.7V30h.17v.2h-.17v.61a.22.22,0,0,0,0,.1s0,0,.08,0h.07v.21H11.2a.11.11,0,0,1-.08-.05.19.19,0,0,1,0-.09.57.57,0,0,1,0-.14v-.65h-.15V30h.15V29.7Z" transform="translate(-1.93 -4.26)"/><path class="cls-1" d="M12,29.64v.25h-.3v-.25ZM12,30v1.14h-.3V30Z" transform="translate(-1.93 -4.26)"/><path class="cls-1" d="M12.17,30.34a.47.47,0,0,1,.07-.19.3.3,0,0,1,.14-.11.46.46,0,0,1,.21,0,.69.69,0,0,1,.22,0,.38.38,0,0,1,.14.11.62.62,0,0,1,.07.19,1.77,1.77,0,0,1,0,.53.49.49,0,0,1-.08.18.26.26,0,0,1-.14.11.41.41,0,0,1-.21,0,.69.69,0,0,1-.22,0,.3.3,0,0,1-.13-.12.43.43,0,0,1-.08-.18,2.11,2.11,0,0,1,0-.26A1,1,0,0,1,12.17,30.34Zm.27.42a.37.37,0,0,0,0,.12.19.19,0,0,0,0,.09.11.11,0,0,0,.08,0,.15.15,0,0,0,.13-.1,1.05,1.05,0,0,0,0-.3,1.09,1.09,0,0,0,0-.31.14.14,0,0,0-.13-.09.08.08,0,0,0-.08,0,.12.12,0,0,0,0,.08.39.39,0,0,0,0,.13v.32Z" transform="translate(-1.93 -4.26)"/><path class="cls-1" d="M13.5,30v.13h0a.23.23,0,0,1,.12-.12.33.33,0,0,1,.17,0,.29.29,0,0,1,.22.07.36.36,0,0,1,.07.25v.85h-.29v-.79a.17.17,0,0,0,0-.12.1.1,0,0,0-.09,0c-.11,0-.16.06-.16.19v.76h-.29V30Z" transform="translate(-1.93 -4.26)"/><path class="cls-1" d="M14.3,30.35a.43.43,0,0,1,0-.17.31.31,0,0,1,.09-.11l.12-.06h.16l.21,0a.35.35,0,0,1,.12.07.24.24,0,0,1,.06.11.39.39,0,0,1,0,.15V31a.41.41,0,0,0,0,.12.22.22,0,0,0,0,.1h-.28l0-.06a.13.13,0,0,0,0-.06h0a.3.3,0,0,1-.12.11.4.4,0,0,1-.17,0,.25.25,0,0,1-.13,0,.22.22,0,0,1-.09-.07.68.68,0,0,1-.06-.22.59.59,0,0,1,0-.14.31.31,0,0,1,.05-.1.22.22,0,0,1,.09-.07l.13,0,.16,0a.12.12,0,0,0,.12-.13.18.18,0,0,0,0-.11.15.15,0,0,0-.1,0,.14.14,0,0,0-.11,0,.15.15,0,0,0,0,.1v0H14.3Zm.47.28-.06,0a.26.26,0,0,0-.13.07.16.16,0,0,0,0,.12.2.2,0,0,0,0,.11.08.08,0,0,0,.08.05h.06l.06,0a.21.21,0,0,0,0-.06.11.11,0,0,0,0-.08V30.6Z" transform="translate(-1.93 -4.26)"/><path class="cls-1" d="M15.64,29.65v1.52h-.29V29.65Z" transform="translate(-1.93 -4.26)"/><path class="cls-1" d="M17,29.92c0-.05-.07-.07-.14-.07a.12.12,0,0,0-.09,0,.14.14,0,0,0-.06.1.42.42,0,0,0,0,.18,2.1,2.1,0,0,0,0,.27,2.27,2.27,0,0,0,0,.28.53.53,0,0,0,0,.16.1.1,0,0,0,.06.08l.09,0H17L17,30.9a.28.28,0,0,0,0-.12.84.84,0,0,0,0-.19h.3a1.64,1.64,0,0,1,0,.23.54.54,0,0,1-.07.19.28.28,0,0,1-.15.13.54.54,0,0,1-.24.05.51.51,0,0,1-.27-.06.39.39,0,0,1-.16-.15.66.66,0,0,1-.07-.25c0-.1,0-.21,0-.32s0-.22,0-.32a.66.66,0,0,1,.07-.25.41.41,0,0,1,.16-.16.51.51,0,0,1,.27-.06.5.5,0,0,1,.26.06.35.35,0,0,1,.14.13.48.48,0,0,1,.06.18c0,.06,0,.12,0,.17h-.31A.49.49,0,0,0,17,29.92Z" transform="translate(-1.93 -4.26)"/><path class="cls-1" d="M17.84,30v.15h0a.36.36,0,0,1,.11-.13A.2.2,0,0,1,18.1,30h.06v.28H18a.09.09,0,0,0-.07,0l-.05.06a.3.3,0,0,0,0,.1v.69h-.29V30Z" transform="translate(-1.93 -4.26)"/><path class="cls-1" d="M18.53,30.73s0,.07,0,.1,0,.06,0,.09,0,0,.05,0a.09.09,0,0,0,.07,0,.13.13,0,0,0,.11-.06.4.4,0,0,0,0-.16h.26a.36.36,0,0,1-.41.41.58.58,0,0,1-.25-.05A.43.43,0,0,1,18.3,31a.65.65,0,0,1-.05-.2,1.48,1.48,0,0,1,0-.21,1.79,1.79,0,0,1,0-.23.48.48,0,0,1,.06-.18.38.38,0,0,1,.14-.14.53.53,0,0,1,.23,0,.41.41,0,0,1,.21,0,.28.28,0,0,1,.13.11.53.53,0,0,1,.06.19.9.9,0,0,1,0,.24v.06h-.58Zm.29-.38a.19.19,0,0,0,0-.08.13.13,0,0,0,0-.06h-.08a.08.08,0,0,0-.07,0l-.05.05s0,.05,0,.07,0,.06,0,.08v0h.3A.41.41,0,0,0,18.82,30.35Z" transform="translate(-1.93 -4.26)"/><path class="cls-1" d="M19.87,31a.33.33,0,0,1-.11.12.33.33,0,0,1-.15,0,.31.31,0,0,1-.27-.14,1,1,0,0,1-.08-.45,1,1,0,0,1,.08-.46.29.29,0,0,1,.27-.14.25.25,0,0,1,.24.13h0v-.48h.29v1.52h-.28V31Zm-.29-.16a.12.12,0,0,0,.12.09.12.12,0,0,0,.13-.09,1,1,0,0,0,0-.28.94.94,0,0,0,0-.28.12.12,0,0,0-.13-.1.12.12,0,0,0-.12.1.94.94,0,0,0,0,.28A1,1,0,0,0,19.58,30.88Z" transform="translate(-1.93 -4.26)"/><path class="cls-1" d="M20.67,29.64v.25h-.29v-.25Zm0,.39v1.14h-.29V30Z" transform="translate(-1.93 -4.26)"/><path class="cls-1" d="M21.25,29.7V30h.17v.2h-.17v.61a.22.22,0,0,0,0,.1s0,0,.08,0h.07v.21h-.33a.11.11,0,0,1-.08-.05A.19.19,0,0,1,21,31a.57.57,0,0,1,0-.14v-.65h-.15V30H21V29.7Z" transform="translate(-1.93 -4.26)"/><path class="cls-1" d="M22.37,30.71v.1a.94.94,0,0,0,0,.09s0,0,.06.05l.08,0,.09,0s0,0,.06-.05a.24.24,0,0,0,0-.09.31.31,0,0,0,0-.1V29.65H23v1.06A.86.86,0,0,1,23,31a.58.58,0,0,1-.11.15.46.46,0,0,1-.16.07l-.18,0-.18,0a.3.3,0,0,1-.15-.07A.31.31,0,0,1,22.1,31a.62.62,0,0,1,0-.25V29.65h.31Z" transform="translate(-1.93 -4.26)"/><path class="cls-1" d="M23.51,30v.13h0a.23.23,0,0,1,.12-.12.31.31,0,0,1,.17,0,.28.28,0,0,1,.21.07.36.36,0,0,1,.08.25v.85h-.3v-.79a.17.17,0,0,0,0-.12s-.05,0-.09,0-.15.06-.15.19v.76h-.3V30Z" transform="translate(-1.93 -4.26)"/><path class="cls-1" d="M24.62,29.64v.25h-.3v-.25Zm0,.39v1.14h-.3V30Z" transform="translate(-1.93 -4.26)"/><path class="cls-1" d="M24.83,30.34a.47.47,0,0,1,.07-.19A.3.3,0,0,1,25,30a.46.46,0,0,1,.21,0,.69.69,0,0,1,.22,0,.31.31,0,0,1,.14.11.62.62,0,0,1,.07.19,1.14,1.14,0,0,1,0,.27,2.11,2.11,0,0,1,0,.26.49.49,0,0,1-.08.18.26.26,0,0,1-.14.11.41.41,0,0,1-.21,0,.73.73,0,0,1-.22,0A.3.3,0,0,1,24.9,31a.33.33,0,0,1-.07-.18,1.09,1.09,0,0,1,0-.26A1,1,0,0,1,24.83,30.34Zm.27.42a.37.37,0,0,0,0,.12.19.19,0,0,0,.05.09.11.11,0,0,0,.08,0,.15.15,0,0,0,.13-.1,1.05,1.05,0,0,0,0-.3,1.09,1.09,0,0,0,0-.31.14.14,0,0,0-.13-.09.08.08,0,0,0-.08,0,.12.12,0,0,0-.05.08.39.39,0,0,0,0,.13v.32Z" transform="translate(-1.93 -4.26)"/><path class="cls-1" d="M26.16,30v.13h0a.23.23,0,0,1,.12-.12.33.33,0,0,1,.17,0,.29.29,0,0,1,.22.07.36.36,0,0,1,.07.25v.85h-.29v-.79a.17.17,0,0,0,0-.12.1.1,0,0,0-.09,0c-.11,0-.16.06-.16.19v.76h-.29V30Z" transform="translate(-1.93 -4.26)"/><path class="cls-1" d="M28.09,29.65l.4,1.52h-.32l-.07-.32h-.4l-.07.32h-.32l.4-1.52Zm0,1-.15-.68h0l-.15.68Z" transform="translate(-1.93 -4.26)"/><path class="cls-1" d="M29.19,31a.26.26,0,0,1-.11.12.33.33,0,0,1-.15,0,.28.28,0,0,1-.26-.14.84.84,0,0,1-.09-.45.86.86,0,0,1,.09-.46.26.26,0,0,1,.26-.14.29.29,0,0,1,.14,0,.35.35,0,0,1,.11.1h0v-.48h.29v1.52h-.28V31Zm-.29-.16A.12.12,0,0,0,29,31a.12.12,0,0,0,.12-.09,1,1,0,0,0,0-.28.94.94,0,0,0,0-.28.12.12,0,0,0-.12-.1.12.12,0,0,0-.13.1,1,1,0,0,0,0,.28A1.1,1.1,0,0,0,28.9,30.88Z" transform="translate(-1.93 -4.26)"/><path class="cls-1" d="M30,30v.11h0A.33.33,0,0,1,30.1,30a.38.38,0,0,1,.16,0,.29.29,0,0,1,.17,0,.22.22,0,0,1,.09.14h0a.26.26,0,0,1,.11-.14.34.34,0,0,1,.18,0,.24.24,0,0,1,.21.08.4.4,0,0,1,.07.26v.83h-.29v-.8a.16.16,0,0,0,0-.11s0,0-.09,0a.16.16,0,0,0-.11.05.27.27,0,0,0,0,.15v.75h-.29v-.8a.16.16,0,0,0,0-.11.08.08,0,0,0-.08,0,.17.17,0,0,0-.12.05.27.27,0,0,0,0,.15v.75h-.29V30Z" transform="translate(-1.93 -4.26)"/><path class="cls-1" d="M31.62,29.64v.25h-.29v-.25Zm0,.39v1.14h-.29V30Z" transform="translate(-1.93 -4.26)"/><path class="cls-1" d="M32.13,30v.13h0a.23.23,0,0,1,.12-.12.33.33,0,0,1,.17,0,.31.31,0,0,1,.22.07.36.36,0,0,1,.07.25v.85h-.29v-.79a.17.17,0,0,0,0-.12.11.11,0,0,0-.1,0c-.1,0-.15.06-.15.19v.76h-.29V30Z" transform="translate(-1.93 -4.26)"/><path class="cls-1" d="M33.23,29.64v.25h-.29v-.25Zm0,.39v1.14h-.29V30Z" transform="translate(-1.93 -4.26)"/><path class="cls-1" d="M33.67,30.83a.16.16,0,0,0,0,.12.13.13,0,0,0,.11.05.18.18,0,0,0,.11,0,.11.11,0,0,0,0-.1.1.1,0,0,0,0-.08l-.08-.05-.2-.07a.41.41,0,0,1-.18-.12.32.32,0,0,1-.06-.2.27.27,0,0,1,0-.13.26.26,0,0,1,.07-.11.57.57,0,0,1,.13-.08l.2,0a.4.4,0,0,1,.29.08.32.32,0,0,1,.09.24v.05H34a.23.23,0,0,0,0-.13.11.11,0,0,0-.1,0s-.07,0-.09,0a.1.1,0,0,0,0,.09.12.12,0,0,0,0,.08.19.19,0,0,0,.1.05l.18.06a.39.39,0,0,1,.19.12.33.33,0,0,1,.06.21.41.41,0,0,1,0,.16.32.32,0,0,1-.22.17l-.17,0-.21,0a.4.4,0,0,1-.13-.07.27.27,0,0,1-.06-.12.34.34,0,0,1,0-.15v0h.26Z" transform="translate(-1.93 -4.26)"/><path class="cls-1" d="M34.77,29.7V30h.17v.2h-.17v.61a.22.22,0,0,0,0,.1.11.11,0,0,0,.09,0h.06v.21h-.33a.14.14,0,0,1-.08-.05.19.19,0,0,1,0-.09.57.57,0,0,1,0-.14v-.65h-.15V30h.15V29.7Z" transform="translate(-1.93 -4.26)"/><path class="cls-1" d="M35.35,30v.15h0a.36.36,0,0,1,.11-.13.2.2,0,0,1,.15-.05h.06v.28H35.5a.09.09,0,0,0-.07,0l0,.06a.16.16,0,0,0,0,.1v.69h-.29V30Z" transform="translate(-1.93 -4.26)"/><path class="cls-1" d="M35.79,30.35a.43.43,0,0,1,0-.17.31.31,0,0,1,.09-.11L36,30h.16l.21,0a.32.32,0,0,1,.13.07.24.24,0,0,1,.06.11.76.76,0,0,1,0,.15V31a.41.41,0,0,0,0,.12.54.54,0,0,0,0,.1h-.28a.14.14,0,0,1,0-.06s0,0,0-.06h0a.21.21,0,0,1-.12.11.4.4,0,0,1-.17,0,.28.28,0,0,1-.13,0,.19.19,0,0,1-.08-.07.22.22,0,0,1,0-.11.36.36,0,0,1,0-.11.59.59,0,0,1,0-.14.31.31,0,0,1,0-.1l.09-.07.13,0,.17,0a.19.19,0,0,0,.09,0,.19.19,0,0,0,0-.08.18.18,0,0,0,0-.11.13.13,0,0,0-.1,0,.11.11,0,0,0-.1,0,.12.12,0,0,0,0,.1v0h-.26Zm.47.28-.06,0a.32.32,0,0,0-.13.07.21.21,0,0,0,0,.12.2.2,0,0,0,0,.11.09.09,0,0,0,.08.05h.06l.06,0,.05-.06a.19.19,0,0,0,0-.08V30.6Z" transform="translate(-1.93 -4.26)"/><path class="cls-1" d="M37.19,29.7V30h.17v.2h-.17v.61c0,.05,0,.08,0,.1s0,0,.08,0h.07v.21H37a.13.13,0,0,1-.09-.05.19.19,0,0,1,0-.09.52.52,0,0,1,0-.14v-.65h-.14V30h.14V29.7Z" transform="translate(-1.93 -4.26)"/><path class="cls-1" d="M37.78,29.64v.25h-.29v-.25Zm0,.39v1.14h-.29V30Z" transform="translate(-1.93 -4.26)"/><path class="cls-1" d="M38,30.34a.68.68,0,0,1,.08-.19.3.3,0,0,1,.14-.11.46.46,0,0,1,.21,0,.69.69,0,0,1,.22,0,.38.38,0,0,1,.14.11,1.07,1.07,0,0,1,.07.19,1.77,1.77,0,0,1,0,.53.75.75,0,0,1-.08.18.3.3,0,0,1-.14.11.46.46,0,0,1-.21,0,.69.69,0,0,1-.22,0,.32.32,0,0,1-.14-.12.61.61,0,0,1-.07-.18,2.11,2.11,0,0,1,0-.26A1.84,1.84,0,0,1,38,30.34Zm.28.42a.37.37,0,0,0,0,.12.13.13,0,0,0,.05.09.1.1,0,0,0,.08,0,.13.13,0,0,0,.12-.1.74.74,0,0,0,0-.3.76.76,0,0,0,0-.31.12.12,0,0,0-.12-.09s-.06,0-.08,0,0,0-.05.08a.39.39,0,0,0,0,.13.76.76,0,0,0,0,.16A.86.86,0,0,0,38.27,30.76Z" transform="translate(-1.93 -4.26)"/><path class="cls-1" d="M39.33,30v.13h0a.23.23,0,0,1,.12-.12.33.33,0,0,1,.17,0,.31.31,0,0,1,.22.07.36.36,0,0,1,.07.25v.85h-.29v-.79a.17.17,0,0,0,0-.12.11.11,0,0,0-.1,0c-.1,0-.15.06-.15.19v.76h-.29V30Z" transform="translate(-1.93 -4.26)"/><path class="cls-1" d="M40.42,31.11a.76.76,0,0,1,0,.15.34.34,0,0,1,0,.12.26.26,0,0,1-.09.09.39.39,0,0,1-.14,0v-.15a.15.15,0,0,0,.09-.06.2.2,0,0,0,0-.11v0h-.11v-.33h.28Z" transform="translate(-1.93 -4.26)"/><path class="cls-1" d="M41.11,30.35a.43.43,0,0,1,0-.17.44.44,0,0,1,.08-.11l.13-.06h.16l.21,0a.35.35,0,0,1,.12.07.24.24,0,0,1,.06.11.77.77,0,0,1,0,.15V31a.41.41,0,0,0,0,.12.22.22,0,0,0,0,.1h-.28l0-.06s0,0,0-.06h0a.23.23,0,0,1-.11.11.45.45,0,0,1-.18,0,.21.21,0,0,1-.12,0,.22.22,0,0,1-.09-.07.37.37,0,0,1-.05-.11.37.37,0,0,1,0-.11.59.59,0,0,1,0-.14.31.31,0,0,1,0-.1.22.22,0,0,1,.09-.07l.13,0,.16,0a.13.13,0,0,0,.09,0,.11.11,0,0,0,0-.08.18.18,0,0,0,0-.11.16.16,0,0,0-.11,0,.12.12,0,0,0-.1,0,.15.15,0,0,0,0,.1v0h-.26Zm.47.28-.07,0a.27.27,0,0,0-.12.07.16.16,0,0,0,0,.12.36.36,0,0,0,0,.11.11.11,0,0,0,.09.05h.06l.06,0a.21.21,0,0,0,0-.06.19.19,0,0,0,0-.08V30.6Z" transform="translate(-1.93 -4.26)"/><path class="cls-1" d="M43,30.71a.31.31,0,0,0,0,.1.14.14,0,0,0,0,.09.12.12,0,0,0,.05.05l.09,0,.09,0a.12.12,0,0,0,0-.05.24.24,0,0,0,0-.09s0-.06,0-.1V29.65h.3v1.06a.61.61,0,0,1,0,.24.33.33,0,0,1-.11.15.35.35,0,0,1-.15.07l-.18,0-.18,0a.33.33,0,0,1-.16-.07.3.3,0,0,1-.1-.14.62.62,0,0,1,0-.25V29.65H43Z" transform="translate(-1.93 -4.26)"/><path class="cls-1" d="M44.13,31.17h-.28v-.33h.28Z" transform="translate(-1.93 -4.26)"/><path class="cls-1" d="M44.62,30.74a.28.28,0,0,0,0,.09l0,.08.06,0,.1,0a.28.28,0,0,0,.13,0,.17.17,0,0,0,0-.15.19.19,0,0,0,0-.08.16.16,0,0,0,0-.07.26.26,0,0,0-.09-.05l-.13-.06-.17-.07a.6.6,0,0,1-.13-.09.54.54,0,0,1-.07-.13.7.7,0,0,1,0-.16.45.45,0,0,1,.12-.34.59.59,0,0,1,.53-.08.35.35,0,0,1,.25.2.48.48,0,0,1,0,.18v0H45a.24.24,0,0,0,0-.16.13.13,0,0,0-.12-.06h-.09l0,0a.09.09,0,0,0,0,.06.13.13,0,0,0,0,.06.21.21,0,0,0,0,.12.29.29,0,0,0,.13.09l.23.1.15.08.08.09a.22.22,0,0,1,.05.11.45.45,0,0,1,0,.12.4.4,0,0,1-.14.35.61.61,0,0,1-.38.11.51.51,0,0,1-.37-.11.43.43,0,0,1-.11-.32v-.07h.3Z" transform="translate(-1.93 -4.26)"/><path class="cls-1" d="M45.78,31.17H45.5v-.33h.28Z" transform="translate(-1.93 -4.26)"/><path class="cls-1" d="M47.14,30l0-.09-.06-.06-.08,0a.16.16,0,0,0-.15.12,1,1,0,0,0,0,.41,1.77,1.77,0,0,0,0,.24.5.5,0,0,0,0,.19.23.23,0,0,0,.06.12A.14.14,0,0,0,47,31H47l.06-.05,0-.07a.36.36,0,0,0,0-.11v-.15H47v-.23h.5v.82h-.23V31h0a.29.29,0,0,1-.13.12.41.41,0,0,1-.19,0,.52.52,0,0,1-.23-.05.34.34,0,0,1-.14-.15.83.83,0,0,1-.06-.25,3.49,3.49,0,0,1,0-.35,1.61,1.61,0,0,1,0-.33.52.52,0,0,1,.08-.24.33.33,0,0,1,.16-.15.54.54,0,0,1,.24-.05.46.46,0,0,1,.36.13.52.52,0,0,1,.11.35h-.29S47.14,30,47.14,30Z" transform="translate(-1.93 -4.26)"/><path class="cls-1" d="M47.65,30.34a.47.47,0,0,1,.08-.19.26.26,0,0,1,.14-.11.41.41,0,0,1,.21,0,.69.69,0,0,1,.22,0,.35.35,0,0,1,.13.11.64.64,0,0,1,.08.19,2.13,2.13,0,0,1,0,.27,1.09,1.09,0,0,1,0,.26.48.48,0,0,1-.07.18.3.3,0,0,1-.14.11.46.46,0,0,1-.21,0,.69.69,0,0,1-.22,0,.32.32,0,0,1-.14-.12.42.42,0,0,1-.07-.18,2.11,2.11,0,0,1,0-.26A1.84,1.84,0,0,1,47.65,30.34Zm.27.42a1,1,0,0,0,0,.12A.19.19,0,0,0,48,31a.12.12,0,0,0,.09,0,.13.13,0,0,0,.12-.1,1.05,1.05,0,0,0,0-.3,1.09,1.09,0,0,0,0-.31.12.12,0,0,0-.12-.09s-.07,0-.09,0,0,0,0,.08a.86.86,0,0,0,0,.13v.32Z" transform="translate(-1.93 -4.26)"/><path class="cls-1" d="M49.54,30l-.29,1.14h-.34L48.62,30h.3l.17.81h0l.16-.81Z" transform="translate(-1.93 -4.26)"/><path class="cls-1" d="M49.92,30.73v.1l0,.09a.1.1,0,0,0,0,0,.09.09,0,0,0,.07,0,.11.11,0,0,0,.11-.06.28.28,0,0,0,0-.16h.27a.46.46,0,0,1-.11.31.44.44,0,0,1-.31.1.54.54,0,0,1-.24-.05.34.34,0,0,1-.13-.14.66.66,0,0,1-.06-.2c0-.07,0-.14,0-.21a1.79,1.79,0,0,1,0-.23.48.48,0,0,1,.06-.18.38.38,0,0,1,.14-.14.55.55,0,0,1,.24,0,.46.46,0,0,1,.21,0,.32.32,0,0,1,.12.11.54.54,0,0,1,.07.19,1.77,1.77,0,0,1,0,.24v.06h-.57Zm.29-.38,0-.08a.13.13,0,0,0,0-.06h-.07a.11.11,0,0,0-.08,0,.1.1,0,0,0,0,.05l0,.07v.13h.29Z" transform="translate(-1.93 -4.26)"/><path class="cls-1" d="M51,30v.15h0a.36.36,0,0,1,.11-.13.2.2,0,0,1,.15-.05h.06v.28H51.1a.09.09,0,0,0-.07,0l-.05.06a.3.3,0,0,0,0,.1v.69h-.29V30Z" transform="translate(-1.93 -4.26)"/><path class="cls-1" d="M51.67,30v.13h0A.23.23,0,0,1,51.8,30,.31.31,0,0,1,52,30a.28.28,0,0,1,.21.07.36.36,0,0,1,.08.25v.85H52v-.79c0-.06,0-.1,0-.12a.12.12,0,0,0-.1,0c-.1,0-.15.06-.15.19v.76h-.3V30Z" transform="translate(-1.93 -4.26)"/><path class="cls-1" d="M52.75,30v.11h0a.31.31,0,0,1,.12-.11.43.43,0,0,1,.17,0,.33.33,0,0,1,.17,0,.34.34,0,0,1,.09.14h0a.31.31,0,0,1,.11-.14.34.34,0,0,1,.18,0,.26.26,0,0,1,.22.08.48.48,0,0,1,.06.26v.83h-.29v-.8c0-.05,0-.09,0-.11a.1.1,0,0,0-.09,0,.13.13,0,0,0-.11.05.21.21,0,0,0,0,.15v.75H53v-.8c0-.05,0-.09,0-.11a.1.1,0,0,0-.09,0,.14.14,0,0,0-.11.05.21.21,0,0,0,0,.15v.75h-.3V30Z" transform="translate(-1.93 -4.26)"/><path class="cls-1" d="M54.35,30.73a.31.31,0,0,0,0,.1.29.29,0,0,0,0,.09.12.12,0,0,0,0,0,.09.09,0,0,0,.06,0,.11.11,0,0,0,.11-.06.27.27,0,0,0,0-.16h.26a.36.36,0,0,1-.41.41.55.55,0,0,1-.25-.05.43.43,0,0,1-.13-.14.46.46,0,0,1,0-.2,1.48,1.48,0,0,1,0-.21,1.77,1.77,0,0,1,0-.23.75.75,0,0,1,.07-.18.35.35,0,0,1,.13-.14.55.55,0,0,1,.24,0,.41.41,0,0,1,.21,0,.35.35,0,0,1,.13.11.53.53,0,0,1,.06.19,1.66,1.66,0,0,1,0,.24v.06h-.58Zm.29-.38a.19.19,0,0,0,0-.08s0,0,0-.06H54.5a.08.08,0,0,0-.07,0,.12.12,0,0,0,0,.05.19.19,0,0,0,0,.07.25.25,0,0,0,0,.08v0h.3S54.64,30.38,54.64,30.35Z" transform="translate(-1.93 -4.26)"/><path class="cls-1" d="M55.38,30v.13h0a.23.23,0,0,1,.12-.12.31.31,0,0,1,.17,0,.28.28,0,0,1,.21.07.36.36,0,0,1,.08.25v.85h-.3v-.79a.17.17,0,0,0,0-.12.1.1,0,0,0-.09,0c-.1,0-.15.06-.15.19v.76h-.3V30Z" transform="translate(-1.93 -4.26)"/><path class="cls-1" d="M56.54,29.7V30h.17v.2h-.17v.61c0,.05,0,.08,0,.1s0,0,.08,0h.07v.21h-.33a.11.11,0,0,1-.08-.05.13.13,0,0,1,0-.09.57.57,0,0,1,0-.14v-.65H56.1V30h.15V29.7Z" transform="translate(-1.93 -4.26)"/><path class="cls-1" d="M58,29.65l.4,1.52H58L58,30.85h-.4l-.07.32h-.32l.4-1.52Zm0,1-.14-.68h0l-.14.68Z" transform="translate(-1.93 -4.26)"/><path class="cls-1" d="M59.33,31.11a.45.45,0,0,1-.1.33.54.54,0,0,1-.37.11.5.5,0,0,1-.29-.08.29.29,0,0,1-.1-.23h.28a.11.11,0,0,0,0,.09l0,0h0A.15.15,0,0,0,59,31.3a.26.26,0,0,0,0-.14V31h0a.21.21,0,0,1-.11.1.22.22,0,0,1-.13,0,.27.27,0,0,1-.26-.13.83.83,0,0,1-.09-.44,1.48,1.48,0,0,1,0-.21.48.48,0,0,1,.05-.18.3.3,0,0,1,.11-.14.26.26,0,0,1,.18-.05.28.28,0,0,1,.13,0,.22.22,0,0,1,.11.12h0V30h.28Zm-.58-.37,0,.1a.09.09,0,0,0,0,.06.11.11,0,0,0,.08,0,.09.09,0,0,0,.07,0,.1.1,0,0,0,.05-.06l0-.11V30.6a.93.93,0,0,0,0-.29.12.12,0,0,0-.12-.09l-.08,0a.16.16,0,0,0,0,.07.86.86,0,0,0,0,.13v.3Z" transform="translate(-1.93 -4.26)"/><path class="cls-1" d="M59.81,30.73a.31.31,0,0,0,0,.1.29.29,0,0,0,0,.09.12.12,0,0,0,0,0A.09.09,0,0,0,60,31a.11.11,0,0,0,.11-.06.27.27,0,0,0,0-.16h.26a.36.36,0,0,1-.41.41.55.55,0,0,1-.25-.05.43.43,0,0,1-.13-.14.46.46,0,0,1,0-.2,1.48,1.48,0,0,1,0-.21,1.77,1.77,0,0,1,0-.23.48.48,0,0,1,.07-.18.44.44,0,0,1,.13-.14A.55.55,0,0,1,60,30a.41.41,0,0,1,.21,0,.28.28,0,0,1,.13.11.53.53,0,0,1,.06.19,1.66,1.66,0,0,1,0,.24v.06h-.58Zm.29-.38a.19.19,0,0,0,0-.08s0,0,0-.06H60a.08.08,0,0,0-.07,0,.12.12,0,0,0,0,.05.19.19,0,0,0,0,.07.25.25,0,0,0,0,.08v0h.3S60.1,30.38,60.1,30.35Z" transform="translate(-1.93 -4.26)"/><path class="cls-1" d="M60.84,30v.13h0A.23.23,0,0,1,61,30a.31.31,0,0,1,.17,0,.28.28,0,0,1,.21.07.36.36,0,0,1,.08.25v.85h-.3v-.79a.17.17,0,0,0,0-.12s-.05,0-.09,0-.15.06-.15.19v.76h-.3V30Z" transform="translate(-1.93 -4.26)"/><path class="cls-1" d="M62.19,30.35s0-.05,0-.07l0-.05a.08.08,0,0,0-.07,0l-.09,0a.18.18,0,0,0,0,.07.51.51,0,0,0,0,.13.81.81,0,0,0,0,.17,1,1,0,0,0,0,.18.37.37,0,0,0,0,.12A.1.1,0,0,0,62,31a.11.11,0,0,0,.08,0,.12.12,0,0,0,.11-.07.49.49,0,0,0,0-.2h.28a.49.49,0,0,1-.1.34.42.42,0,0,1-.33.12.6.6,0,0,1-.2,0,.38.38,0,0,1-.13-.09.47.47,0,0,1-.08-.19,1.09,1.09,0,0,1,0-.28,1.26,1.26,0,0,1,0-.3.77.77,0,0,1,.1-.18.45.45,0,0,1,.14-.1l.19,0a.42.42,0,0,1,.31.11.48.48,0,0,1,.1.33h-.28Z" transform="translate(-1.93 -4.26)"/><path class="cls-1" d="M62.68,31.32a.12.12,0,0,0,.11,0,.22.22,0,0,0,.05-.11L62.52,30h.3l.17.78h0l.15-.78h.29l-.27,1.06-.07.23a.33.33,0,0,1-.09.13.19.19,0,0,1-.11.07H62.6v-.22Z" transform="translate(-1.93 -4.26)"/><path class="cls-1" d="M16,15l4.73,7.61h0V15h2.34V26.3H20.57l-4.72-7.59h0V26.3H13.48V15Z" transform="translate(-1.93 -4.26)"/><path class="cls-1" d="M32.53,18a2.59,2.59,0,0,0-.56-.63,2.5,2.5,0,0,0-.75-.42,2.62,2.62,0,0,0-.88-.15,3,3,0,0,0-1.43.32A2.71,2.71,0,0,0,28,18a3.84,3.84,0,0,0-.53,1.24,6.32,6.32,0,0,0-.17,1.45,5.81,5.81,0,0,0,.17,1.39A3.78,3.78,0,0,0,28,23.28a2.77,2.77,0,0,0,1,.87,2.85,2.85,0,0,0,1.43.33,2.32,2.32,0,0,0,1.78-.7,3.3,3.3,0,0,0,.79-1.85h2.41a5.65,5.65,0,0,1-.49,1.93,4.54,4.54,0,0,1-1,1.46,4.42,4.42,0,0,1-1.52.92,5.69,5.69,0,0,1-1.92.32A5.9,5.9,0,0,1,28,26.1a5.06,5.06,0,0,1-1.75-1.24A5.64,5.64,0,0,1,25.14,23a7,7,0,0,1-.38-2.31,7.17,7.17,0,0,1,.38-2.36,5.68,5.68,0,0,1,1.1-1.9A5,5,0,0,1,28,15.15,6.1,6.1,0,0,1,32.11,15a4.74,4.74,0,0,1,1.49.79A4.32,4.32,0,0,1,34.69,17a4.85,4.85,0,0,1,.54,1.75H32.81A1.92,1.92,0,0,0,32.53,18Z" transform="translate(-1.93 -4.26)"/><path class="cls-1" d="M45.36,25.44a5.27,5.27,0,0,1-3.56,1.12,5.17,5.17,0,0,1-3.56-1.12A4.34,4.34,0,0,1,37,22V15h2.5V22a5.5,5.5,0,0,0,.08.91,1.76,1.76,0,0,0,.33.78,1.83,1.83,0,0,0,.71.56,2.87,2.87,0,0,0,1.21.22,2.35,2.35,0,0,0,1.85-.6,2.84,2.84,0,0,0,.5-1.87V15h2.5V22A4.31,4.31,0,0,1,45.36,25.44Z" transform="translate(-1.93 -4.26)"/><path class="cls-1" d="M54.45,15,58.69,26.3H56.1l-.86-2.52H51l-.89,2.52H47.6L51.89,15Zm.14,7-1.43-4.16h0l-1.48,4.16Z" transform="translate(-1.93 -4.26)"/><path class="cls-1" d="M68.91,5.58V33.05H3.26V5.58H68.91m1.33-1.32H1.93V34.37H70.24V4.26Z" transform="translate(-1.93 -4.26)"/></svg>