<?xml version="1.0" standalone="no"?>
<!DOCTYPE svg PUBLIC "-//W3C//DTD SVG 1.1//EN" "http://www.w3.org/Graphics/SVG/1.1/DTD/svg11.dtd" >
<svg xmlns="http://www.w3.org/2000/svg">
<metadata>Generated by IcoMoon</metadata>
<defs>
<font id="streamline" horiz-adv-x="1024">
<font-face units-per-em="1024" ascent="960" descent="-64" />
<missing-glyph horiz-adv-x="1024" />
<glyph unicode="&#x20;" horiz-adv-x="512" d="" />
<glyph unicode="&#xe900;" glyph-name="sl-icon-facebook" d="M773.973 654.080c-3.877 4.398-9.5 7.18-15.774 7.253h-160.866v60.16c0 11.947 2.56 25.6 21.76 25.6h128c0.239-0.011 0.518-0.017 0.8-0.017 5.626 0 10.675 2.475 14.115 6.396l0.018 0.021c3.629 3.76 5.891 8.862 5.973 14.491v170.683c0 11.782-9.551 21.333-21.333 21.333v0h-184.747c-204.8 0-220.587-174.933-220.587-228.267v-70.4h-106.667c-11.782 0-21.333-9.551-21.333-21.333v0-170.667c0-11.782 9.551-21.333 21.333-21.333v0h106.667v-490.667c0-11.782 9.551-21.333 21.333-21.333v0h213.333c11.782 0 21.333 9.551 21.333 21.333v0 490.667h142.933c0.032 0 0.069 0 0.107 0 11.031 0 20.106 8.372 21.219 19.109l0.008 0.092 17.92 170.667c0.048 0.534 0.075 1.155 0.075 1.783 0 5.572-2.136 10.646-5.635 14.446l0.014-0.015z" />
<glyph unicode="&#xe901;" glyph-name="sl-icon-instagram" d="M746.667 960h-469.333c-153.069-0.242-277.091-124.264-277.333-277.31v-469.357c0.242-153.069 124.264-277.091 277.31-277.333h469.357c153.069 0.242 277.091 124.264 277.333 277.31v469.357c-0.242 153.069-124.264 277.091-277.31 277.333h-0.024zM512 213.333c-129.603 0-234.667 105.064-234.667 234.667s105.064 234.667 234.667 234.667c129.603 0 234.667-105.064 234.667-234.667v0c0-129.603-105.064-234.667-234.667-234.667v0zM789.333 682.667c-35.346 0-64 28.654-64 64s28.654 64 64 64c35.346 0 64-28.654 64-64v0c0-35.346-28.654-64-64-64v0z" />
<glyph unicode="&#xe902;" glyph-name="sl-icon-linkedin" d="M85.333 597.333h213.333v-597.333h-213.333zM85.333 789.333c0-58.91 47.374-106.667 105.813-106.667s105.813 47.756 105.813 106.667v0c0 58.91-47.374 106.667-105.813 106.667s-105.813-47.756-105.813-106.667v0zM789.333 0h128c11.782 0 21.333 9.551 21.333 21.333v0 358.4c0 160.853-90.88 238.933-218.027 238.933-1.958 0.076-4.256 0.12-6.565 0.12-50.44 0-96.024-20.79-128.651-54.268l-0.037-0.038c-3.225-3.712-7.954-6.045-13.227-6.045-9.661 0-17.493 7.832-17.493 17.493 0 0.025 0 0.050 0 0.075v-0.004c0 11.782-9.551 21.333-21.333 21.333v0h-128c-11.782 0-21.333-9.551-21.333-21.333v0-554.667c0-11.782 9.551-21.333 21.333-21.333v0h128c11.782 0 21.333 9.551 21.333 21.333v0 320c0 58.91 47.756 106.667 106.667 106.667s106.667-47.756 106.667-106.667v0-320c0-11.782 9.551-21.333 21.333-21.333v0z" />
<glyph unicode="&#xe903;" glyph-name="sl-icon-twitter" d="M994.987 685.227c4.717 3.941 7.697 9.825 7.697 16.406 0 9.97-6.84 18.343-16.083 20.682l-0.147 0.032-33.707 8.533c-9.351 2.399-16.152 10.753-16.152 20.695 0 3.333 0.765 6.488 2.128 9.299l-0.056-0.127 18.773 37.973c1.335 2.707 2.116 5.894 2.116 9.262 0 11.782-9.551 21.333-21.333 21.333-1.966 0-3.871-0.266-5.679-0.764l0.15 0.035-85.333-23.893c-1.789-0.542-3.845-0.853-5.973-0.853-4.827 0-9.279 1.603-12.854 4.306l0.054-0.039c-35.21 26.637-79.733 42.667-128 42.667v0c-117.821 0-213.333-95.513-213.333-213.333v0-15.36c0-0.023 0-0.050 0-0.077 0-5.44-4.072-9.929-9.335-10.584l-0.052-0.005c-119.893-14.080-234.667 46.933-358.4 189.44-3.996 4.395-9.737 7.144-16.12 7.144-2.006 0-3.948-0.271-5.793-0.779l0.153 0.036c-6.956-3.253-11.81-9.959-12.369-17.852l-0.004-0.068c-5.831-22.972-9.177-49.344-9.177-76.498 0-48.355 10.612-94.231 29.634-135.427l-0.83 2.005c0.722-1.4 1.146-3.055 1.146-4.81 0-5.891-4.776-10.667-10.667-10.667-0.555 0-1.1 0.042-1.632 0.124l0.059-0.008-47.787 9.387c-1.018 0.172-2.191 0.27-3.386 0.27-11.782 0-21.333-9.551-21.333-21.333 0-1.454 0.146-2.875 0.423-4.247l-0.023 0.137c7.882-68.156 45.926-126.063 100.236-160.752l0.884-0.528c3.59-1.768 6.017-5.4 6.017-9.6s-2.427-7.832-5.955-9.572l-0.063-0.028-22.613-8.96c-7.918-3.236-13.395-10.879-13.395-19.801 0-3.516 0.851-6.834 2.358-9.758l-0.056 0.12c25.501-54.855 75.416-94.629 135.392-105.639l1.142-0.174c4.134-1.532 7.027-5.441 7.027-10.027s-2.893-8.495-6.954-10.003l-0.074-0.024c-52.719-22.41-114.037-35.436-178.398-35.436-1.632 0-3.263 0.008-4.891 0.025l0.249-0.002c-1.283 0.269-2.757 0.422-4.267 0.422-12.015 0-21.756-9.74-21.756-21.756 0-10.505 7.446-19.272 17.349-21.309l0.141-0.024c101.572-49.318 220.58-79.376 346.295-82.328l1.012-0.019c2.435-0.040 5.307-0.062 8.185-0.062 107.918 0 208.398 31.849 292.552 86.66l-2.071-1.265c143.869 97.030 237.229 259.404 237.229 443.584 0 0.503-0.001 1.005-0.002 1.508v-0.078 37.12c0.056 6.506 3.017 12.31 7.647 16.186l0.033 0.027z" />
<glyph unicode="&#xe904;" glyph-name="sl-icon-youtube" d="M855.893 810.667h-687.787c-92.843 0-168.107-75.264-168.107-168.107v0-389.12c0-92.843 75.264-168.107 168.107-168.107v0h687.787c92.843 0 168.107 75.264 168.107 168.107v0 389.12c0 92.843-75.264 168.107-168.107 168.107v0zM705.707 448l-288.853-186.027c-3.257-2.118-7.241-3.378-11.52-3.378-11.77 0-21.313 9.531-21.333 21.296v369.495c0.020 11.767 9.564 21.298 21.333 21.298 4.279 0 8.263-1.26 11.603-3.428l-0.083 0.050 288.853-184.747c5.908-3.859 9.758-10.44 9.758-17.92s-3.85-14.061-9.677-17.87l-0.082-0.050z" />
<glyph unicode="&#xe905;" glyph-name="sl-icon_lighbulb_dyk_green_02" d="M448.74 954.994c-110.592-14.564-212.537-63.716-293.092-142.45-151.552-147.001-195.698-372.281-111.957-567.979 23.211-54.158 67.356-118.329 111.957-161.109 199.794-194.788 512.91-194.788 712.704 0 176.583 171.577 204.345 442.823 66.901 648.988-106.041 158.834-297.643 246.67-486.514 222.549zM520.192 813.909c15.474-8.192 16.839-12.743 16.839-59.62 0-38.684-1.365-45.966-9.102-53.703-10.923-10.923-30.492-11.833-44.601-1.82-9.102 6.372-10.012 10.468-10.012 54.613 0 41.415 1.365 48.697 9.102 56.434 10.468 10.468 23.211 11.378 37.774 4.096zM258.503 735.175c18.66-9.557 72.818-67.812 76.459-81.92 4.551-18.66-10.012-36.409-32.313-38.229-15.929-1.365-19.115 0.91-55.068 36.409-33.678 34.133-38.229 40.050-38.229 54.613 0 12.743 3.186 19.115 11.833 25.941 14.108 11.378 20.935 11.833 37.319 3.186zM789.163 731.989c8.647-6.827 11.833-13.198 11.833-25.941 0-14.564-4.551-20.48-37.774-54.158-33.678-33.223-39.595-37.774-54.158-37.774-12.743 0-19.115 3.186-26.396 12.288-15.474 19.57-9.557 35.044 28.672 73.273 43.691 44.601 55.979 49.607 77.824 32.313zM562.062 680.107c77.369-20.48 139.719-81.465 163.385-161.109 15.019-50.972 7.737-118.784-18.66-170.667-15.929-31.403-55.979-71.908-87.381-88.747-32.313-17.294-42.325-18.204-39.14-3.641 10.468 44.601 38.684 183.41 38.684 190.236 0 5.006-4.551 10.923-10.468 13.653-8.192 3.641-17.294 1.82-45.511-9.102-46.421-18.66-70.087-18.204-117.874 0.455-38.684 15.474-50.062 14.564-52.793-4.096-1.365-7.737 30.492-167.936 38.229-193.422 7.282-23.666-56.889 10.012-92.843 48.242-42.78 46.421-59.62 89.657-60.075 155.193 0 66.446 22.756 119.694 70.087 165.205 58.254 55.979 137.899 77.369 214.357 57.799zM247.125 504.434c13.653-7.282 16.839-12.743 16.839-32.313 0-26.396-10.468-30.948-69.177-30.948-43.236 0-50.062 0.91-58.254 9.102-12.743 12.743-11.833 34.133 2.276 47.787 10.012 10.468 14.108 11.378 54.613 11.378 24.121 0 48.242-2.276 53.703-5.006zM871.538 498.062c14.108-13.653 14.564-32.313 1.365-46.421-9.102-9.557-13.653-10.468-56.889-10.468-26.396 0-51.428 2.276-56.434 5.006-21.39 10.923-19.57 50.062 2.276 58.709 5.461 2.276 29.582 4.096 54.158 4.096 41.415 0.455 45.511-0.455 55.524-10.923zM462.848 399.758c17.294-6.372 65.081-6.372 85.561 0.455 9.102 3.186 17.294 4.551 18.66 3.641 0.91-1.365-5.461-35.954-14.108-76.914s-15.929-76.004-15.929-77.824c0-2.276-14.108-3.641-31.858-3.641-17.294 0-31.858 0.91-31.858 1.82s-7.282 35.954-15.929 77.369c-8.647 41.87-15.929 76.914-15.929 77.824 0 3.641 7.737 2.731 21.39-2.731zM605.298 219.079c14.108-11.378 14.564-40.050 0.455-51.428-9.557-7.737-19.57-8.647-100.58-8.647s-91.022 0.91-100.58 8.647c-7.737 5.916-10.468 13.198-10.468 25.486s2.731 19.57 10.468 25.486c9.557 7.737 19.57 8.647 100.58 8.647 79.644 0 91.022-0.91 100.124-8.192zM597.561 144.896c21.39-9.557 25.486-36.409 8.647-55.068-5.006-6.372-14.108-8.192-35.499-8.192-27.307 0-29.127-0.455-35.954-13.653-12.288-23.666-48.242-23.666-60.075 0-5.006 10.012-9.102 11.833-35.954 13.653-26.396 1.82-31.858 4.096-39.595 14.564-7.737 10.012-8.192 15.019-5.006 27.307 2.731 8.647 9.102 17.294 15.474 20.48 15.019 7.737 172.032 8.192 187.961 0.91z" />
<glyph unicode="&#xe906;" glyph-name="sl-icon_lighbulb_dyk_green" d="M448.74 954.994c-110.592-14.564-212.537-63.716-293.092-142.45-151.552-147.001-195.698-372.281-111.957-567.979 23.211-54.158 67.356-118.329 111.957-161.109 199.794-194.788 512.91-194.788 712.704 0 176.583 171.577 204.345 442.823 66.901 648.988-106.041 158.834-297.643 246.67-486.514 222.549zM531.57 813.454c3.186-3.186 5.461-17.749 5.461-33.223 0-30.948-4.551-38.684-23.666-38.684-18.66 0-28.217 16.839-25.486 45.966 1.365 12.743 5.461 25.031 8.647 27.307 9.102 5.916 28.672 5.006 35.044-1.365zM311.296 714.24c9.102-10.012 16.384-20.935 16.384-24.121 0-11.833-14.108-25.941-26.396-25.941-14.108 0-46.421 29.127-46.421 42.325 0 16.839 8.647 25.941 24.576 25.941 12.288 0 18.66-3.641 31.858-18.204zM766.407 725.163c11.378-10.923 8.647-23.211-9.102-42.78-13.198-14.564-19.57-18.204-31.858-18.204-10.468 0-16.839 2.731-20.025 8.647-7.737 15.019-5.006 24.576 12.288 42.325 18.204 18.66 36.409 22.756 48.697 10.012zM575.716 684.658c78.279-20.48 141.084-86.016 157.468-165.205 6.827-33.678 2.731-87.836-9.557-120.604-12.743-34.133-43.236-75.093-71.908-95.573l-22.756-16.839 2.276-35.499c3.641-48.697-5.916-80.555-30.037-102.4s-44.146-27.307-89.657-25.031c-33.223 1.82-40.96 3.641-57.799 15.474-10.923 7.737-23.666 21.845-29.582 33.678-9.102 17.749-10.468 26.852-9.557 67.356l0.91 46.876-24.576 17.294c-63.26 45.511-96.028 130.162-81.465 209.806 22.3 123.79 144.725 202.069 266.24 170.667zM249.401 531.285c3.186-3.186 5.461-12.288 5.461-20.48 0-17.294-11.378-24.121-40.050-24.121-22.3 0-37.319 10.923-37.319 26.852 0 18.66 7.737 23.211 38.684 23.211 15.474 0 30.037-2.276 33.223-5.461zM859.25 531.285c6.372-6.372 7.282-25.941 1.365-35.044-2.276-3.186-14.564-7.282-27.307-8.647-29.127-2.731-45.966 6.827-45.966 25.486 0 19.115 7.737 23.666 38.684 23.666 15.474 0 30.037-2.276 33.223-5.461zM291.271 336.953c7.737-15.019 5.006-24.576-12.288-42.325-20.025-20.48-37.774-22.756-48.697-7.282-10.468 14.564-9.102 19.57 9.102 40.050 13.198 14.564 19.57 18.204 31.858 18.204 10.468 0 16.839-2.731 20.025-8.647zM785.977 331.036c23.666-22.756 19.57-53.703-7.282-53.703-15.929 0-45.966 30.037-45.966 45.511 0 26.852 29.582 31.403 53.248 8.192zM485.604 636.416c-44.601-10.468-90.112-45.966-110.592-87.381-33.678-65.536-19.57-141.084 35.499-192.512 33.678-31.403 65.991-44.601 110.592-44.601 31.403-0.455 40.505 1.365 66.901 14.108 55.524 26.396 91.932 77.824 97.394 138.354 9.557 105.586-96.028 196.608-199.794 172.032zM575.716 595.911c40.505-17.294 67.812-53.248 75.093-98.304 5.461-32.313-1.82-47.332-22.3-47.332-16.384 0-22.3 7.282-27.307 32.768-1.82 11.378-7.737 27.762-13.198 36.409-11.378 18.204-40.050 35.499-58.709 35.499-20.48 0-34.133 11.833-32.313 28.672 2.276 25.486 35.954 30.948 78.734 12.288zM464.213 231.367c0-32.313 4.551-42.325 23.666-52.338 26.396-13.653 85.561-1.82 85.561 17.294 0 1.82-18.204 3.641-40.050 3.641-44.601 0-50.972 3.186-50.972 25.941 0 20.025 9.557 24.121 56.434 24.121 23.211 0 39.14 1.82 39.14 4.551s-21.845 4.551-56.889 4.551h-56.889v-27.762z" />
<glyph unicode="&#xe907;" glyph-name="sl-icon_time_orange_01" d="M448.74 954.994c-110.592-14.564-212.537-63.716-293.092-142.45-151.552-147.001-195.698-372.281-111.957-567.979 23.211-54.158 67.356-118.329 111.957-161.109 199.794-194.788 512.91-194.788 712.704 0 176.583 171.577 204.345 442.823 66.901 648.988-106.041 158.834-297.643 246.67-486.514 222.549zM614.4 800.711c121.060-35.044 215.723-130.162 251.221-253.042 15.019-51.883 15.019-147.456 0-199.339-35.499-123.79-130.162-218.453-253.952-253.952-51.883-15.019-147.456-15.019-199.339 0-123.79 35.499-218.453 130.162-253.952 253.952-15.019 51.883-15.019 147.456 0 199.339 40.050 138.809 148.366 235.292 296.732 263.964 28.672 5.461 125.611-1.365 159.289-10.923zM476.046 626.859c-5.916-8.192-7.282-25.486-7.282-94.663 0-58.254 1.82-87.381 5.916-94.208 6.827-12.743 155.648-148.366 167.481-152.462 13.198-5.006 33.678 14.108 30.037 28.672-1.82 6.372-33.223 38.684-75.548 76.914l-72.818 65.991-0.455 82.375c0 73.728-0.91 83.285-8.192 89.657-11.833 10.923-30.948 9.557-39.14-2.276z" />
<glyph unicode="&#xe908;" glyph-name="sl-icon_time_orange_02" d="M448.74 954.994c-110.592-14.564-212.537-63.716-293.092-142.45-151.552-147.001-195.698-372.281-111.957-567.979 23.211-54.158 67.356-118.329 111.957-161.109 199.794-194.788 512.91-194.788 712.704 0 176.583 171.577 204.345 442.823 66.901 648.988-106.041 158.834-297.643 246.67-486.514 222.549zM606.663 802.987c28.672-7.282 30.492-8.647 30.492-21.39 0-7.737-4.551-17.749-11.378-24.121-9.557-10.012-15.019-11.378-45.511-11.378h-34.588l1.365-41.87 1.365-41.415 31.858-7.737c38.229-9.102 60.985-18.66 90.112-37.319l21.845-14.108 30.948 30.492c25.031 23.666 34.133 30.037 45.511 30.037 19.115 0 32.313-14.108 32.313-34.588 0-14.108-4.096-20.935-29.127-46.421-27.307-28.672-28.672-30.948-22.3-39.595 15.019-20.025 38.229-72.363 45.056-101.49 10.923-47.332 7.282-125.156-8.647-169.301-79.189-221.184-381.838-259.413-514.731-65.081-32.313 47.787-45.056 88.292-47.332 151.552-2.276 61.895 5.006 98.759 28.217 144.27 39.595 78.279 103.31 129.252 189.781 151.097l33.678 8.647 2.731 82.83h-34.588c-30.492 0-35.954 1.365-45.511 11.378-14.564 14.108-15.019 32.768-0.91 38.684 41.87 19.115 149.732 22.3 209.351 6.827zM476.046 626.859c-4.096-5.461-7.282-15.474-7.282-22.3 0-10.468-3.186-13.198-28.217-22.3-91.932-33.223-149.276-113.778-149.276-209.351 0-103.31 68.267-189.781 170.667-216.178 121.97-31.403 250.766 56.434 270.791 185.23 17.749 113.323-65.081 227.1-180.679 249.401-26.852 5.461-28.672 6.372-28.672 18.204 0 25.031-33.678 37.319-47.332 17.294zM593.010 539.477c39.14-19.115 64.626-44.146 83.74-83.74 16.839-33.223 17.294-36.409 17.294-82.375s-0.91-49.607-15.474-79.189c-19.115-37.319-54.158-71.908-90.112-88.292-30.948-14.108-86.016-20.025-90.112-10.012-1.365 3.641-1.82 53.248-1.365 110.137l1.365 103.765 66.901-61.44c36.409-33.678 70.997-62.35 76.459-64.171 14.108-4.551 31.858 8.647 31.858 23.666 0 12.743-4.551 17.749-101.035 105.131l-48.697 44.146-0.455 49.607v49.607l22.3-2.276c12.288-1.365 33.678-7.737 47.332-14.564z" />
<glyph unicode="&#xe909;" glyph-name="sl-icon_time_orange_03" d="M448.74 954.994c-110.592-14.564-212.537-63.716-293.092-142.45-151.552-147.001-195.698-372.281-111.957-567.979 23.211-54.158 67.356-118.329 111.957-161.109 199.794-194.788 512.91-194.788 712.704 0 176.583 171.577 204.345 442.823 66.901 648.988-106.041 158.834-297.643 246.67-486.514 222.549zM751.844 742.457c11.833-5.916 27.762-18.204 35.954-26.852 30.037-34.588 29.127-26.852 29.127-267.605s0.91-233.017-29.127-267.605c-8.192-8.647-24.121-20.935-35.954-26.852l-21.39-10.468h-436.907l-21.39 10.468c-11.833 5.916-27.762 18.204-35.954 26.852-29.582 34.133-29.127 28.672-30.492 253.497-0.91 136.078 0.455 212.082 3.641 228.011 5.461 27.307 23.666 55.068 45.966 70.997 29.582 20.935 42.78 21.845 265.785 20.935 208.896-0.91 209.351-0.91 230.741-11.378zM470.13 652.8c-106.951-23.211-182.5-131.527-165.205-235.292 19.115-112.868 129.252-194.788 237.568-176.583 112.868 19.115 194.788 129.252 176.583 237.568-14.564 86.471-81.92 156.558-167.936 174.763-35.954 7.282-44.601 7.282-81.010-0.455zM523.378 591.815c2.276-5.006 4.551-35.499 4.551-68.267v-59.62h35.954c42.78 0 51.883-5.461 49.607-31.403-1.82-23.211-13.653-27.762-73.273-27.762-45.966 0-49.607 0.455-60.075 11.378-11.378 10.923-11.378 12.288-11.378 87.381 0 89.657 2.276 96.939 31.858 96.939 13.198 0 19.115-2.276 22.756-8.647z" />
<glyph unicode="&#xe910;" glyph-name="sl-icon-email-action-unread" d="M972.8 747.52c0 2.56-2.56 5.12-5.12 7.68 0 0-2.56 2.56-2.56 2.56-17.92 20.48-40.96 30.72-69.12 30.72h-768c-25.6 0-48.64-10.24-66.56-28.16-2.56 0-7.68-2.56-10.24-5.12s-2.56-5.12-2.56-7.68c-10.24-15.36-15.36-35.84-15.36-56.32v-512c0-51.2 43.52-94.72 94.72-94.72h768c51.2 0 94.72 43.52 94.72 97.28v512c0 20.48-7.68 38.4-17.92 53.76zM883.2 729.6l-307.2-238.080c-38.4-30.72-94.72-30.72-133.12 0l-307.2 238.080h747.52zM896 148.48h-768c-17.92 0-33.28 12.8-30.72 30.72v499.2l307.2-238.080c33.28-20.48 69.12-33.28 107.52-33.28s71.68 12.8 107.52 33.28l312.32 243.2v-499.2c-2.56-23.040-17.92-35.84-35.84-35.84z" />
<glyph unicode="&#xe911;" glyph-name="sl-icon-search" d="M1013.76-10.24l-276.48 279.040c99.84 117.76 133.12 284.16 69.12 435.2-92.16 212.48-337.92 312.32-550.4 222.72s-312.32-337.92-222.72-550.4c66.56-158.72 222.72-256 386.56-256 53.76 0 110.080 10.24 163.84 33.28 40.96 17.92 76.8 40.96 107.52 66.56l279.040-279.040c5.12-5.12 15.36-10.24 23.040-10.24s15.36 2.56 23.040 10.24c10.24 17.92 10.24 35.84-2.56 48.64zM558.080 215.040c-179.2-76.8-389.12 7.68-465.92 186.88-35.84 87.040-38.4 184.32-2.56 271.36s102.4 156.16 189.44 194.56c179.2 76.8 389.12-7.68 465.92-186.88 76.8-181.76-7.68-389.12-186.88-465.92z" />
<glyph unicode="&#xe912;" glyph-name="sl-icon-pin-black" d="M512 801.28c-104.96 0-192-87.040-192-192s87.040-192 192-192 192 87.040 192 192-87.040 192-192 192zM512 478.72c-71.68 0-128 56.32-128 128s56.32 128 128 128 128-56.32 128-128-56.32-128-128-128zM512 960c-194.56 0-353.28-158.72-353.28-353.28 0-184.32 296.96-640 299.52-642.56 5.12-7.68 10.24-12.8 17.92-17.92 10.24-7.68 23.040-10.24 35.84-10.24 20.48 0 40.96 10.24 53.76 28.16 2.56 5.12 299.52 458.24 299.52 642.56 0 194.56-158.72 353.28-353.28 353.28zM512 0c-99.84 151.040-286.72 483.84-286.72 606.72 0 158.72 128 286.72 286.72 286.72s286.72-128 286.72-286.72c0-120.32-186.88-455.68-286.72-606.72z" />
<glyph unicode="&#xe913;" glyph-name="sl-icon-calendar-3-black" d="M926.72 832h-158.72v97.28c0 15.36-15.36 30.72-30.72 30.72s-30.72-15.36-30.72-30.72v-97.28h-384v97.28c0 17.92-15.36 30.72-30.72 30.72s-35.84-15.36-35.84-30.72v-97.28h-158.72c-53.76 0-97.28-43.52-97.28-97.28v-704c0-51.2 43.52-94.72 97.28-94.72h832c53.76 0 97.28 43.52 97.28 97.28v701.44c-2.56 53.76-46.080 97.28-99.84 97.28zM97.28 768h158.72v-64c0-17.92 15.36-30.72 30.72-30.72s30.72 15.36 30.72 30.72v64h384v-64c0-17.92 15.36-30.72 30.72-30.72s35.84 12.8 35.84 30.72v64h158.72c17.92 0 30.72-15.36 30.72-30.72v-161.28h-896v158.72c2.56 17.92 17.92 33.28 35.84 33.28zM926.72 0h-829.44c-17.92 0-30.72 15.36-30.72 30.72v481.28h896v-481.28c-2.56-15.36-17.92-30.72-35.84-30.72zM245.76 414.72c0 0 0 0 0 0-2.56 0-2.56 0-5.12 0 0 0-2.56 0-2.56 0s0 0 0 0c-2.56 0-2.56 0-5.12 0-25.6-2.56-43.52-23.040-43.52-48.64s20.48-48.64 48.64-48.64 48.64 20.48 48.64 48.64c0 25.6-17.92 46.080-40.96 48.64zM240.64 353.28c2.56 0 2.56 0 5.12 0-2.56 0-5.12-2.56-5.12 0 0-2.56 0 0 0 0zM240.64 192c-25.6 0-48.64-20.48-48.64-48.64s20.48-48.64 48.64-48.64 48.64 20.48 48.64 48.64-23.040 48.64-48.64 48.64zM235.52 128c2.56 0 2.56 0 5.12 0 0 0 0 0 0 0-2.56 0-2.56 0-5.12 0zM517.12 414.72c-2.56 0-2.56 0-2.56 0s0 0 0 0-2.56 0-2.56 0-2.56 0-5.12 0c0 0 0 0 0 0-23.040-2.56-40.96-23.040-40.96-46.080 0-25.6 20.48-48.64 48.64-48.64 25.6 0 48.64 20.48 48.64 48.64-2.56 25.6-23.040 43.52-46.080 46.080zM517.12 192c-2.56 0-2.56 0-2.56 0s0 0 0 0-2.56 0-2.56 0-2.56 0-5.12 0c0 0 0 0 0 0-23.040-2.56-40.96-23.040-40.96-46.080 0-25.6 20.48-48.64 48.64-48.64 25.6 0 48.64 20.48 48.64 48.64-2.56 23.040-23.040 43.52-46.080 46.080zM788.48 414.72c0 0-2.56 0-2.56 0s0 0 0 0-2.56 0-2.56 0-2.56 0-5.12 0c0 0 0 0 0 0-23.040-2.56-40.96-23.040-40.96-46.080 0-25.6 20.48-48.64 48.64-48.64s48.64 20.48 48.64 48.64c-2.56 25.6-23.040 46.080-46.080 46.080zM780.8 353.28c2.56 0 2.56 0 5.12 0 0 0 0 0 0 0-2.56-2.56-5.12 0-5.12 0zM788.48 192c0 0-2.56 0-2.56 0s0 0 0 0-2.56 0-2.56 0-2.56 0-5.12 0c0 0 0 0 0 0-23.040-2.56-40.96-23.040-40.96-46.080 0-25.6 20.48-48.64 48.64-48.64s48.64 20.48 48.64 48.64c-2.56 23.040-23.040 43.52-46.080 46.080zM780.8 128c2.56 0 2.56 0 5.12 0 0 0 0 0 0 0-2.56 0-5.12 0-5.12 0z" />
<glyph unicode="&#xe914;" glyph-name="sl-icon-accounting-calculator-black" d="M798.72 960h-573.44c-53.76 0-97.28-43.52-97.28-97.28v-832c0-51.2 43.52-94.72 97.28-94.72h576c53.76 0 97.28 43.52 97.28 97.28v829.44c-2.56 53.76-46.080 97.28-99.84 97.28zM832 33.28c0-17.92-15.36-30.72-30.72-30.72h-576c-17.92 0-30.72 15.36-30.72 30.72v829.44c0 17.92 15.36 30.72 30.72 30.72h576c17.92 0 30.72-15.36 30.72-30.72v-829.44zM704 832h-384c-35.84 0-64-28.16-64-64v-128c0-35.84 28.16-64 64-64h384c35.84 0 64 28.16 64 64v128c0 35.84-28.16 64-64 64zM704 640h-384v128h384v-128zM335.36 478.72c-25.6 0-48.64-20.48-48.64-48.64 0-25.6 20.48-48.64 48.64-48.64s48.64 20.48 48.64 48.64c0 28.16-20.48 48.64-48.64 48.64zM335.36 417.28c-7.68 0-15.36 7.68-15.36 15.36s7.68 15.36 15.36 15.36 15.36-7.68 15.36-15.36-5.12-15.36-15.36-15.36zM519.68 478.72c-25.6 0-48.64-20.48-48.64-48.64 0-25.6 20.48-48.64 48.64-48.64 25.6 0 48.64 20.48 48.64 48.64-2.56 28.16-23.040 48.64-48.64 48.64zM519.68 417.28c-7.68 0-15.36 7.68-15.36 15.36s7.68 15.36 15.36 15.36 15.36-7.68 15.36-15.36-7.68-15.36-15.36-15.36zM688.64 478.72c-25.6 0-48.64-20.48-48.64-48.64 0-25.6 20.48-48.64 48.64-48.64s48.64 20.48 48.64 48.64c0 28.16-23.040 48.64-48.64 48.64zM688.64 417.28c-7.68 0-15.36 7.68-15.36 15.36s7.68 15.36 15.36 15.36 15.36-7.68 15.36-15.36-7.68-15.36-15.36-15.36zM335.36 320c-25.6 0-48.64-20.48-48.64-48.64s20.48-48.64 48.64-48.64 48.64 20.48 48.64 48.64-20.48 48.64-48.64 48.64zM335.36 256c-7.68 0-15.36 7.68-15.36 15.36s7.68 15.36 15.36 15.36 15.36-7.68 15.36-15.36-5.12-15.36-15.36-15.36zM519.68 320c-25.6 0-48.64-20.48-48.64-48.64s20.48-48.64 48.64-48.64c25.6 0 48.64 20.48 48.64 48.64s-23.040 48.64-48.64 48.64zM519.68 256c-7.68 0-15.36 7.68-15.36 15.36s7.68 15.36 15.36 15.36 15.36-7.68 15.36-15.36-7.68-15.36-15.36-15.36zM688.64 320c-25.6 0-48.64-20.48-48.64-48.64s20.48-48.64 48.64-48.64 48.64 20.48 48.64 48.64-23.040 48.64-48.64 48.64zM688.64 256c-7.68 0-15.36 7.68-15.36 15.36s7.68 15.36 15.36 15.36 15.36-7.68 15.36-15.36-7.68-15.36-15.36-15.36zM335.36 161.28c-25.6 0-48.64-20.48-48.64-48.64s20.48-48.64 48.64-48.64 48.64 20.48 48.64 48.64-20.48 48.64-48.64 48.64zM335.36 94.72c-7.68 0-15.36 7.68-15.36 15.36s7.68 15.36 15.36 15.36 15.36-7.68 15.36-15.36-5.12-15.36-15.36-15.36zM519.68 161.28c-25.6 0-48.64-20.48-48.64-48.64s20.48-48.64 48.64-48.64c25.6 0 48.64 20.48 48.64 48.64s-23.040 48.64-48.64 48.64zM519.68 94.72c-7.68 0-15.36 7.68-15.36 15.36s7.68 15.36 15.36 15.36 15.36-7.68 15.36-15.36-7.68-15.36-15.36-15.36zM688.64 161.28c-25.6 0-48.64-20.48-48.64-48.64s20.48-48.64 48.64-48.64 48.64 20.48 48.64 48.64-23.040 48.64-48.64 48.64zM688.64 94.72c-7.68 0-15.36 7.68-15.36 15.36s7.68 15.36 15.36 15.36 15.36-7.68 15.36-15.36-7.68-15.36-15.36-15.36z" />
<glyph unicode="&#xe915;" glyph-name="sl-icon-question-circle-black" d="M512 734.72c0 0 0 0 0 0-43.52 0-81.92-15.36-112.64-46.080s-46.080-71.68-46.080-112.64c0-17.92 15.36-30.72 30.72-30.72s30.72 15.36 30.72 30.72c0 25.6 10.24 48.64 28.16 69.12 17.92 17.92 40.96 28.16 69.12 28.16 0 0 0 0 0 0 25.6 0 48.64-10.24 69.12-28.16 17.92-17.92 28.16-40.96 28.16-69.12 0-40.96-25.6-76.8-64-89.6s-64-51.2-64-89.6v-43.52c0-17.92 15.36-30.72 30.72-30.72s30.72 15.36 30.72 30.72v43.52c0 12.8 7.68 25.6 20.48 30.72 64 23.040 107.52 81.92 107.52 151.040 0 43.52-15.36 81.92-46.080 112.64-30.72 28.16-69.12 43.52-112.64 43.52zM512 256c-25.6 0-48.64-20.48-48.64-48.64s20.48-48.64 48.64-48.64c25.6 0 48.64 20.48 48.64 48.64s-23.040 48.64-48.64 48.64zM512 192c-7.68 0-15.36 7.68-15.36 15.36s7.68 15.36 15.36 15.36 15.36-7.68 15.36-15.36-7.68-15.36-15.36-15.36zM512 960c-281.6 0-512-230.4-512-512s230.4-512 512-512c281.6 0 512 230.4 512 512s-230.4 512-512 512zM512 0c-245.76 0-448 202.24-448 448s202.24 448 448 448 448-202.24 448-448-202.24-448-448-448z" />
<glyph unicode="&#xe916;" glyph-name="sl-icon-phone-actions-ring-black" d="M816.64 163.84l-112.64 112.64c-38.4 38.4-97.28 38.4-135.68 0-12.8-12.8-33.28-12.8-46.080 0l-181.76 181.76c-12.8 12.8-12.8 33.28 0 46.080 17.92 17.92 28.16 40.96 28.16 69.12 0 25.6-10.24 48.64-28.16 69.12l-112.64 110.080c-38.4 38.4-97.28 38.4-135.68 0l-28.16-25.6c-74.24-74.24-87.040-189.44-30.72-279.040 128-186.88 286.72-348.16 473.6-473.6 0 0 0 0 0 0 38.4-23.040 79.36-35.84 120.32-35.84 58.88 0 115.2 23.040 158.72 66.56l25.6 25.6c17.92 17.92 28.16 40.96 28.16 69.12 5.12 23.040-5.12 46.080-23.040 64 0 0 0 0 0 0zM770.56 74.24l-25.6-25.6c-53.76-53.76-135.68-61.44-197.12-23.040v0c0 0 0 0 0 0-184.32 120.32-337.92 273.92-458.24 455.68-40.96 64-30.72 145.92 23.040 199.68l28.16 25.6c5.12 5.12 15.36 10.24 23.040 10.24s15.36-2.56 23.040-10.24l112.64-112.64c12.8-12.8 12.8-33.28 0-46.080-38.4-38.4-38.4-97.28 0-135.68l181.76-181.76c17.92-17.92 40.96-28.16 69.12-28.16 25.6 0 48.64 10.24 69.12 28.16 12.8 12.8 33.28 12.8 46.080 0l112.64-112.64c0 0 0 0 0 0 5.12-5.12 7.68-12.8 7.68-23.040-5.12-7.68-7.68-15.36-15.36-20.48zM640 417.28c0-17.92 15.36-30.72 30.72-30.72s30.72 15.36 30.72 30.72c0 122.88-99.84 225.28-225.28 225.28-17.92 0-30.72-15.36-30.72-30.72s15.36-30.72 30.72-30.72c92.16-5.12 163.84-76.8 163.84-163.84zM481.28 801.28c-17.92 0-30.72-15.36-30.72-30.72s15.36-30.72 30.72-30.72c176.64 0 320-143.36 320-320 0-17.92 15.36-30.72 30.72-30.72s30.72 15.36 30.72 30.72c2.56 207.36-171.52 381.44-381.44 381.44zM481.28 960c-17.92 0-30.72-15.36-30.72-30.72s15.36-30.72 30.72-30.72c263.68 0 481.28-215.040 481.28-481.28 0-17.92 15.36-30.72 30.72-30.72s30.72 15.36 30.72 30.72c0 299.52-243.2 542.72-542.72 542.72z" />
<glyph unicode="&#xe917;" glyph-name="sl-icon-user-cash" d="M680.96 532.48l87.040-35.84c12.8-5.12 20.48-20.48 12.8-33.28-2.56-10.24-12.8-15.36-23.040-15.36v0h-87.040c-17.92 0-30.72-15.36-30.72-30.72s15.36-30.72 30.72-30.72h30.72c0-17.92 15.36-30.72 30.72-30.72s30.72 15.36 30.72 30.72v0c33.28 2.56 61.44 23.040 74.24 56.32 17.92 46.080-5.12 97.28-48.64 115.2l-87.040 35.84c-10.24 5.12-15.36 12.8-15.36 23.040 0 12.8 10.24 25.6 25.6 25.6h87.040c17.92 0 30.72 15.36 30.72 30.72s-12.8 30.72-30.72 30.72h-30.72c0 17.92-15.36 30.72-30.72 30.72s-30.72-15.36-30.72-30.72v0c-46.080-5.12-79.36-43.52-79.36-89.6-2.56-35.84 17.92-69.12 53.76-81.92zM737.28 256c158.72 0 286.72 128 286.72 286.72s-128 289.28-286.72 289.28-286.72-128-286.72-286.72 125.44-289.28 286.72-289.28zM737.28 768c122.88 0 225.28-99.84 225.28-225.28 0-122.88-99.84-225.28-225.28-225.28s-225.28 102.4-225.28 227.84c0 122.88 99.84 222.72 225.28 222.72zM30.72 384h35.84l12.8-99.84c2.56-17.92 17.92-30.72 35.84-28.16s30.72 17.92 28.16 35.84l-15.36 128c-2.56 15.36-15.36 28.16-30.72 28.16h-33.28v64c0 71.68 56.32 128 128 128s128-56.32 128-128v-64h-30.72c-15.36 0-30.72-12.8-30.72-28.16l-15.36-128c-2.56-17.92 10.24-33.28 28.16-35.84 2.56 0 2.56 0 5.12 0 15.36 0 30.72 12.8 30.72 28.16l12.8 99.84h35.84c17.92 0 30.72 15.36 30.72 30.72v97.28c0 81.92-51.2 151.040-122.88 179.2 43.52 25.6 74.24 71.68 74.24 125.44 0 79.36-64 143.36-143.36 143.36s-145.92-64-145.92-143.36c0-53.76 30.72-99.84 74.24-125.44-71.68-28.16-122.88-97.28-122.88-179.2v-97.28c0-15.36 15.36-30.72 30.72-30.72zM192 896c43.52 0 79.36-35.84 79.36-79.36s-35.84-81.92-79.36-81.92-79.36 38.4-79.36 81.92 35.84 79.36 79.36 79.36zM993.28 192h-962.56c-15.36 0-30.72-15.36-30.72-30.72s15.36-30.72 30.72-30.72h437.76l-110.080-143.36c-7.68-10.24-10.24-23.040-5.12-33.28s15.36-17.92 28.16-17.92h256c12.8 0 23.040 7.68 28.16 17.92s2.56 23.040-5.12 33.28l-112.64 140.8h437.76c17.92 0 30.72 15.36 30.72 30.72s-7.68 33.28-23.040 33.28zM450.56 0l61.44 76.8 61.44-76.8h-122.88z" />
<glyph unicode="&#xe918;" glyph-name="sl-icon-smartphone-pay-dollar" d="M504.32 785.92c0-53.76 53.76-97.28 120.32-97.28 33.28 0 56.32-17.92 56.32-33.28s-23.040-33.28-56.32-33.28c-20.48 0-40.96 7.68-53.76 25.6-10.24 12.8-30.72 17.92-46.080 5.12-12.8-10.24-17.92-30.72-5.12-46.080 17.92-23.040 43.52-40.96 71.68-46.080v-15.36c0-17.92 15.36-30.72 30.72-30.72s30.72 15.36 30.72 30.72v15.36c51.2 10.24 87.040 48.64 87.040 94.72 0 53.76-53.76 97.28-120.32 97.28-33.28 0-56.32 17.92-56.32 33.28s23.040 33.28 56.32 33.28c20.48 0 40.96-7.68 53.76-25.6 10.24-12.8 30.72-17.92 46.080-5.12 12.8 10.24 17.92 30.72 5.12 46.080-17.92 23.040-43.52 40.96-71.68 46.080v15.36c0 17.92-15.36 30.72-30.72 30.72s-30.72-15.36-30.72-30.72v-15.36c-51.2-12.8-87.040-48.64-87.040-94.72zM542.72 350.72c-17.92 0-30.72-15.36-30.72-30.72v-158.72h-448v573.44c0 17.92 15.36 30.72 30.72 30.72 17.92 2.56 33.28 17.92 33.28 35.84s-15.36 30.72-30.72 30.72c-53.76 0-97.28-43.52-97.28-97.28v-704c0-51.2 43.52-94.72 97.28-94.72h384c53.76 0 97.28 43.52 97.28 97.28v286.72c-2.56 17.92-17.92 30.72-35.84 30.72zM481.28 0h-384c-17.92 0-30.72 15.36-30.72 30.72v64h445.44v-64c0-15.36-15.36-30.72-30.72-30.72zM926.72 960h-158.72c-17.92 0-30.72-15.36-30.72-30.72s15.36-30.72 30.72-30.72h158.72c17.92 0 30.72-15.36 30.72-30.72v-353.28c0-17.92-15.36-30.72-30.72-30.72h-640c-17.92 0-30.72 15.36-30.72 30.72v348.16c0 17.92 15.36 30.72 30.72 30.72h192c17.92 0 30.72 15.36 30.72 30.72s-12.8 35.84-28.16 35.84h-192c-53.76 0-97.28-43.52-97.28-97.28v-353.28c0-53.76 43.52-97.28 97.28-97.28h640c53.76 0 97.28 43.52 97.28 97.28v353.28c-2.56 53.76-46.080 97.28-99.84 97.28z" />
<glyph unicode="&#xe919;" glyph-name="sl-icon-data-transfer-horizontal" d="M1021.44 307.2c2.56 7.68 2.56 15.36 0 25.6-2.56 5.12-5.12 7.68-7.68 10.24l-128 128c-12.8 12.8-33.28 12.8-46.080 0s-12.8-33.28 0-46.080l74.24-74.24h-465.92c-17.92 0-30.72-15.36-30.72-30.72s15.36-30.72 30.72-30.72h465.92l-74.24-74.24c-12.8-12.8-12.8-33.28 0-46.080 5.12-5.12 15.36-10.24 23.040-10.24s15.36 2.56 23.040 10.24l128 128c2.56 2.56 5.12 7.68 7.68 10.24zM110.080 545.28h465.92c17.92 0 30.72 15.36 30.72 30.72s-15.36 30.72-30.72 30.72h-465.92l74.24 74.24c12.8 12.8 12.8 33.28 0 46.080s-33.28 12.8-46.080 0l-128-128c-2.56-2.56-5.12-7.68-7.68-10.24-2.56-7.68-2.56-15.36 0-25.6 2.56-5.12 5.12-7.68 7.68-10.24l128-128c5.12-5.12 15.36-10.24 23.040-10.24s15.36 2.56 23.040 10.24c12.8 12.8 12.8 33.28 0 46.080l-74.24 74.24z" />
<glyph unicode="&#xe920;" glyph-name="sl-icon-cash-pin-map" d="M1018.88 61.44l-84.48 256c-12.8 38.4-48.64 66.56-92.16 66.56-17.92 0-30.72-15.36-30.72-30.72s15.36-30.72 30.72-30.72c12.8 0 25.6-7.68 30.72-23.040l84.48-256c0-2.56 2.56-7.68 2.56-10.24 0-17.92-15.36-30.72-30.72-30.72h-832c-2.56 0-7.68 0-10.24 2.56-17.92 5.12-25.6 23.040-20.48 40.96l84.48 256c5.12 10.24 15.36 17.92 30.72 17.92 17.92 0 30.72 15.36 30.72 30.72s-15.36 30.72-30.72 30.72c-40.96 0-76.8-25.6-92.16-66.56l-84.48-256c-17.92-51.2 10.24-104.96 61.44-120.32 7.68 0 17.92-2.56 30.72-2.56h832c53.76 0 97.28 43.52 97.28 97.28-2.56 10.24-5.12 20.48-7.68 28.16zM483.84 84.48c7.68-5.12 17.92-10.24 28.16-10.24 15.36 0 30.72 7.68 38.4 20.48 84.48 115.2 281.6 401.92 281.6 545.28 0 176.64-143.36 320-320 320s-320-143.36-320-320c0-143.36 197.12-427.52 281.6-545.28 2.56-5.12 5.12-7.68 10.24-10.24zM512 896c140.8 0 256-115.2 256-256 0-97.28-135.68-320-256-488.96-120.32 168.96-256 391.68-256 488.96 0 140.8 115.2 256 256 256zM542.72 417.28v30.72h7.68c35.84 0 69.12 23.040 81.92 56.32 7.68 23.040 7.68 46.080 0 69.12-10.24 23.040-25.6 38.4-51.2 48.64l-110.080 33.28c-10.24 2.56-15.36 12.8-15.36 23.040 0 7.68 2.56 12.8 7.68 17.92s10.24 7.68 17.92 7.68c0 0 0 0 0 0h112.64c17.92 0 30.72 15.36 30.72 30.72s-15.36 30.72-30.72 30.72h-48.64v35.84c-2.56 15.36-15.36 30.72-33.28 30.72s-30.72-15.36-30.72-30.72v-30.72c0 0 0 0 0 0-23.040 0-46.080-10.24-64-25.6-17.92-17.92-25.6-38.4-25.6-64 0-35.84 23.040-69.12 58.88-84.48l110.080-33.28c5.12-2.56 10.24-7.68 12.8-12.8s2.56-12.8 0-20.48c-5.12-10.24-12.8-15.36-23.040-15.36h-135.68c-17.92 0-30.72-15.36-30.72-30.72s15.36-30.72 30.72-30.72h64v-30.72c0-17.92 15.36-30.72 30.72-30.72s33.28 7.68 33.28 25.6z" />
<glyph unicode="&#xe921;" glyph-name="sl-icon-print-text-black" d="M928.183 704h-95.817v160.183c0 52.663-43.154 95.817-95.817 95.817h-448.366c-52.663 0-95.817-43.154-95.817-95.817v-160.183h-96.549c-52.663 0-95.817-43.154-95.817-95.817v-320.366c0-52.663 43.154-95.817 95.817-95.817h95.817v-223.817c0-17.554 14.629-32.183 32.183-32.183h576.366c17.554 0 32.183 14.629 32.183 32.183v223.817h95.817c52.663 0 95.817 43.154 95.817 95.817v320.366c0 52.663-43.154 95.817-95.817 95.817zM256 864.183c0 17.554 14.629 32.183 32.183 32.183h447.634c17.554 0 32.183-14.629 32.183-32.183v-160.183h-512v160.183zM768 0.366h-512v384h512v-384zM959.634 287.817c0-17.554-14.629-32.183-32.183-32.183h-95.817v160.183c0 17.554-14.629 32.183-32.183 32.183h-575.634c-17.554 0-32.183-14.629-32.183-32.183v-160.183h-95.817c-17.554 0-32.183 14.629-32.183 32.183v320.366c0 17.554 14.629 32.183 32.183 32.183h832.366c17.554 0 32.183-14.629 32.183-32.183v-320.366zM223.817 576h-64.366c-17.554 0-32.183-14.629-32.183-32.183s14.629-32.183 32.183-32.183h64.366c17.554 0 32.183 14.629 32.183 32.183s-14.629 32.183-32.183 32.183zM672.183 320h-320.366c-17.554 0-32.183-14.629-32.183-32.183s14.629-32.183 32.183-32.183h320.366c17.554 0 32.183 14.629 32.183 32.183s-14.629 32.183-32.183 32.183zM576.366 192h-224.549c-17.554 0-32.183-14.629-32.183-32.183s14.629-32.183 32.183-32.183h223.817c17.554 0 32.183 14.629 32.183 32.183s-13.897 32.183-31.451 32.183z" />
</font>
</defs>
</svg>
