<svg xmlns="http://www.w3.org/2000/svg" xmlns:xlink="http://www.w3.org/1999/xlink" width="34.101" height="29.91" viewBox="0 0 34.101 29.91">
  <defs>
    <clipPath id="clip-path">
      <rect id="Rectangle_14523" data-name="Rectangle 14523" width="34.101" height="29.91" transform="translate(0 0)" fill="none"/>
    </clipPath>
  </defs>
  <g id="icon_alert_bell" transform="translate(-163 150)">
    <g id="Group_20269" data-name="Group 20269" transform="translate(163 -150)" clip-path="url(#clip-path)">
      <path id="Path_15117" data-name="Path 15117" d="M32.572,25.8l-.314,2.346H10.595L10.28,25.8l3.191-3.723a1.364,1.364,0,0,0,.329-.89V14.231a7.626,7.626,0,0,1,15.253,0v6.955a1.367,1.367,0,0,0,.329.89Z" transform="translate(-4.388 -2.819)" fill="none" stroke="#01675b" stroke-linecap="round" stroke-linejoin="round" stroke-width="2"/>
      <path id="Path_15118" data-name="Path 15118" d="M30.534,47.891c0,1.048-1.416,1.9-3.161,1.9s-3.161-.849-3.161-1.9" transform="translate(-10.335 -20.442)" fill="none" stroke="#01675b" stroke-linecap="round" stroke-linejoin="round" stroke-width="1.969"/>
      <path id="Path_15119" data-name="Path 15119" d="M30.491,4.138V2.9a1.919,1.919,0,0,0-3.838,0V4.138" transform="translate(-11.377 -0.421)" fill="none" stroke="#01675b" stroke-linecap="round" stroke-linejoin="round" stroke-width="1.969"/>
      <path id="Path_15120" data-name="Path 15120" d="M53.571,8.856a9.669,9.669,0,0,1,0,13.675" transform="translate(-22.867 -3.78)" fill="none" stroke="#3f3f3f" stroke-linecap="round" stroke-linejoin="round" stroke-width="1"/>
      <path id="Path_15121" data-name="Path 15121" d="M49.174,13.884a5.591,5.591,0,0,1,0,7.911" transform="translate(-20.99 -5.926)" fill="none" stroke="#3f3f3f" stroke-linecap="round" stroke-linejoin="round" stroke-width="1"/>
      <path id="Path_15122" data-name="Path 15122" d="M3.816,8.856a9.669,9.669,0,0,0,0,13.675" transform="translate(-0.42 -3.78)" fill="none" stroke="#3f3f3f" stroke-linecap="round" stroke-linejoin="round" stroke-width="1"/>
      <path id="Path_15123" data-name="Path 15123" d="M9.1,13.884a5.591,5.591,0,0,0,0,7.911" transform="translate(-3.185 -5.926)" fill="none" stroke="#3f3f3f" stroke-linecap="round" stroke-linejoin="round" stroke-width="1"/>
    </g>
  </g>
</svg>
