<svg xmlns="http://www.w3.org/2000/svg" width="73.951" height="67.891" viewBox="0 0 73.951 67.891">
  <g id="icon_appointment" transform="translate(0.004 0.004)">
    <g id="Group_20243" data-name="Group 20243" transform="translate(0.996 0.996)">
      <path id="Path_15083" data-name="Path 15083" d="M73.351,66.627a4.479,4.479,0,0,1-4.4,4.479l-11.952.2H5.342A3.941,3.941,0,0,1,1.4,67.365V15.382a3.941,3.941,0,0,1,3.941-3.941H69.41a3.941,3.941,0,0,1,3.941,3.941V66.627Z" transform="translate(-1.4 -5.415)" fill="#fff"/>
      <path id="Path_15084" data-name="Path 15084" d="M73.351,66.627a4.479,4.479,0,0,1-4.4,4.479l-11.952.2H5.342A3.941,3.941,0,0,1,1.4,67.365V15.382a3.941,3.941,0,0,1,3.941-3.941H69.41a3.941,3.941,0,0,1,3.941,3.941V66.627Z" transform="translate(-1.4 -5.415)" fill="none" stroke="#00685c" stroke-linecap="round" stroke-linejoin="round" stroke-width="2"/>
      <path id="Path_15085" data-name="Path 15085" d="M1.66,23.2l-.26-.049V15.382a3.941,3.941,0,0,1,3.941-3.941H69.409a3.94,3.94,0,0,1,3.941,3.941V23.2Z" transform="translate(-1.4 -5.415)" fill="#04aa84"/>
      <path id="Path_15086" data-name="Path 15086" d="M1.66,23.2l-.26-.049V15.382a3.941,3.941,0,0,1,3.941-3.941H69.409a3.94,3.94,0,0,1,3.941,3.941V23.2Z" transform="translate(-1.4 -5.415)" fill="none" stroke="#00685c" stroke-linecap="round" stroke-linejoin="round" stroke-width="2"/>
      <path id="Path_15087" data-name="Path 15087" d="M27.17,14.876h0c-1.465,0-2.924-1.087-2.924-2.428V3.829c0-1.341,1.49-2.428,2.924-2.428s2.924,1.087,2.924,2.428v8.619a2.723,2.723,0,0,1-2.924,2.428" transform="translate(-10.534 -1.401)" fill="#04aa84"/>
      <path id="Path_15088" data-name="Path 15088" d="M27.17,14.876h0c-1.465,0-2.924-1.087-2.924-2.428V3.829c0-1.341,1.49-2.428,2.924-2.428s2.924,1.087,2.924,2.428v8.619A2.723,2.723,0,0,1,27.17,14.876Z" transform="translate(-10.534 -1.401)" fill="none" stroke="#00685c" stroke-linecap="round" stroke-linejoin="round" stroke-width="2"/>
      <path id="Path_15089" data-name="Path 15089" d="M92.42,14.876h0c-1.465,0-2.924-1.087-2.924-2.428V3.829c0-1.341,1.49-2.428,2.924-2.428s2.924,1.087,2.924,2.428v8.619a2.722,2.722,0,0,1-2.924,2.428" transform="translate(-36.622 -1.401)" fill="#04aa84"/>
      <path id="Path_15090" data-name="Path 15090" d="M92.42,14.876h0c-1.465,0-2.924-1.087-2.924-2.428V3.829c0-1.341,1.49-2.428,2.924-2.428s2.924,1.087,2.924,2.428v8.619A2.722,2.722,0,0,1,92.42,14.876Z" transform="translate(-36.622 -1.401)" fill="none" stroke="#00685c" stroke-linecap="round" stroke-linejoin="round" stroke-width="2"/>
      <path id="Path_15091" data-name="Path 15091" d="M97.576,74.331H84.587V88.526H98.782V82.1" transform="translate(-34.66 -30.56)" fill="#fff"/>
      <path id="Path_15092" data-name="Path 15092" d="M97.576,74.331H84.587V88.526H98.782V82.1" transform="translate(-34.66 -30.56)" fill="none" stroke="#00685c" stroke-linecap="round" stroke-linejoin="round" stroke-width="2.802"/>
      <path id="Path_15093" data-name="Path 15093" d="M91.374,81.248l2.91,3.928,9.455-8.583" transform="translate(-37.373 -31.464)" fill="none" stroke="#00685c" stroke-linecap="round" stroke-linejoin="round" stroke-width="2.802"/>
      <path id="Path_15094" data-name="Path 15094" d="M28.986,42.225H16V56.42H30.191V50" transform="translate(-7.236 -17.723)" fill="#fff"/>
      <path id="Path_15095" data-name="Path 15095" d="M28.986,42.225H16V56.42H30.191V50" transform="translate(-7.236 -17.723)" fill="none" stroke="#00685c" stroke-linecap="round" stroke-linejoin="round" stroke-width="2.802"/>
      <rect id="Rectangle_14517" data-name="Rectangle 14517" width="14.195" height="14.195" transform="translate(8.76 43.836)" fill="none" stroke="#00685c" stroke-linecap="round" stroke-linejoin="round" stroke-width="2.802"/>
      <rect id="Rectangle_14518" data-name="Rectangle 14518" width="14.195" height="14.195" transform="translate(29.827 24.502)" fill="none" stroke="#00685c" stroke-linecap="round" stroke-linejoin="round" stroke-width="2.802"/>
      <rect id="Rectangle_14519" data-name="Rectangle 14519" width="14.195" height="14.195" transform="translate(50.004 24.502)" fill="none" stroke="#00685c" stroke-linecap="round" stroke-linejoin="round" stroke-width="2.802"/>
      <rect id="Rectangle_14520" data-name="Rectangle 14520" width="14.195" height="14.195" transform="translate(29.827 43.836)" fill="none" stroke="#00685c" stroke-linecap="round" stroke-linejoin="round" stroke-width="2.802"/>
      <path id="Path_15096" data-name="Path 15096" d="M22.784,49.142l2.91,3.928,9.455-8.583" transform="translate(-9.95 -18.627)" fill="none" stroke="#00685c" stroke-linecap="round" stroke-linejoin="round" stroke-width="2.802"/>
    </g>
  </g>
</svg>
